g SM_Chr_Attach_Hat_Cowboy_01
v 5.790268E-15 0.1817949 -0.1752536
v 0.06249617 0.2128052 -0.1458282
v 5.790268E-15 0.2295181 -0.04291845
v 0.06249617 0.2802958 0.04132169
v 5.790268E-15 0.2772412 0.08941672
v 0.06249617 0.2128052 -0.1458282
v 0.06295022 0.2669659 -0.05961544
v 5.790268E-15 0.2295181 -0.04291845
v 0.06295022 0.2669659 -0.05961544
v 0.06249617 0.2802958 0.04132169
v 5.790268E-15 0.2295181 -0.04291845
v 0.06249617 0.2128052 -0.1458282
v 0.1086136 0.2669002 -0.05959176
v 0.06295022 0.2669659 -0.05961544
v 0.1086136 0.2669002 -0.05959176
v 0.06249617 0.2802958 0.04132169
v 0.06295022 0.2669659 -0.05961544
v 5.790268E-15 0.1817949 -0.1752536
v 5.790268E-15 0.2295181 -0.04291845
v -0.06249617 0.2128052 -0.1458282
v -0.06249617 0.2802958 0.04132169
v 5.790268E-15 0.2772412 0.08941672
v -0.06249617 0.2128052 -0.1458282
v 5.790268E-15 0.2295181 -0.04291845
v -0.06295022 0.2669659 -0.05961544
v -0.06295022 0.2669659 -0.05961544
v 5.790268E-15 0.2295181 -0.04291845
v -0.06249617 0.2802958 0.04132169
v -0.06249617 0.2128052 -0.1458282
v -0.06295022 0.2669659 -0.05961544
v -0.1086136 0.2669002 -0.05959176
v -0.1086136 0.2669002 -0.05959176
v -0.06295022 0.2669659 -0.05961544
v -0.06249617 0.2802958 0.04132169
v 5.348321E-15 -0.006576528 -0.1985934
v 0.168183 0.03564053 -0.1659222
v 0.168183 0.05483389 -0.1733843
v 5.348321E-15 0.01270819 -0.2055479
v 0.1488011 0.1328703 0.2198766
v 0.0001376582 0.1345609 0.2583659
v 0.0001376582 0.1538454 0.2514114
v 0.1488011 0.1520636 0.2124146
v 0.168183 0.03564053 -0.1659222
v 5.348321E-15 -0.006576528 -0.1985934
v 5.348321E-15 0.09903727 0.006216799
v 0.246441 0.1202591 0.0009978116
v 0.1488011 0.1328703 0.2198766
v 0.246441 0.1202591 0.0009978116
v 5.348321E-15 0.09903727 0.006216799
v 0.0001376582 0.1345609 0.2583659
v 5.348321E-15 0.09903727 0.006216799
v -0.1488011 0.1328703 0.2198766
v -0.246441 0.1202591 0.0009978116
v 5.348321E-15 0.01270819 -0.2055479
v 0.168183 0.05483389 -0.1733843
v 0.1217345 0.08050051 -0.1264016
v 5.348321E-15 0.06277198 -0.1722493
v -0.1217345 0.08050051 -0.1264016
v -0.168183 0.05483389 -0.1733843
v 0.168183 0.05483389 -0.1733843
v 0.246441 0.1394525 -0.006464226
v 0.1618029 0.1297147 -0.002784734
v 0.1217345 0.08050051 -0.1264016
v 0.246441 0.1394525 -0.006464226
v 0.1488011 0.1520636 0.2124146
v 0.1141675 0.1679762 0.1033142
v 0.1618029 0.1297147 -0.002784734
v 0.1488011 0.1520636 0.2124146
v 0.0001376582 0.1538454 0.2514114
v 5.348321E-15 0.1838249 0.1472619
v 0.1141675 0.1679762 0.1033142
v 5.348321E-15 0.06277198 -0.1722493
v 0.1217345 0.08050051 -0.1264016
v 0.09668595 0.1553021 -0.1348941
v 5.348321E-15 0.1191359 -0.1718558
v 0.1217345 0.08050051 -0.1264016
v 0.1618029 0.1297147 -0.002784734
v 0.1372198 0.2019 -0.03087788
v 0.09668595 0.1553021 -0.1348941
v 0.1618029 0.1297147 -0.002784734
v 0.1141675 0.1679762 0.1033142
v 0.09066463 0.2299995 0.0797798
v 0.1372198 0.2019 -0.03087788
v 0.1141675 0.1679762 0.1033142
v 5.348321E-15 0.1838249 0.1472619
v 5.348321E-15 0.2281635 0.1304755
v 0.09066463 0.2299995 0.0797798
v 0.08224859 0.2335437 0.07020482
v 5.348321E-15 0.2302761 0.1179801
v 5.790268E-15 0.2772412 0.08941672
v 0.06249617 0.2802958 0.04132169
v 0.12548 0.2082888 -0.03318174
v 0.08224859 0.2335437 0.07020482
v 0.06249617 0.2802958 0.04132169
v 0.1086136 0.2669002 -0.05959176
v 0.08224859 0.1617451 -0.1288912
v 0.12548 0.2082888 -0.03318174
v 0.1086136 0.2669002 -0.05959176
v 0.06249617 0.2128052 -0.1458282
v 5.348321E-15 0.1287373 -0.1635847
v 0.08224859 0.1617451 -0.1288912
v 0.06249617 0.2128052 -0.1458282
v 5.790268E-15 0.1817949 -0.1752536
v 0.09066463 0.2299995 0.0797798
v 5.348321E-15 0.2281635 0.1304755
v 5.348321E-15 0.2302761 0.1179801
v 0.08224859 0.2335437 0.07020482
v 0.1372198 0.2019 -0.03087788
v 0.09066463 0.2299995 0.0797798
v 0.08224859 0.2335437 0.07020482
v 0.12548 0.2082888 -0.03318174
v 0.09668595 0.1553021 -0.1348941
v 0.1372198 0.2019 -0.03087788
v 0.12548 0.2082888 -0.03318174
v 0.08224859 0.1617451 -0.1288912
v 5.348321E-15 0.1191359 -0.1718558
v 0.09668595 0.1553021 -0.1348941
v 0.08224859 0.1617451 -0.1288912
v 5.348321E-15 0.1287373 -0.1635847
v -0.08224859 0.1617451 -0.1288912
v -0.09668595 0.1553021 -0.1348941
v 5.348321E-15 -0.006576528 -0.1985934
v 5.348321E-15 0.01270819 -0.2055479
v -0.168183 0.05483389 -0.1733843
v -0.168183 0.03564053 -0.1659222
v -0.1488011 0.1328703 0.2198766
v -0.1488011 0.1520636 0.2124146
v 0.0001376582 0.1538454 0.2514114
v 0.0001376582 0.1345609 0.2583659
v -0.168183 0.03564053 -0.1659222
v 5.348321E-15 0.09903727 0.006216799
v 5.348321E-15 -0.006576528 -0.1985934
v -0.246441 0.1202591 0.0009978116
v -0.168183 0.05483389 -0.1733843
v -0.1217345 0.08050051 -0.1264016
v -0.1618029 0.1297147 -0.002784734
v -0.246441 0.1394525 -0.006464226
v -0.246441 0.1394525 -0.006464226
v -0.1618029 0.1297147 -0.002784734
v -0.1141675 0.1679762 0.1033142
v -0.1488011 0.1520636 0.2124146
v -0.1488011 0.1520636 0.2124146
v -0.1141675 0.1679762 0.1033142
v 5.348321E-15 0.1838249 0.1472619
v 0.0001376582 0.1538454 0.2514114
v 5.348321E-15 0.06277198 -0.1722493
v 5.348321E-15 0.1191359 -0.1718558
v -0.09668595 0.1553021 -0.1348941
v -0.1217345 0.08050051 -0.1264016
v -0.1217345 0.08050051 -0.1264016
v -0.09668595 0.1553021 -0.1348941
v -0.1372198 0.2019 -0.03087788
v -0.1618029 0.1297147 -0.002784734
v -0.1618029 0.1297147 -0.002784734
v -0.1372198 0.2019 -0.03087788
v -0.09066463 0.2299995 0.0797798
v -0.1141675 0.1679762 0.1033142
v -0.1141675 0.1679762 0.1033142
v -0.09066463 0.2299995 0.0797798
v 5.348321E-15 0.2281635 0.1304755
v 5.348321E-15 0.1838249 0.1472619
v -0.08224859 0.2335437 0.07020482
v -0.06249617 0.2802958 0.04132169
v 5.790268E-15 0.2772412 0.08941672
v 5.348321E-15 0.2302761 0.1179801
v -0.12548 0.2082888 -0.03318174
v -0.1086136 0.2669002 -0.05959176
v -0.06249617 0.2802958 0.04132169
v -0.08224859 0.2335437 0.07020482
v -0.08224859 0.1617451 -0.1288912
v -0.06249617 0.2128052 -0.1458282
v -0.1086136 0.2669002 -0.05959176
v -0.12548 0.2082888 -0.03318174
v 5.348321E-15 0.1287373 -0.1635847
v 5.790268E-15 0.1817949 -0.1752536
v -0.06249617 0.2128052 -0.1458282
v -0.08224859 0.1617451 -0.1288912
v -0.09066463 0.2299995 0.0797798
v -0.08224859 0.2335437 0.07020482
v 5.348321E-15 0.2302761 0.1179801
v 5.348321E-15 0.2281635 0.1304755
v -0.1372198 0.2019 -0.03087788
v -0.12548 0.2082888 -0.03318174
v -0.08224859 0.2335437 0.07020482
v -0.09066463 0.2299995 0.0797798
v -0.09668595 0.1553021 -0.1348941
v -0.08224859 0.1617451 -0.1288912
v -0.12548 0.2082888 -0.03318174
v -0.1372198 0.2019 -0.03087788
v 0.246441 0.1394525 -0.006464226
v 0.246441 0.1202591 0.0009978116
v 0.1488011 0.1328703 0.2198766
v 0.1488011 0.1520636 0.2124146
v 0.168183 0.05483389 -0.1733843
v 0.168183 0.03564053 -0.1659222
v 0.246441 0.1202591 0.0009978116
v 0.246441 0.1394525 -0.006464226
v -0.246441 0.1394525 -0.006464226
v -0.246441 0.1202591 0.0009978116
v -0.168183 0.03564053 -0.1659222
v -0.168183 0.05483389 -0.1733843
v -0.1488011 0.1520636 0.2124146
v -0.1488011 0.1328703 0.2198766
v -0.246441 0.1202591 0.0009978116
v -0.246441 0.1394525 -0.006464226
vt 0.3740802 0.3644517
vt 0.3740802 0.3644517
vt 0.3740802 0.3644517
vt 0.3740802 0.3644517
vt 0.3740802 0.3644517
vt 0.3740802 0.3644517
vt 0.3740802 0.3644517
vt 0.3740802 0.3644517
vt 0.3740802 0.3644517
vt 0.3740802 0.3644517
vt 0.3740802 0.3644517
vt 0.3740802 0.3644517
vt 0.3740802 0.3644517
vt 0.3740802 0.3644517
vt 0.3740802 0.3644517
vt 0.3740802 0.3644517
vt 0.3740802 0.3644517
vt 0.3740802 0.3644517
vt 0.3740802 0.3644517
vt 0.3740802 0.3644517
vt 0.3740802 0.3644517
vt 0.3740802 0.3644517
vt 0.3740802 0.3644517
vt 0.3740802 0.3644517
vt 0.3740802 0.3644517
vt 0.3740802 0.3644517
vt 0.3740802 0.3644517
vt 0.3740802 0.3644517
vt 0.3740802 0.3644517
vt 0.3740802 0.3644517
vt 0.3740802 0.3644517
vt 0.3740802 0.3644517
vt 0.3740802 0.3644517
vt 0.3740802 0.3644517
vt 0.3740802 0.3644517
vt 0.3740802 0.3644517
vt 0.3740802 0.3644517
vt 0.3740802 0.3644517
vt 0.3740802 0.3644517
vt 0.3740802 0.3644517
vt 0.3740802 0.3644517
vt 0.3740802 0.3644517
vt 0.3740802 0.3644517
vt 0.3740802 0.3644517
vt 0.3740802 0.3644517
vt 0.3740802 0.3644517
vt 0.3740802 0.3644517
vt 0.3740802 0.3644517
vt 0.3740802 0.3644517
vt 0.3740802 0.3644517
vt 0.3740802 0.3644517
vt 0.3740802 0.3644517
vt 0.3740802 0.3644517
vt 0.3740802 0.3644517
vt 0.3740802 0.3644517
vt 0.3740802 0.3644517
vt 0.3740802 0.3644517
vt 0.3740802 0.3644517
vt 0.3740802 0.3644517
vt 0.3740802 0.3644517
vt 0.3740802 0.3644517
vt 0.3740802 0.3644517
vt 0.3740802 0.3644517
vt 0.3740802 0.3644517
vt 0.3740802 0.3644517
vt 0.3740802 0.3644517
vt 0.3740802 0.3644517
vt 0.3740802 0.3644517
vt 0.3740802 0.3644517
vt 0.3740802 0.3644517
vt 0.3740802 0.3644517
vt 0.0160136 0.3259948
vt 0.0160136 0.3259948
vt 0.0160136 0.3259948
vt 0.0160136 0.3259948
vt 0.0160136 0.3259948
vt 0.0160136 0.3259948
vt 0.0160136 0.3259948
vt 0.0160136 0.3259948
vt 0.0160136 0.3259948
vt 0.0160136 0.3259948
vt 0.0160136 0.3259948
vt 0.0160136 0.3259948
vt 0.0160136 0.3259948
vt 0.0160136 0.3259948
vt 0.0160136 0.3259948
vt 0.0160136 0.3259948
vt 0.3740802 0.3644517
vt 0.3740802 0.3644517
vt 0.3740802 0.3644517
vt 0.3740802 0.3644517
vt 0.3740802 0.3644517
vt 0.3740802 0.3644517
vt 0.3740802 0.3644517
vt 0.3740802 0.3644517
vt 0.3740802 0.3644517
vt 0.3740802 0.3644517
vt 0.3740802 0.3644517
vt 0.3740802 0.3644517
vt 0.3740802 0.3644517
vt 0.3740802 0.3644517
vt 0.3740802 0.3644517
vt 0.3740802 0.3644517
vt 0.0160136 0.3259948
vt 0.0160136 0.3259948
vt 0.0160136 0.3259948
vt 0.0160136 0.3259948
vt 0.0160136 0.3259948
vt 0.0160136 0.3259948
vt 0.0160136 0.3259948
vt 0.0160136 0.3259948
vt 0.0160136 0.3259948
vt 0.0160136 0.3259948
vt 0.0160136 0.3259948
vt 0.0160136 0.3259948
vt 0.0160136 0.3259948
vt 0.0160136 0.3259948
vt 0.0160136 0.3259948
vt 0.0160136 0.3259948
vt 0.0160136 0.3259948
vt 0.0160136 0.3259948
vt 0.3740802 0.3644517
vt 0.3740802 0.3644517
vt 0.3740802 0.3644517
vt 0.3740802 0.3644517
vt 0.3740802 0.3644517
vt 0.3740802 0.3644517
vt 0.3740802 0.3644517
vt 0.3740802 0.3644517
vt 0.3740802 0.3644517
vt 0.3740802 0.3644517
vt 0.3740802 0.3644517
vt 0.3740802 0.3644517
vt 0.3740802 0.3644517
vt 0.3740802 0.3644517
vt 0.3740802 0.3644517
vt 0.3740802 0.3644517
vt 0.3740802 0.3644517
vt 0.3740802 0.3644517
vt 0.3740802 0.3644517
vt 0.3740802 0.3644517
vt 0.3740802 0.3644517
vt 0.3740802 0.3644517
vt 0.3740802 0.3644517
vt 0.3740802 0.3644517
vt 0.0160136 0.3259948
vt 0.0160136 0.3259948
vt 0.0160136 0.3259948
vt 0.0160136 0.3259948
vt 0.0160136 0.3259948
vt 0.0160136 0.3259948
vt 0.0160136 0.3259948
vt 0.0160136 0.3259948
vt 0.0160136 0.3259948
vt 0.0160136 0.3259948
vt 0.0160136 0.3259948
vt 0.0160136 0.3259948
vt 0.0160136 0.3259948
vt 0.0160136 0.3259948
vt 0.0160136 0.3259948
vt 0.0160136 0.3259948
vt 0.3740802 0.3644517
vt 0.3740802 0.3644517
vt 0.3740802 0.3644517
vt 0.3740802 0.3644517
vt 0.3740802 0.3644517
vt 0.3740802 0.3644517
vt 0.3740802 0.3644517
vt 0.3740802 0.3644517
vt 0.3740802 0.3644517
vt 0.3740802 0.3644517
vt 0.3740802 0.3644517
vt 0.3740802 0.3644517
vt 0.3740802 0.3644517
vt 0.3740802 0.3644517
vt 0.3740802 0.3644517
vt 0.3740802 0.3644517
vt 0.0160136 0.3259948
vt 0.0160136 0.3259948
vt 0.0160136 0.3259948
vt 0.0160136 0.3259948
vt 0.0160136 0.3259948
vt 0.0160136 0.3259948
vt 0.0160136 0.3259948
vt 0.0160136 0.3259948
vt 0.0160136 0.3259948
vt 0.0160136 0.3259948
vt 0.0160136 0.3259948
vt 0.0160136 0.3259948
vt 0.3737588 0.3638821
vt 0.3737588 0.3638821
vt 0.3737588 0.3638821
vt 0.3737588 0.3638821
vt 0.3737588 0.3638821
vt 0.3737588 0.3638821
vt 0.3737588 0.3638821
vt 0.3737588 0.3638821
vt 0.3737588 0.3638821
vt 0.3737588 0.3638821
vt 0.3737587 0.3638821
vt 0.3737587 0.3638821
vt 0.3737588 0.3638821
vt 0.3737588 0.3638821
vt 0.3737588 0.3638821
vt 0.3737588 0.3638821
vn -0.293521 0.899265 -0.3242962
vn -0.293521 0.899265 -0.3242962
vn -0.2935203 0.8992652 -0.3242959
vn -0.2935196 0.8992655 -0.3242956
vn -0.2935196 0.8992655 -0.3242956
vn -0.5420819 0.7128457 -0.44497
vn -0.5420819 0.7128457 -0.44497
vn -0.5420819 0.7128457 -0.44497
vn -0.5299985 0.8403867 -0.113366
vn -0.5299985 0.8403867 -0.113366
vn -0.5299985 0.8403867 -0.113366
vn 0.001495383 0.8467656 -0.5319639
vn 0.001495383 0.8467656 -0.5319639
vn 0.001495383 0.8467656 -0.5319639
vn 0.001495714 0.9913923 -0.130917
vn 0.001495714 0.9913923 -0.130917
vn 0.001495714 0.9913923 -0.130917
vn 0.293521 0.899265 -0.3242962
vn 0.2935203 0.8992652 -0.3242959
vn 0.293521 0.899265 -0.3242962
vn 0.2935196 0.8992655 -0.3242956
vn 0.2935196 0.8992655 -0.3242956
vn 0.5420819 0.7128457 -0.44497
vn 0.5420819 0.7128457 -0.44497
vn 0.5420819 0.7128457 -0.44497
vn 0.5299985 0.8403867 -0.113366
vn 0.5299985 0.8403867 -0.113366
vn 0.5299985 0.8403867 -0.113366
vn -0.001495383 0.8467656 -0.5319639
vn -0.001495383 0.8467656 -0.5319639
vn -0.001495383 0.8467656 -0.5319639
vn -0.001495714 0.9913923 -0.130917
vn -0.001495714 0.9913923 -0.130917
vn -0.001495714 0.9913923 -0.130917
vn 0.2592906 -0.3388519 -0.9044046
vn 0.2592906 -0.3388519 -0.9044046
vn 0.2592906 -0.3388519 -0.9044046
vn 0.2592906 -0.3388519 -0.9044046
vn 0.2408362 0.3405248 0.9088679
vn 0.2408362 0.3405248 0.9088679
vn 0.2408362 0.3405248 0.9088679
vn 0.2408362 0.3405248 0.9088679
vn 0.1098592 -0.8930938 0.4362502
vn 0.1328805 -0.8809063 0.4542539
vn 0.1098592 -0.8930938 0.4362502
vn 0.08672771 -0.9043859 0.4178091
vn 0.05617342 -0.9914386 0.1178729
vn 0.08741891 -0.991523 0.09612565
vn 0.05617342 -0.9914386 0.1178729
vn 1.950418E-05 -0.9902213 0.1395057
vn -0.05615396 -0.9914381 0.1178864
vn -0.05615396 -0.9914381 0.1178864
vn -0.08741891 -0.991523 0.09612565
vn 0 0.7360792 -0.6768955
vn 0.03016055 0.7357443 -0.6765875
vn 0.03016055 0.7357443 -0.6765875
vn 0 0.7360792 -0.6768955
vn -0.03016055 0.7357443 -0.6765875
vn -0.03016055 0.7357443 -0.6765875
vn -0.04463604 0.9141487 -0.402914
vn -0.04463604 0.9141487 -0.402914
vn -0.04463604 0.9141487 -0.402914
vn -0.04463604 0.9141487 -0.402914
vn 0.134435 0.9864233 -0.09431982
vn 0.134435 0.9864233 -0.09431982
vn 0.134435 0.9864233 -0.09431982
vn 0.134435 0.9864233 -0.09431982
vn 0.125042 0.973943 0.1892074
vn 0.125042 0.973943 0.1892074
vn 0.125042 0.973943 0.1892074
vn 0.125042 0.973943 0.1892074
vn 0.3524344 0.009522973 -0.9357882
vn 0.3524344 0.009522973 -0.9357882
vn 0.3524344 0.009522973 -0.9357882
vn 0.3524344 0.009522973 -0.9357882
vn 0.8934431 0.2017965 -0.4012949
vn 0.8934431 0.2017965 -0.4012949
vn 0.8934431 0.2017965 -0.4012949
vn 0.8934431 0.2017965 -0.4012949
vn 0.875226 0.4114357 0.2543623
vn 0.875226 0.4114357 0.2543623
vn 0.875226 0.4114357 0.2543623
vn 0.875226 0.4114357 0.2543623
vn 0.4067026 0.401039 0.8208294
vn 0.4067026 0.401039 0.8208294
vn 0.4067026 0.401039 0.8208294
vn 0.4067026 0.401039 0.8208294
vn 0.450676 0.5336468 0.7156203
vn 0.450676 0.5336468 0.7156203
vn 0.450676 0.5336468 0.7156203
vn 0.450676 0.5336468 0.7156203
vn 0.8482417 0.4452763 0.2867314
vn 0.8482417 0.4452763 0.2867314
vn 0.8482417 0.4452763 0.2867314
vn 0.8482417 0.4452763 0.2867314
vn 0.8701699 0.09982678 -0.4825338
vn 0.8701699 0.09982678 -0.4825338
vn 0.8701699 0.09982678 -0.4825338
vn 0.8701699 0.09982678 -0.4825338
vn 0.4563852 -0.1541837 -0.8763219
vn 0.4563852 -0.1541837 -0.8763219
vn 0.4563852 -0.1541837 -0.8763219
vn 0.4563852 -0.1541837 -0.8763219
vn 0.09303689 0.9724433 0.2137713
vn 0.09303689 0.9724433 0.2137713
vn 0.09303689 0.9724433 0.2137713
vn 0.09303689 0.9724433 0.2137713
vn 0.4561715 0.8893745 -0.03033938
vn 0.4561715 0.8893745 -0.03033938
vn 0.4561715 0.8893745 -0.03033938
vn 0.4561715 0.8893745 -0.03033938
vn 0.3204063 0.7999167 -0.507418
vn 0.3204063 0.7999167 -0.507418
vn 0.3204063 0.7999167 -0.507418
vn 0.3204063 0.7999167 -0.507418
vn 0 0.6799867 -0.7332245
vn 0.03073447 0.6796654 -0.7328781
vn 0.03073447 0.6796654 -0.7328781
vn 0 0.6799867 -0.7332245
vn -0.03073447 0.6796654 -0.7328781
vn -0.03073447 0.6796654 -0.7328781
vn -0.2592906 -0.3388519 -0.9044046
vn -0.2592906 -0.3388519 -0.9044046
vn -0.2592906 -0.3388519 -0.9044046
vn -0.2592906 -0.3388519 -0.9044046
vn -0.2404167 0.3405612 0.9089653
vn -0.2404167 0.3405612 0.9089653
vn -0.2404167 0.3405612 0.9089653
vn -0.2404167 0.3405612 0.9089653
vn -0.1098592 -0.8930938 0.4362502
vn -0.1098592 -0.8930938 0.4362502
vn -0.1328805 -0.8809063 0.4542539
vn -0.08672771 -0.9043859 0.4178091
vn 0.04463604 0.9141487 -0.402914
vn 0.04463604 0.9141487 -0.402914
vn 0.04463604 0.9141487 -0.402914
vn 0.04463604 0.9141487 -0.402914
vn -0.134435 0.9864233 -0.09431982
vn -0.134435 0.9864233 -0.09431982
vn -0.134435 0.9864233 -0.09431982
vn -0.134435 0.9864233 -0.09431982
vn -0.124963 0.9739203 0.1893768
vn -0.124963 0.9739203 0.1893768
vn -0.124963 0.9739203 0.1893768
vn -0.124963 0.9739203 0.1893768
vn -0.3524344 0.009522973 -0.9357882
vn -0.3524344 0.009522973 -0.9357882
vn -0.3524344 0.009522973 -0.9357882
vn -0.3524344 0.009522973 -0.9357882
vn -0.8934431 0.2017965 -0.4012949
vn -0.8934431 0.2017965 -0.4012949
vn -0.8934431 0.2017965 -0.4012949
vn -0.8934431 0.2017965 -0.4012949
vn -0.875226 0.4114357 0.2543623
vn -0.875226 0.4114357 0.2543623
vn -0.875226 0.4114357 0.2543623
vn -0.875226 0.4114357 0.2543623
vn -0.4067026 0.401039 0.8208294
vn -0.4067026 0.401039 0.8208294
vn -0.4067026 0.401039 0.8208294
vn -0.4067026 0.401039 0.8208294
vn -0.450676 0.5336468 0.7156203
vn -0.450676 0.5336468 0.7156203
vn -0.450676 0.5336468 0.7156203
vn -0.450676 0.5336468 0.7156203
vn -0.8482417 0.4452763 0.2867314
vn -0.8482417 0.4452763 0.2867314
vn -0.8482417 0.4452763 0.2867314
vn -0.8482417 0.4452763 0.2867314
vn -0.8701699 0.09982678 -0.4825338
vn -0.8701699 0.09982678 -0.4825338
vn -0.8701699 0.09982678 -0.4825338
vn -0.8701699 0.09982678 -0.4825338
vn -0.4563852 -0.1541837 -0.8763219
vn -0.4563852 -0.1541837 -0.8763219
vn -0.4563852 -0.1541837 -0.8763219
vn -0.4563852 -0.1541837 -0.8763219
vn -0.09303689 0.9724433 0.2137713
vn -0.09303689 0.9724433 0.2137713
vn -0.09303689 0.9724433 0.2137713
vn -0.09303689 0.9724433 0.2137713
vn -0.4561715 0.8893745 -0.03033938
vn -0.4561715 0.8893745 -0.03033938
vn -0.4561715 0.8893745 -0.03033938
vn -0.4561715 0.8893745 -0.03033938
vn -0.3204063 0.7999167 -0.507418
vn -0.3204063 0.7999167 -0.507418
vn -0.3204063 0.7999167 -0.507418
vn -0.3204063 0.7999167 -0.507418
vn 0.9056737 0.1536317 0.3951612
vn 0.9056737 0.1536317 0.3951612
vn 0.9056737 0.1536317 0.3951612
vn 0.9056737 0.1536317 0.3951612
vn 0.921915 -0.1403757 -0.361064
vn 0.921915 -0.1403757 -0.361064
vn 0.921915 -0.1403757 -0.361064
vn 0.921915 -0.1403757 -0.361064
vn -0.921915 -0.1403757 -0.361064
vn -0.921915 -0.1403757 -0.361064
vn -0.921915 -0.1403757 -0.361064
vn -0.921915 -0.1403757 -0.361064
vn -0.9056737 0.1536317 0.3951612
vn -0.9056737 0.1536317 0.3951612
vn -0.9056737 0.1536317 0.3951612
vn -0.9056737 0.1536317 0.3951612
g SM_Chr_Attach_Hat_Cowboy_01_0
f 3/3/3 2/2/2 1/1/1
f 3/3/3 5/5/5 4/4/4
f 8/8/8 7/7/7 6/6/6
f 11/11/11 10/10/10 9/9/9
f 14/14/14 13/13/13 12/12/12
f 17/17/17 16/16/16 15/15/15
f 20/20/20 19/19/19 18/18/18
f 22/22/22 19/19/19 21/21/21
f 25/25/25 24/24/24 23/23/23
f 28/28/28 27/27/27 26/26/26
f 31/31/31 30/30/30 29/29/29
f 34/34/34 33/33/33 32/32/32
f 37/37/37 36/36/36 35/35/35
f 38/38/38 37/37/37 35/35/35
f 41/41/41 40/40/40 39/39/39
f 42/42/42 41/41/41 39/39/39
f 45/45/45 44/44/44 43/43/43
f 45/45/45 43/43/43 46/46/46
f 49/49/49 48/48/48 47/47/47
f 49/49/49 47/47/47 50/50/50
f 52/52/52 51/51/51 50/50/50
f 53/53/53 51/51/51 52/52/52
f 56/56/56 55/55/55 54/54/54
f 57/57/57 56/56/56 54/54/54
f 58/58/58 57/57/57 54/54/54
f 59/59/59 58/58/58 54/54/54
f 62/62/62 61/61/61 60/60/60
f 63/63/63 62/62/62 60/60/60
f 66/66/66 65/65/65 64/64/64
f 67/67/67 66/66/66 64/64/64
f 70/70/70 69/69/69 68/68/68
f 71/71/71 70/70/70 68/68/68
f 74/74/74 73/73/73 72/72/72
f 75/75/75 74/74/74 72/72/72
f 78/78/78 77/77/77 76/76/76
f 79/79/79 78/78/78 76/76/76
f 82/82/82 81/81/81 80/80/80
f 83/83/83 82/82/82 80/80/80
f 86/86/86 85/85/85 84/84/84
f 87/87/87 86/86/86 84/84/84
f 90/90/90 89/89/89 88/88/88
f 91/91/91 90/90/90 88/88/88
f 94/94/94 93/93/93 92/92/92
f 95/95/95 94/94/94 92/92/92
f 98/98/98 97/97/97 96/96/96
f 99/99/99 98/98/98 96/96/96
f 102/102/102 101/101/101 100/100/100
f 103/103/103 102/102/102 100/100/100
f 106/106/106 105/105/105 104/104/104
f 107/107/107 106/106/106 104/104/104
f 110/110/110 109/109/109 108/108/108
f 111/111/111 110/110/110 108/108/108
f 114/114/114 113/113/113 112/112/112
f 115/115/115 114/114/114 112/112/112
f 118/118/118 117/117/117 116/116/116
f 119/119/119 118/118/118 116/116/116
f 120/120/120 119/119/119 116/116/116
f 121/121/121 120/120/120 116/116/116
f 124/124/124 123/123/123 122/122/122
f 125/125/125 124/124/124 122/122/122
f 128/128/128 127/127/127 126/126/126
f 129/129/129 128/128/128 126/126/126
f 132/132/132 131/131/131 130/130/130
f 130/130/130 131/131/131 133/133/133
f 136/136/136 135/135/135 134/134/134
f 137/137/137 136/136/136 134/134/134
f 140/140/140 139/139/139 138/138/138
f 141/141/141 140/140/140 138/138/138
f 144/144/144 143/143/143 142/142/142
f 145/145/145 144/144/144 142/142/142
f 148/148/148 147/147/147 146/146/146
f 149/149/149 148/148/148 146/146/146
f 152/152/152 151/151/151 150/150/150
f 153/153/153 152/152/152 150/150/150
f 156/156/156 155/155/155 154/154/154
f 157/157/157 156/156/156 154/154/154
f 160/160/160 159/159/159 158/158/158
f 161/161/161 160/160/160 158/158/158
f 164/164/164 163/163/163 162/162/162
f 165/165/165 164/164/164 162/162/162
f 168/168/168 167/167/167 166/166/166
f 169/169/169 168/168/168 166/166/166
f 172/172/172 171/171/171 170/170/170
f 173/173/173 172/172/172 170/170/170
f 176/176/176 175/175/175 174/174/174
f 177/177/177 176/176/176 174/174/174
f 180/180/180 179/179/179 178/178/178
f 181/181/181 180/180/180 178/178/178
f 184/184/184 183/183/183 182/182/182
f 185/185/185 184/184/184 182/182/182
f 188/188/188 187/187/187 186/186/186
f 189/189/189 188/188/188 186/186/186
f 192/192/192 191/191/191 190/190/190
f 193/193/193 192/192/192 190/190/190
f 196/196/196 195/195/195 194/194/194
f 197/197/197 196/196/196 194/194/194
f 200/200/200 199/199/199 198/198/198
f 201/201/201 200/200/200 198/198/198
f 204/204/204 203/203/203 202/202/202
f 205/205/205 204/204/204 202/202/202
