g SM_Chr_Attach_Facemask_02
v -0.1385836 0.02920227 -0.01654084
v -0.1131654 0.02458124 0.02994986
v -0.1017166 -0.02675018 0.03598035
v -0.1017166 -0.02675018 0.03598035
v -0.09026085 -0.05140571 0.1002554
v -0.05852805 -0.06143264 0.05072301
v -0.1131654 0.02458124 0.02994986
v -0.09026085 -0.05140571 0.1002554
v -0.1017166 -0.02675018 0.03598035
v 0.1385836 0.02920227 -0.01654084
v 0.1017166 -0.02675018 0.03598036
v 0.1131654 0.02458124 0.02994986
v 0.1017166 -0.02675018 0.03598036
v 0.05852805 -0.06143264 0.05072301
v 0.09026085 -0.05140571 0.1002554
v 0.1131654 0.02458124 0.02994986
v 0.1017166 -0.02675018 0.03598036
v 0.09026085 -0.05140571 0.1002554
v -0.08616666 0.08412294 0.1225668
v 1.942441E-12 0.1055325 0.01628779
v 3.22079E-10 0.08259802 0.144591
v -0.1072758 0.08792467 0.08101644
v -0.08616666 0.08412294 0.1225668
v -0.1166726 0.09478464 0.02427219
v -0.1072758 0.08792467 0.08101644
v -0.1448943 0.1024013 -0.03131862
v -0.1166726 0.09478464 0.02427219
v -0.1115341 0.1040908 -0.1068691
v 1.942441E-12 0.1055325 0.01628779
v -0.1448943 0.1024013 -0.03131862
v 2.238575E-11 0.1031835 -0.123567
v -0.1115341 0.1040908 -0.1068691
v 0.1448943 0.1024013 -0.03131862
v 0.1115341 0.1040908 -0.1068691
v 0.1115341 0.1040908 -0.1068691
v 2.238575E-11 0.1031835 -0.123567
v 3.22079E-10 0.08259802 0.144591
v 1.942441E-12 0.1055325 0.01628779
v 0.08616666 0.08412294 0.1225668
v 0.08616666 0.08412294 0.1225668
v 0.1072758 0.08792467 0.08101644
v 0.1072758 0.08792467 0.08101644
v 0.1166726 0.09478464 0.02427219
v 0.1166726 0.09478464 0.02427219
v 0.1448943 0.1024013 -0.03131862
v -0.06521048 -0.09852829 0.04959726
v -3.833723E-11 -0.08623954 -0.0214379
v -0.07815807 -0.05223456 -0.06974472
v -0.07815807 -0.05223456 -0.06974472
v -3.833723E-11 -0.08623954 -0.0214379
v -7.787528E-10 -0.0508934 -0.09340621
v 8.85974E-11 -0.1135898 0.07421405
v -3.833723E-11 -0.08623954 -0.0214379
v -0.06521048 -0.09852829 0.04959726
v 0.07815807 -0.05223456 -0.06974472
v -3.833723E-11 -0.08623954 -0.0214379
v 0.06521048 -0.09852829 0.04959726
v -7.787528E-10 -0.0508934 -0.09340621
v -3.833723E-11 -0.08623954 -0.0214379
v 0.07815807 -0.05223456 -0.06974472
v 0.06521048 -0.09852829 0.04959726
v -3.833723E-11 -0.08623954 -0.0214379
v 8.85974E-11 -0.1135898 0.07421405
v -0.07080594 -0.04114829 0.1269488
v -0.08616666 0.08412294 0.1225668
v 3.22079E-10 0.08259802 0.144591
v 4.969812E-10 -0.06244106 0.1496957
v -0.1166726 0.09478464 0.02427219
v -0.1131654 0.02458124 0.02994986
v -0.1385836 0.02920227 -0.01654084
v -0.1448943 0.1024013 -0.03131862
v -0.1115341 0.1040908 -0.1068691
v -0.1119396 0.03798523 -0.08886706
v -6.526028E-11 0.02617321 -0.1048926
v 2.238575E-11 0.1031835 -0.123567
v -0.09026085 -0.05140571 0.1002554
v -0.07080594 -0.04114829 0.1269488
v 4.969812E-10 -0.06244106 0.1496957
v 2.266999E-10 -0.08446942 0.1032538
v -0.1119396 0.03798523 -0.08886706
v -0.05852805 -0.06143264 0.05072301
v -0.07014884 -0.01988288 -0.05638942
v -0.1017166 -0.02675018 0.03598035
v -0.1385836 0.02920227 -0.01654084
v -0.1119396 0.03798523 -0.08886706
v -0.07014884 -0.01988288 -0.05638942
v -6.989497E-10 -0.01867913 -0.0776262
v -6.526028E-11 0.02617321 -0.1048926
v -0.09026085 -0.05140571 0.1002554
v 2.266999E-10 -0.08446942 0.1032538
v 7.951895E-11 -0.0749507 0.07281721
v -0.05852805 -0.06143264 0.05072301
v -0.1448943 0.1024013 -0.03131862
v -0.1385836 0.02920227 -0.01654084
v -0.1119396 0.03798523 -0.08886706
v -0.1115341 0.1040908 -0.1068691
v -0.08616666 0.08412294 0.1225668
v -0.07080594 -0.04114829 0.1269488
v -0.09026085 -0.05140571 0.1002554
v -0.1072758 0.08792467 0.08101644
v -0.09026085 -0.05140571 0.1002554
v -0.1131654 0.02458124 0.02994986
v -0.1166726 0.09478464 0.02427219
v -0.1072758 0.08792467 0.08101644
v 0.07080595 -0.04114829 0.1269488
v 4.969812E-10 -0.06244106 0.1496957
v 3.22079E-10 0.08259802 0.144591
v 0.08616666 0.08412294 0.1225668
v 0.1166726 0.09478464 0.02427219
v 0.1448943 0.1024013 -0.03131862
v 0.1385836 0.02920227 -0.01654084
v 0.1131654 0.02458124 0.02994986
v 0.1115341 0.1040908 -0.1068691
v 2.238575E-11 0.1031835 -0.123567
v -6.526028E-11 0.02617321 -0.1048926
v 0.1119396 0.03798523 -0.08886706
v 0.09026085 -0.05140571 0.1002554
v 2.266999E-10 -0.08446942 0.1032538
v 4.969812E-10 -0.06244106 0.1496957
v 0.07080595 -0.04114829 0.1269488
v 0.1119396 0.03798523 -0.08886706
v 0.07014884 -0.01988288 -0.05638942
v 0.05852805 -0.06143264 0.05072301
v 0.1017166 -0.02675018 0.03598036
v 0.1385836 0.02920227 -0.01654084
v 0.1119396 0.03798523 -0.08886706
v -6.526028E-11 0.02617321 -0.1048926
v -6.989497E-10 -0.01867913 -0.0776262
v 0.07014884 -0.01988288 -0.05638942
v 0.09026085 -0.05140571 0.1002554
v 0.05852805 -0.06143264 0.05072301
v 7.951895E-11 -0.0749507 0.07281721
v 2.266999E-10 -0.08446942 0.1032538
v 0.1448943 0.1024013 -0.03131862
v 0.1115341 0.1040908 -0.1068691
v 0.1119396 0.03798523 -0.08886706
v 0.1385836 0.02920227 -0.01654084
v 0.08616666 0.08412294 0.1225668
v 0.1072758 0.08792467 0.08101644
v 0.09026085 -0.05140571 0.1002554
v 0.07080595 -0.04114829 0.1269488
v 0.09026085 -0.05140571 0.1002554
v 0.1072758 0.08792467 0.08101644
v 0.1166726 0.09478464 0.02427219
v 0.1131654 0.02458124 0.02994986
v -0.05852805 -0.06143264 0.05072301
v -0.06521048 -0.09852829 0.04959726
v -0.07815807 -0.05223456 -0.06974472
v -0.07014884 -0.01988288 -0.05638942
v -0.07014884 -0.01988288 -0.05638942
v -0.07815807 -0.05223456 -0.06974472
v -7.787528E-10 -0.0508934 -0.09340621
v -6.989497E-10 -0.01867913 -0.0776262
v 7.951895E-11 -0.0749507 0.07281721
v 8.85974E-11 -0.1135898 0.07421405
v -0.06521048 -0.09852829 0.04959726
v -0.05852805 -0.06143264 0.05072301
v 0.07014884 -0.01988288 -0.05638942
v 0.07815807 -0.05223456 -0.06974472
v 0.06521048 -0.09852829 0.04959726
v 0.05852805 -0.06143264 0.05072301
v -6.989497E-10 -0.01867913 -0.0776262
v -7.787528E-10 -0.0508934 -0.09340621
v 0.07815807 -0.05223456 -0.06974472
v 0.07014884 -0.01988288 -0.05638942
v 0.05852805 -0.06143264 0.05072301
v 0.06521048 -0.09852829 0.04959726
v 8.85974E-11 -0.1135898 0.07421405
v 7.951895E-11 -0.0749507 0.07281721
vt 0.7242286 0.2465458
vt 0.7242286 0.2465458
vt 0.7242286 0.2465467
vt 0.7242286 0.2465467
vt 0.7242287 0.2465467
vt 0.7242287 0.2465467
vt 0.7242286 0.2465458
vt 0.7242287 0.2465467
vt 0.7242286 0.2465467
vt 0.7242286 0.2465458
vt 0.7242286 0.2465467
vt 0.7242286 0.2465458
vt 0.7242286 0.2465467
vt 0.7242287 0.2465467
vt 0.7242286 0.2465467
vt 0.7242286 0.2465458
vt 0.7242286 0.2465467
vt 0.7242286 0.2465467
vt 0.7242286 0.2465458
vt 0.7242287 0.2465458
vt 0.7242287 0.2465458
vt 0.7242286 0.2465458
vt 0.7242286 0.2465458
vt 0.7242286 0.2465458
vt 0.7242286 0.2465458
vt 0.7242286 0.2465458
vt 0.7242286 0.2465458
vt 0.7242286 0.2465458
vt 0.7242287 0.2465458
vt 0.7242286 0.2465458
vt 0.7242287 0.2465458
vt 0.7242286 0.2465458
vt 0.7242286 0.2465458
vt 0.7242286 0.2465458
vt 0.7242286 0.2465458
vt 0.7242287 0.2465458
vt 0.7242287 0.2465458
vt 0.7242287 0.2465458
vt 0.7242286 0.2465458
vt 0.7242286 0.2465458
vt 0.7242286 0.2465458
vt 0.7242286 0.2465458
vt 0.7242286 0.2465458
vt 0.7242286 0.2465458
vt 0.7242286 0.2465458
vt 0.7242287 0.2465467
vt 0.7242287 0.2465467
vt 0.7242286 0.2465467
vt 0.7242286 0.2465467
vt 0.7242287 0.2465467
vt 0.7242287 0.2465467
vt 0.7242287 0.2465467
vt 0.7242287 0.2465467
vt 0.7242287 0.2465467
vt 0.7242286 0.2465467
vt 0.7242287 0.2465467
vt 0.7242287 0.2465467
vt 0.7242287 0.2465467
vt 0.7242287 0.2465467
vt 0.7242286 0.2465467
vt 0.7242287 0.2465467
vt 0.7242287 0.2465467
vt 0.7242287 0.2465467
vt 0.7010843 0.1952148
vt 0.695144 0.2434191
vt 0.7284663 0.2425843
vt 0.7284663 0.1835578
vt 0.7242286 0.2465458
vt 0.7242286 0.2465458
vt 0.7242286 0.2465458
vt 0.7242286 0.2465458
vt 0.7242286 0.2465458
vt 0.7242286 0.2465458
vt 0.7242287 0.2465458
vt 0.7242287 0.2465458
vt 0.684625 0.1895992
vt 0.7010843 0.1952148
vt 0.7284663 0.1835578
vt 0.7284663 0.1714982
vt 0.7242286 0.2465458
vt 0.7242287 0.2465467
vt 0.7242286 0.2465467
vt 0.7242286 0.2465467
vt 0.7242286 0.2465458
vt 0.7242286 0.2465458
vt 0.7242286 0.2465467
vt 0.7242287 0.2465467
vt 0.7242287 0.2465458
vt 0.7242287 0.2465467
vt 0.7242287 0.2465467
vt 0.7242287 0.2465467
vt 0.7242287 0.2465467
vt 0.7242286 0.2465458
vt 0.7242286 0.2465458
vt 0.7242286 0.2465458
vt 0.7242286 0.2465458
vt 0.695144 0.2434191
vt 0.7010843 0.1952148
vt 0.684625 0.1895992
vt 0.6763605 0.2455004
vt 0.7242287 0.2465467
vt 0.7242286 0.2465458
vt 0.7242286 0.2465458
vt 0.7242286 0.2465458
vt 0.7558481 0.1952148
vt 0.7284663 0.1835578
vt 0.7284663 0.2425843
vt 0.7617882 0.2434191
vt 0.7242286 0.2465458
vt 0.7242286 0.2465458
vt 0.7242286 0.2465458
vt 0.7242286 0.2465458
vt 0.7242286 0.2465458
vt 0.7242287 0.2465458
vt 0.7242287 0.2465458
vt 0.7242286 0.2465458
vt 0.7723072 0.1895992
vt 0.7284663 0.1714982
vt 0.7284663 0.1835578
vt 0.7558481 0.1952148
vt 0.7242286 0.2465458
vt 0.7242287 0.2465467
vt 0.7242287 0.2465467
vt 0.7242286 0.2465467
vt 0.7242286 0.2465458
vt 0.7242286 0.2465458
vt 0.7242287 0.2465458
vt 0.7242287 0.2465467
vt 0.7242287 0.2465467
vt 0.7242286 0.2465467
vt 0.7242287 0.2465467
vt 0.7242287 0.2465467
vt 0.7242287 0.2465467
vt 0.7242286 0.2465458
vt 0.7242286 0.2465458
vt 0.7242286 0.2465458
vt 0.7242286 0.2465458
vt 0.7617882 0.2434191
vt 0.7805719 0.2455004
vt 0.7723072 0.1895992
vt 0.7558481 0.1952148
vt 0.7242286 0.2465467
vt 0.7242286 0.2465458
vt 0.7242286 0.2465458
vt 0.7242286 0.2465458
vt 0.7242287 0.2465467
vt 0.7242287 0.2465467
vt 0.7242286 0.2465467
vt 0.7242286 0.2465467
vt 0.7242286 0.2465467
vt 0.7242286 0.2465467
vt 0.7242287 0.2465467
vt 0.7242287 0.2465467
vt 0.7242287 0.2465467
vt 0.7242287 0.2465467
vt 0.7242287 0.2465467
vt 0.7242287 0.2465467
vt 0.7242287 0.2465467
vt 0.7242286 0.2465467
vt 0.7242287 0.2465467
vt 0.7242287 0.2465467
vt 0.7242287 0.2465467
vt 0.7242287 0.2465467
vt 0.7242286 0.2465467
vt 0.7242287 0.2465467
vt 0.7242287 0.2465467
vt 0.7242287 0.2465467
vt 0.7242287 0.2465467
vt 0.7242287 0.2465467
vn -0.8745285 -0.14052 0.4641703
vn -0.8745285 -0.14052 0.4641703
vn -0.8745285 -0.14052 0.4641703
vn -0.5697502 -0.7961354 -0.203846
vn -0.5697502 -0.7961354 -0.203846
vn -0.5697502 -0.7961354 -0.203846
vn -0.9739506 -0.2061217 0.09452078
vn -0.9739506 -0.2061217 0.09452078
vn -0.9739506 -0.2061217 0.09452078
vn 0.8745285 -0.14052 0.4641702
vn 0.8745285 -0.14052 0.4641702
vn 0.8745285 -0.14052 0.4641702
vn 0.5697502 -0.7961354 -0.203846
vn 0.5697502 -0.7961354 -0.203846
vn 0.5697502 -0.7961354 -0.203846
vn 0.9739506 -0.2061217 0.09452079
vn 0.9739506 -0.2061217 0.09452079
vn 0.9739506 -0.2061217 0.09452079
vn -0.05498319 0.986516 0.1541528
vn -0.04860344 0.9861705 0.158447
vn 0 0.9843966 0.1759634
vn -0.08212214 0.9877625 0.1325948
vn -0.05498319 0.986516 0.1541528
vn -0.08020815 0.9848592 0.153685
vn -0.08212214 0.9877625 0.1325948
vn -0.07849068 0.9815537 0.1743319
vn -0.08020815 0.9848592 0.153685
vn -0.009832328 0.9999478 -0.002801708
vn 0 0.9999961 -0.002801844
vn -0.02527981 0.9996177 0.0111918
vn 0 0.999859 -0.01679426
vn -0.009832328 0.9999478 -0.002801708
vn 0.02527981 0.9996177 0.0111918
vn 0.009832328 0.9999478 -0.002801708
vn 0.009832328 0.9999478 -0.002801708
vn 0 0.999859 -0.01679426
vn 0 0.9843966 0.1759634
vn 0.04860345 0.9861705 0.158447
vn 0.05498319 0.986516 0.1541528
vn 0.05498319 0.986516 0.1541528
vn 0.08212214 0.9877625 0.1325948
vn 0.08212214 0.9877625 0.1325948
vn 0.08020815 0.9848592 0.153685
vn 0.08020815 0.9848592 0.153685
vn 0.0784907 0.9815537 0.1743319
vn -0.1929659 -0.9216686 -0.3365876
vn -0.1929659 -0.9216686 -0.3365876
vn -0.1929659 -0.9216686 -0.3365876
vn -0.1172419 -0.8913972 -0.4377961
vn -0.1172419 -0.8913972 -0.4377961
vn -0.1172419 -0.8913972 -0.4377961
vn -0.1174681 -0.9548114 -0.2730139
vn -0.1174681 -0.9548114 -0.2730139
vn -0.1174681 -0.9548114 -0.2730139
vn 0.1929659 -0.9216686 -0.3365875
vn 0.1929659 -0.9216686 -0.3365875
vn 0.1929659 -0.9216686 -0.3365875
vn 0.1172419 -0.8913972 -0.4377961
vn 0.1172419 -0.8913972 -0.4377961
vn 0.1172419 -0.8913972 -0.4377961
vn 0.1174681 -0.9548113 -0.2730139
vn 0.1174681 -0.9548113 -0.2730139
vn 0.1174681 -0.9548113 -0.2730139
vn -0.2717685 0.01832509 0.9621881
vn -0.2717685 0.01832509 0.9621881
vn -0.2717685 0.01832509 0.9621881
vn -0.2717685 0.01832509 0.9621881
vn -0.8849263 0.005842882 0.4656945
vn -0.8849263 0.005842882 0.4656945
vn -0.8849263 0.005842882 0.4656945
vn -0.8849263 0.005842882 0.4656945
vn -0.1541057 -0.2448733 -0.9572296
vn -0.1541057 -0.2448733 -0.9572296
vn -0.1541057 -0.2448733 -0.9572296
vn -0.1541057 -0.2448733 -0.9572296
vn -0.3491913 -0.8193873 0.4546098
vn -0.3491913 -0.8193873 0.4546098
vn -0.3491913 -0.8193873 0.4546098
vn -0.3491913 -0.8193873 0.4546098
vn -0.6318504 -0.7170237 -0.2943503
vn -0.6361165 -0.7223981 -0.271103
vn -0.6361165 -0.7223981 -0.271103
vn -0.6318504 -0.7170237 -0.2943503
vn -0.627213 -0.7112281 -0.3174246
vn -0.1979388 -0.5517465 -0.8101828
vn -0.1979388 -0.5517465 -0.8101828
vn -0.1979388 -0.5517465 -0.8101828
vn -0.1979388 -0.5517465 -0.8101828
vn -0.2808781 -0.953939 -0.1053938
vn -0.2808781 -0.953939 -0.1053938
vn -0.2808781 -0.953939 -0.1053938
vn -0.2808781 -0.953939 -0.1053938
vn -0.9157503 -0.128396 -0.3806781
vn -0.9157503 -0.128396 -0.3806781
vn -0.9157503 -0.128396 -0.3806781
vn -0.9157503 -0.128396 -0.3806781
vn -0.8556694 -0.05879661 0.514172
vn -0.8556694 -0.05879661 0.514172
vn -0.8556694 -0.05879661 0.514172
vn -0.8556694 -0.05879661 0.514172
vn -0.9768403 -0.07170101 0.2015985
vn -0.9768403 -0.07170101 0.2015985
vn -0.9768403 -0.07170101 0.2015985
vn -0.9768403 -0.07170101 0.2015985
vn 0.2717685 0.0183251 0.9621881
vn 0.2717685 0.0183251 0.9621881
vn 0.2717685 0.0183251 0.9621881
vn 0.2717685 0.0183251 0.9621881
vn 0.8849263 0.005842859 0.4656945
vn 0.8849263 0.005842859 0.4656945
vn 0.8849263 0.005842859 0.4656945
vn 0.8849263 0.005842859 0.4656945
vn 0.1541057 -0.2448733 -0.9572296
vn 0.1541057 -0.2448733 -0.9572296
vn 0.1541057 -0.2448733 -0.9572296
vn 0.1541057 -0.2448733 -0.9572296
vn 0.3491913 -0.8193873 0.4546098
vn 0.3491913 -0.8193873 0.4546098
vn 0.3491913 -0.8193873 0.4546098
vn 0.3491913 -0.8193873 0.4546098
vn 0.6318504 -0.7170237 -0.2943503
vn 0.6361165 -0.7223981 -0.271103
vn 0.6361165 -0.7223981 -0.271103
vn 0.6318504 -0.7170237 -0.2943503
vn 0.627213 -0.7112281 -0.3174245
vn 0.1979389 -0.5517465 -0.8101827
vn 0.1979389 -0.5517465 -0.8101827
vn 0.1979389 -0.5517465 -0.8101827
vn 0.1979389 -0.5517465 -0.8101827
vn 0.2808781 -0.953939 -0.1053938
vn 0.2808781 -0.953939 -0.1053938
vn 0.2808781 -0.953939 -0.1053938
vn 0.2808781 -0.953939 -0.1053938
vn 0.9157503 -0.128396 -0.3806781
vn 0.9157503 -0.128396 -0.3806781
vn 0.9157503 -0.128396 -0.3806781
vn 0.9157503 -0.128396 -0.3806781
vn 0.8556695 -0.05879661 0.514172
vn 0.8556695 -0.05879661 0.514172
vn 0.8556695 -0.05879661 0.514172
vn 0.8556695 -0.05879661 0.514172
vn 0.9768403 -0.07170101 0.2015985
vn 0.9768403 -0.07170101 0.2015985
vn 0.9768403 -0.07170101 0.2015985
vn 0.9768403 -0.07170101 0.2015985
vn -0.9705393 0.1696411 0.1711004
vn -0.9705393 0.1696411 0.1711004
vn -0.9705393 0.1696411 0.1711004
vn -0.9705393 0.1696411 0.1711004
vn -0.2691134 0.4236747 -0.8649149
vn -0.2691134 0.4236747 -0.8649149
vn -0.2691134 0.4236747 -0.8649149
vn -0.2691134 0.4236747 -0.8649149
vn -0.3461066 0.03389473 0.9375827
vn -0.3461066 0.03389473 0.9375827
vn -0.3461066 0.03389473 0.9375827
vn -0.3461066 0.03389473 0.9375827
vn 0.9705393 0.1696411 0.1711004
vn 0.9705393 0.1696411 0.1711004
vn 0.9705393 0.1696411 0.1711004
vn 0.9705393 0.1696411 0.1711004
vn 0.2691135 0.4236746 -0.8649149
vn 0.2691135 0.4236746 -0.8649149
vn 0.2691135 0.4236746 -0.8649149
vn 0.2691135 0.4236746 -0.8649149
vn 0.3461066 0.03389473 0.9375827
vn 0.3461066 0.03389473 0.9375827
vn 0.3461066 0.03389473 0.9375827
vn 0.3461066 0.03389473 0.9375827
g SM_Chr_Attach_Facemask_02_0
f 3/3/3 2/2/2 1/1/1
f 6/6/6 5/5/5 4/4/4
f 9/9/9 8/8/8 7/7/7
f 12/12/12 11/11/11 10/10/10
f 15/15/15 14/14/14 13/13/13
f 18/18/18 17/17/17 16/16/16
f 21/21/21 20/20/20 19/19/19
f 23/23/23 20/20/20 22/22/22
f 25/25/25 20/20/20 24/24/24
f 27/27/27 20/20/20 26/26/26
f 30/30/30 29/29/29 28/28/28
f 32/32/32 29/29/29 31/31/31
f 34/34/34 29/29/29 33/33/33
f 36/36/36 29/29/29 35/35/35
f 39/39/39 38/38/38 37/37/37
f 41/41/41 38/38/38 40/40/40
f 43/43/43 38/38/38 42/42/42
f 45/45/45 38/38/38 44/44/44
f 48/48/48 47/47/47 46/46/46
f 51/51/51 50/50/50 49/49/49
f 54/54/54 53/53/53 52/52/52
f 57/57/57 56/56/56 55/55/55
f 60/60/60 59/59/59 58/58/58
f 63/63/63 62/62/62 61/61/61
f 66/66/66 65/65/65 64/64/64
f 67/67/67 66/66/66 64/64/64
f 70/70/70 69/69/69 68/68/68
f 71/71/71 70/70/70 68/68/68
f 74/74/74 73/73/73 72/72/72
f 75/75/75 74/74/74 72/72/72
f 78/78/78 77/77/77 76/76/76
f 79/79/79 78/78/78 76/76/76
f 82/82/82 81/81/81 80/80/80
f 81/81/81 83/83/83 80/80/80
f 83/83/83 84/84/84 80/80/80
f 87/87/87 86/86/86 85/85/85
f 88/88/88 87/87/87 85/85/85
f 91/91/91 90/90/90 89/89/89
f 92/92/92 91/91/91 89/89/89
f 95/95/95 94/94/94 93/93/93
f 96/96/96 95/95/95 93/93/93
f 99/99/99 98/98/98 97/97/97
f 100/100/100 99/99/99 97/97/97
f 103/103/103 102/102/102 101/101/101
f 104/104/104 103/103/103 101/101/101
f 107/107/107 106/106/106 105/105/105
f 108/108/108 107/107/107 105/105/105
f 111/111/111 110/110/110 109/109/109
f 112/112/112 111/111/111 109/109/109
f 115/115/115 114/114/114 113/113/113
f 116/116/116 115/115/115 113/113/113
f 119/119/119 118/118/118 117/117/117
f 120/120/120 119/119/119 117/117/117
f 123/123/123 122/122/122 121/121/121
f 124/124/124 123/123/123 121/121/121
f 125/125/125 124/124/124 121/121/121
f 128/128/128 127/127/127 126/126/126
f 129/129/129 128/128/128 126/126/126
f 132/132/132 131/131/131 130/130/130
f 133/133/133 132/132/132 130/130/130
f 136/136/136 135/135/135 134/134/134
f 137/137/137 136/136/136 134/134/134
f 140/140/140 139/139/139 138/138/138
f 141/141/141 140/140/140 138/138/138
f 144/144/144 143/143/143 142/142/142
f 145/145/145 144/144/144 142/142/142
f 148/148/148 147/147/147 146/146/146
f 149/149/149 148/148/148 146/146/146
f 152/152/152 151/151/151 150/150/150
f 153/153/153 152/152/152 150/150/150
f 156/156/156 155/155/155 154/154/154
f 157/157/157 156/156/156 154/154/154
f 160/160/160 159/159/159 158/158/158
f 161/161/161 160/160/160 158/158/158
f 164/164/164 163/163/163 162/162/162
f 165/165/165 164/164/164 162/162/162
f 168/168/168 167/167/167 166/166/166
f 169/169/169 168/168/168 166/166/166
