g SM_Char_Attach_Hair_Mustache_04
v -0.05777222 0.02971028 0.1391767
v -0.05053558 0.01105671 0.14339
v -0.06369598 0.011162 0.1340252
v 0.05777222 0.02971028 0.1391767
v 0.06369537 0.011162 0.1340252
v 0.05053497 0.01105671 0.14339
v 5.254772E-15 -0.05973888 0.1375234
v -0.01766754 -0.05101909 0.1341079
v -0.01318359 -0.04566768 0.1444796
v 5.254772E-15 -0.0504713 0.1478577
v 5.254772E-15 -0.0504713 0.1478577
v -0.01318359 -0.04566768 0.1444796
v -0.01170532 -0.01664379 0.1454046
v 5.254772E-15 -0.011889 0.1494903
v 5.254772E-15 -0.011889 0.1494903
v -0.01170532 -0.01664379 0.1454046
v -0.01474243 -0.01184276 0.1315535
v 5.254772E-15 -0.002807576 0.1342293
v 5.254772E-15 -0.011889 0.1494903
v 5.254772E-15 -0.002807576 0.1342293
v 0.01474213 -0.01184276 0.1315535
v 0.01170502 -0.01664379 0.1454046
v 5.254772E-15 -0.0504713 0.1478577
v 5.254772E-15 -0.011889 0.1494903
v 0.01170502 -0.01664379 0.1454046
v 0.01318329 -0.04566768 0.1444796
v 5.254772E-15 -0.05973888 0.1375234
v 5.254772E-15 -0.0504713 0.1478577
v 0.01318329 -0.04566768 0.1444796
v 0.01766724 -0.05101909 0.1341079
v -0.01318359 -0.04566768 0.1444796
v -0.01766754 -0.05101909 0.1341079
v -0.01474243 -0.01184276 0.1315535
v -0.01170532 -0.01664379 0.1454046
v 0.01170502 -0.01664379 0.1454046
v 0.01474213 -0.01184276 0.1315535
v 0.01766724 -0.05101909 0.1341079
v 0.01318329 -0.04566768 0.1444796
v -0.02787933 0.02087788 0.1473879
v -0.05053558 0.01105671 0.14339
v -0.05777222 0.02971028 0.1391767
v -0.02475342 0.04159199 0.1488474
v -0.02475342 0.04159199 0.1488474
v -0.05777222 0.02971028 0.1391767
v -0.05701477 0.03299092 0.120657
v -0.02326294 0.04669911 0.1269906
v -0.02787933 0.00476704 0.1280048
v -0.05053558 0.001011242 0.1224185
v -0.05053558 0.01105671 0.14339
v -0.02787933 0.02087788 0.1473879
v -0.05053558 0.01105671 0.14339
v -0.05053558 0.001011242 0.1224185
v -0.07250427 0.007413524 0.1178936
v -0.06369598 0.011162 0.1340252
v -0.05701477 0.03299092 0.120657
v -0.05777222 0.02971028 0.1391767
v -0.06369598 0.011162 0.1340252
v -0.07250427 0.007413524 0.1178936
v 0.02475281 0.04159199 0.1488474
v 0.05777222 0.02971028 0.1391767
v 0.05053497 0.01105671 0.14339
v 0.02787872 0.02087788 0.1473879
v 0.02326263 0.04669911 0.1269906
v 0.05701416 0.03299092 0.120657
v 0.05777222 0.02971028 0.1391767
v 0.02475281 0.04159199 0.1488474
v 0.02787872 0.02087788 0.1473879
v 0.05053497 0.01105671 0.14339
v 0.05053497 0.001011242 0.1224185
v 0.02787872 0.00476704 0.1280048
v 0.05053497 0.01105671 0.14339
v 0.06369537 0.011162 0.1340252
v 0.07250397 0.007413524 0.1178936
v 0.05053497 0.001011242 0.1224185
v 0.05701416 0.03299092 0.120657
v 0.07250397 0.007413524 0.1178936
v 0.06369537 0.011162 0.1340252
v 0.05777222 0.02971028 0.1391767
v -3.051758E-07 0.01274647 0.1333943
v -0.02787933 0.00476704 0.1280048
v -0.02787933 0.02087788 0.1473879
v -3.051758E-07 0.02432331 0.1527183
v -3.051758E-07 0.02432331 0.1527183
v -0.02787933 0.02087788 0.1473879
v -0.02475342 0.04159199 0.1488474
v -3.051758E-07 0.03693196 0.1552946
v -3.051758E-07 0.03693196 0.1552946
v -0.02475342 0.04159199 0.1488474
v -0.02326294 0.04669911 0.1269906
v -3.051758E-07 0.0408376 0.131213
v -3.051758E-07 0.03693196 0.1552946
v -3.051758E-07 0.0408376 0.131213
v 0.02326263 0.04669911 0.1269906
v 0.02475281 0.04159199 0.1488474
v -3.051758E-07 0.02432331 0.1527183
v -3.051758E-07 0.03693196 0.1552946
v 0.02475281 0.04159199 0.1488474
v 0.02787872 0.02087788 0.1473879
v -3.051758E-07 0.01274647 0.1333943
v -3.051758E-07 0.02432331 0.1527183
v 0.02787872 0.02087788 0.1473879
v 0.02787872 0.00476704 0.1280048
vt 0.05000323 0.1900187
vt 0.05000323 0.1900187
vt 0.05000323 0.1900187
vt 0.05000323 0.1900187
vt 0.05000323 0.1900187
vt 0.05000323 0.1900187
vt 0.05000323 0.1900187
vt 0.05000323 0.1900187
vt 0.05000323 0.1900187
vt 0.05000323 0.1900187
vt 0.05000323 0.1900187
vt 0.05000323 0.1900187
vt 0.05000323 0.1900187
vt 0.05000323 0.1900187
vt 0.05000323 0.1900187
vt 0.05000323 0.1900187
vt 0.05000323 0.1900187
vt 0.05000323 0.1900187
vt 0.05000323 0.1900187
vt 0.05000323 0.1900187
vt 0.05000323 0.1900187
vt 0.05000323 0.1900187
vt 0.05000323 0.1900187
vt 0.05000323 0.1900187
vt 0.05000323 0.1900187
vt 0.05000323 0.1900187
vt 0.05000323 0.1900187
vt 0.05000323 0.1900187
vt 0.05000323 0.1900187
vt 0.05000323 0.1900187
vt 0.04943848 0.1905823
vt 0.04943848 0.1905823
vt 0.04943848 0.1905823
vt 0.04943848 0.1905823
vt 0.04943848 0.1905823
vt 0.04943848 0.1905823
vt 0.04943848 0.1905823
vt 0.04943848 0.1905823
vt 0.05000323 0.1900187
vt 0.05000323 0.1900187
vt 0.05000323 0.1900187
vt 0.05000323 0.1900187
vt 0.05000323 0.1900187
vt 0.05000323 0.1900187
vt 0.05000323 0.1900187
vt 0.05000323 0.1900187
vt 0.05000323 0.1900187
vt 0.05000323 0.1900187
vt 0.05000323 0.1900187
vt 0.05000323 0.1900187
vt 0.05000323 0.1900187
vt 0.05000323 0.1900187
vt 0.05000323 0.1900187
vt 0.05000323 0.1900187
vt 0.05000323 0.1900187
vt 0.05000323 0.1900187
vt 0.05000323 0.1900187
vt 0.05000323 0.1900187
vt 0.05000323 0.1900187
vt 0.05000323 0.1900187
vt 0.05000323 0.1900187
vt 0.05000323 0.1900187
vt 0.05000323 0.1900187
vt 0.05000323 0.1900187
vt 0.05000323 0.1900187
vt 0.05000323 0.1900187
vt 0.05000323 0.1900187
vt 0.05000323 0.1900187
vt 0.05000323 0.1900187
vt 0.05000323 0.1900187
vt 0.05000323 0.1900187
vt 0.05000323 0.1900187
vt 0.05000323 0.1900187
vt 0.05000323 0.1900187
vt 0.05000323 0.1900187
vt 0.05000323 0.1900187
vt 0.05000323 0.1900187
vt 0.05000323 0.1900187
vt 0.05000323 0.1900187
vt 0.05000323 0.1900187
vt 0.05000323 0.1900187
vt 0.05000323 0.1900187
vt 0.05000323 0.1900187
vt 0.05000323 0.1900187
vt 0.05000323 0.1900187
vt 0.05000323 0.1900187
vt 0.05000323 0.1900187
vt 0.05000323 0.1900187
vt 0.05000323 0.1900187
vt 0.05000323 0.1900187
vt 0.05000323 0.1900187
vt 0.05000323 0.1900187
vt 0.05000323 0.1900187
vt 0.05000323 0.1900187
vt 0.05000323 0.1900187
vt 0.05000323 0.1900187
vt 0.05000323 0.1900187
vt 0.05000323 0.1900187
vt 0.05000323 0.1900187
vt 0.05000323 0.1900187
vt 0.05000323 0.1900187
vt 0.05000323 0.1900187
vn -0.5795121 -0.0409776 0.8139327
vn -0.5795121 -0.0409776 0.8139327
vn -0.5795121 -0.0409776 0.8139327
vn 0.5795118 -0.04099659 0.813932
vn 0.5795118 -0.04099659 0.813932
vn 0.5795118 -0.04099659 0.813932
vn -0.4306789 -0.690693 0.5809122
vn -0.4306789 -0.690693 0.5809121
vn -0.430679 -0.690693 0.5809121
vn -0.4306788 -0.690693 0.5809121
vn -0.2871694 -0.02994077 0.9574117
vn -0.2871695 -0.02994077 0.9574117
vn -0.2871694 -0.02994077 0.9574117
vn -0.2871694 -0.02994077 0.9574117
vn -0.501817 0.7592419 0.4144047
vn -0.501817 0.7592419 0.4144047
vn -0.501817 0.7592419 0.4144048
vn -0.5018172 0.7592419 0.4144048
vn 0.5018258 0.7592371 0.4144033
vn 0.5018258 0.7592371 0.4144033
vn 0.5018258 0.7592371 0.4144033
vn 0.5018258 0.759237 0.4144033
vn 0.2871759 -0.02994056 0.9574099
vn 0.2871759 -0.02994056 0.9574099
vn 0.287176 -0.02994056 0.9574099
vn 0.287176 -0.02994056 0.9574099
vn 0.4306856 -0.6906896 0.5809111
vn 0.4306856 -0.6906896 0.5809112
vn 0.4306856 -0.6906896 0.5809111
vn 0.4306856 -0.6906896 0.5809112
vn -0.9532155 0.068579 0.29441
vn -0.9532155 0.068579 0.29441
vn -0.9532155 0.068579 0.29441
vn -0.9532155 0.068579 0.29441
vn 0.9532155 0.068579 0.29441
vn 0.9532155 0.068579 0.29441
vn 0.9532155 0.068579 0.29441
vn 0.9532155 0.068579 0.29441
vn -0.2533269 0.04115367 0.9665049
vn -0.2533269 0.04115367 0.9665049
vn -0.2533269 0.04115367 0.9665049
vn -0.2533269 0.04115367 0.9665049
vn -0.3874597 0.9066749 0.1667797
vn -0.3874597 0.9066749 0.1667797
vn -0.3874597 0.9066749 0.1667797
vn -0.3874597 0.9066749 0.1667797
vn 0.1351395 -0.8314497 0.5389143
vn 0.1351395 -0.8314497 0.5389143
vn 0.1351395 -0.8314497 0.5389143
vn 0.1351395 -0.8314497 0.5389143
vn -0.3161615 -0.8622762 0.3956281
vn -0.3161615 -0.8622762 0.3956281
vn -0.3161615 -0.8622762 0.3956281
vn -0.3161615 -0.8622762 0.3956281
vn -0.8947963 0.397899 0.2025238
vn -0.8947963 0.397899 0.2025238
vn -0.8947963 0.397899 0.2025238
vn -0.8947963 0.397899 0.2025238
vn 0.2533231 0.04115022 0.9665061
vn 0.2533231 0.04115022 0.9665061
vn 0.2533232 0.04115022 0.9665061
vn 0.2533232 0.04115022 0.9665061
vn 0.3874579 0.9066763 0.1667771
vn 0.3874578 0.9066763 0.1667771
vn 0.3874578 0.9066763 0.1667771
vn 0.3874579 0.9066762 0.1667771
vn -0.1351395 -0.8314497 0.5389143
vn -0.1351395 -0.8314497 0.5389143
vn -0.1351395 -0.8314497 0.5389143
vn -0.1351395 -0.8314497 0.5389143
vn 0.3161596 -0.8622759 0.3956302
vn 0.3161597 -0.862276 0.3956303
vn 0.3161596 -0.862276 0.3956303
vn 0.3161596 -0.8622759 0.3956302
vn 0.8947995 0.3978956 0.2025168
vn 0.8947995 0.3978956 0.2025167
vn 0.8947995 0.3978956 0.2025167
vn 0.8947995 0.3978956 0.2025168
vn 0.05471729 -0.81212 0.5809193
vn 0.05471729 -0.81212 0.5809193
vn 0.05471729 -0.81212 0.5809193
vn 0.05471729 -0.81212 0.5809193
vn -0.2194737 -0.09698808 0.9707855
vn -0.2194737 -0.0969881 0.9707855
vn -0.2194737 -0.0969881 0.9707855
vn -0.2194737 -0.09698808 0.9707855
vn 0.1683902 0.9662338 0.1950305
vn 0.1683902 0.9662338 0.1950305
vn 0.1683902 0.9662338 0.1950305
vn 0.1683902 0.9662338 0.1950305
vn -0.1683895 0.9662343 0.1950295
vn -0.1683895 0.9662343 0.1950295
vn -0.1683895 0.9662343 0.1950295
vn -0.1683895 0.9662343 0.1950295
vn 0.2194737 -0.09698808 0.9707855
vn 0.2194737 -0.09698808 0.9707855
vn 0.2194737 -0.0969881 0.9707855
vn 0.2194737 -0.0969881 0.9707855
vn -0.05471729 -0.81212 0.5809193
vn -0.05471729 -0.81212 0.5809191
vn -0.05471729 -0.81212 0.5809191
vn -0.05471729 -0.81212 0.5809193
g SM_Char_Attach_Hair_Mustache_04_0
f 3/3/3 2/2/2 1/1/1
f 6/6/6 5/5/5 4/4/4
f 9/9/9 8/8/8 7/7/7
f 10/10/10 9/9/9 7/7/7
f 13/13/13 12/12/12 11/11/11
f 14/14/14 13/13/13 11/11/11
f 17/17/17 16/16/16 15/15/15
f 18/18/18 17/17/17 15/15/15
f 21/21/21 20/20/20 19/19/19
f 22/22/22 21/21/21 19/19/19
f 25/25/25 24/24/24 23/23/23
f 26/26/26 25/25/25 23/23/23
f 29/29/29 28/28/28 27/27/27
f 30/30/30 29/29/29 27/27/27
f 33/33/33 32/32/32 31/31/31
f 34/34/34 33/33/33 31/31/31
f 37/37/37 36/36/36 35/35/35
f 38/38/38 37/37/37 35/35/35
f 41/41/41 40/40/40 39/39/39
f 42/42/42 41/41/41 39/39/39
f 45/45/45 44/44/44 43/43/43
f 46/46/46 45/45/45 43/43/43
f 49/49/49 48/48/48 47/47/47
f 50/50/50 49/49/49 47/47/47
f 53/53/53 52/52/52 51/51/51
f 54/54/54 53/53/53 51/51/51
f 57/57/57 56/56/56 55/55/55
f 58/58/58 57/57/57 55/55/55
f 61/61/61 60/60/60 59/59/59
f 62/62/62 61/61/61 59/59/59
f 65/65/65 64/64/64 63/63/63
f 66/66/66 65/65/65 63/63/63
f 69/69/69 68/68/68 67/67/67
f 70/70/70 69/69/69 67/67/67
f 73/73/73 72/72/72 71/71/71
f 74/74/74 73/73/73 71/71/71
f 77/77/77 76/76/76 75/75/75
f 78/78/78 77/77/77 75/75/75
f 81/81/81 80/80/80 79/79/79
f 82/82/82 81/81/81 79/79/79
f 85/85/85 84/84/84 83/83/83
f 86/86/86 85/85/85 83/83/83
f 89/89/89 88/88/88 87/87/87
f 90/90/90 89/89/89 87/87/87
f 93/93/93 92/92/92 91/91/91
f 94/94/94 93/93/93 91/91/91
f 97/97/97 96/96/96 95/95/95
f 98/98/98 97/97/97 95/95/95
f 101/101/101 100/100/100 99/99/99
f 102/102/102 101/101/101 99/99/99
