g SM_Chr_Attach_Slobber_FacialHair_01
v -0.06430677 -0.1590707 0.1471277
v -0.06132258 -0.1791734 0.1485097
v -0.0623462 -0.1612245 0.1550962
v -0.04693312 -0.1288345 0.1486576
v -0.0472277 -0.1331645 0.1654953
v -0.05897086 -0.1731085 0.1559614
v -0.03155625 -0.1194414 0.1527288
v -0.03151236 -0.1235632 0.1680663
v -0.02063989 -0.1376949 0.1703737
v -0.01668938 -0.1451573 0.1581758
v -0.04241897 -0.149612 0.1656964
v -0.03880172 -0.1554997 0.152564
v 0.06398577 -0.1479787 0.1481164
v 0.06349365 -0.158558 0.1613825
v 0.05905928 -0.1439088 0.1580059
v 0.04687808 -0.127484 0.1468497
v 0.0475027 -0.1296854 0.1640866
v 0.05860082 -0.1514677 0.161698
v 0.03162492 -0.1194414 0.1527288
v 0.03158103 -0.1235632 0.1680663
v 0.0207091 -0.1376949 0.1703737
v 0.01675814 -0.1451573 0.1581758
v 0.04407524 -0.1422206 0.1659065
v 0.04038915 -0.1497572 0.1536664
v 3.460724E-05 -0.1186174 0.1695455
v 3.460724E-05 -0.1141101 0.160046
v 3.460724E-05 -0.1244254 0.1694222
v 3.460724E-05 -0.1286304 0.1595889
v -0.03151236 -0.1235632 0.1680663
v 3.460724E-05 -0.1186174 0.1695455
v -0.02063989 -0.1376949 0.1703737
v 3.460724E-05 -0.1244254 0.1694222
v -0.0472277 -0.1331645 0.1654953
v -0.0623462 -0.1612245 0.1550962
v -0.05897086 -0.1731085 0.1559614
v -0.06430677 -0.1590707 0.1471277
v -0.0623462 -0.1612245 0.1550962
v -0.0472277 -0.1331645 0.1654953
v -0.04693312 -0.1288345 0.1486576
v -0.03155625 -0.1194414 0.1527288
v -0.03151236 -0.1235632 0.1680663
v -0.02063989 -0.1376949 0.1703737
v -0.04241897 -0.149612 0.1656964
v -0.0472277 -0.1331645 0.1654953
v -0.03151236 -0.1235632 0.1680663
v -0.04241897 -0.149612 0.1656964
v -0.02063989 -0.1376949 0.1703737
v -0.01668938 -0.1451573 0.1581758
v -0.06132258 -0.1791734 0.1485097
v -0.05897086 -0.1731085 0.1559614
v -0.04241897 -0.149612 0.1656964
v -0.03880172 -0.1554997 0.152564
v 3.460724E-05 -0.1186174 0.1695455
v 3.460724E-05 -0.1141101 0.160046
v 0.03158103 -0.1235632 0.1680663
v 3.460724E-05 -0.1244254 0.1694222
v 3.460724E-05 -0.1186174 0.1695455
v 0.0207091 -0.1376949 0.1703737
v 3.460724E-05 -0.1286304 0.1595889
v 3.460724E-05 -0.1244254 0.1694222
v 0.0475027 -0.1296854 0.1640866
v 0.05905928 -0.1439088 0.1580059
v 0.05860082 -0.1514677 0.161698
v 0.05905928 -0.1439088 0.1580059
v 0.06398577 -0.1479787 0.1481164
v 0.0475027 -0.1296854 0.1640866
v 0.03158103 -0.1235632 0.1680663
v 0.03162492 -0.1194414 0.1527288
v 0.04687808 -0.127484 0.1468497
v 0.0207091 -0.1376949 0.1703737
v 0.03158103 -0.1235632 0.1680663
v 0.0475027 -0.1296854 0.1640866
v 0.04407524 -0.1422206 0.1659065
v 0.04407524 -0.1422206 0.1659065
v 0.01675814 -0.1451573 0.1581758
v 0.0207091 -0.1376949 0.1703737
v 0.06349365 -0.158558 0.1613825
v 0.04038915 -0.1497572 0.1536664
v 0.04407524 -0.1422206 0.1659065
v 0.05860082 -0.1514677 0.161698
v 0.06349365 -0.158558 0.1613825
v 0.06398577 -0.1479787 0.1481164
v 0.04687808 -0.127484 0.1468497
v 0.04687808 -0.127484 0.1468497
v 0.04038915 -0.1497572 0.1536664
v 0.06349365 -0.158558 0.1613825
v 0.04687808 -0.127484 0.1468497
v 0.03162492 -0.1194414 0.1527288
v 0.04038915 -0.1497572 0.1536664
v 0.03162492 -0.1194414 0.1527288
v 0.01675814 -0.1451573 0.1581758
v 0.04038915 -0.1497572 0.1536664
v 3.460724E-05 -0.1141101 0.160046
v 3.460724E-05 -0.1141101 0.160046
v 3.460724E-05 -0.1286304 0.1595889
v 0.01675814 -0.1451573 0.1581758
v -0.01668938 -0.1451573 0.1581758
v 3.460724E-05 -0.1286304 0.1595889
v 3.460724E-05 -0.1141101 0.160046
v 3.460724E-05 -0.1141101 0.160046
v -0.03155625 -0.1194414 0.1527288
v -0.01668938 -0.1451573 0.1581758
v -0.03880172 -0.1554997 0.152564
v -0.04693312 -0.1288345 0.1486576
v -0.06132258 -0.1791734 0.1485097
v -0.04693312 -0.1288345 0.1486576
v -0.06430677 -0.1590707 0.1471277
v -0.06132258 -0.1791734 0.1485097
vt 0.0499313 0.1978783
vt 0.0499313 0.1978783
vt 0.0499313 0.1978783
vt 0.0499313 0.1978783
vt 0.0499313 0.1978783
vt 0.0499313 0.1978783
vt 0.0499313 0.1978783
vt 0.0499313 0.1978783
vt 0.0499313 0.1978783
vt 0.0499313 0.1978783
vt 0.0499313 0.1978783
vt 0.0499313 0.1978783
vt 0.0499313 0.1978783
vt 0.0499313 0.1978783
vt 0.0499313 0.1978783
vt 0.0499313 0.1978783
vt 0.0499313 0.1978783
vt 0.0499313 0.1978783
vt 0.0499313 0.1978783
vt 0.0499313 0.1978783
vt 0.0499313 0.1978783
vt 0.0499313 0.1978783
vt 0.0499313 0.1978783
vt 0.0499313 0.1978783
vt 0.0499313 0.1978783
vt 0.0499313 0.1978783
vt 0.0499313 0.1978783
vt 0.0499313 0.1978783
vt 0.0499313 0.1978783
vt 0.0499313 0.1978783
vt 0.0499313 0.1978783
vt 0.0499313 0.1978783
vt 0.0499313 0.1978783
vt 0.0499313 0.1978783
vt 0.0499313 0.1978783
vt 0.0499313 0.1978783
vt 0.0499313 0.1978783
vt 0.0499313 0.1978783
vt 0.0499313 0.1978783
vt 0.0499313 0.1978783
vt 0.0499313 0.1978783
vt 0.0499313 0.1978783
vt 0.0499313 0.1978783
vt 0.0499313 0.1978783
vt 0.0499313 0.1978783
vt 0.0499313 0.1978783
vt 0.0499313 0.1978783
vt 0.0499313 0.1978783
vt 0.0499313 0.1978783
vt 0.0499313 0.1978783
vt 0.0499313 0.1978783
vt 0.0499313 0.1978783
vt 0.0499313 0.1978783
vt 0.0499313 0.1978783
vt 0.0499313 0.1978783
vt 0.0499313 0.1978783
vt 0.0499313 0.1978783
vt 0.0499313 0.1978783
vt 0.0499313 0.1978783
vt 0.0499313 0.1978783
vt 0.0499313 0.1978783
vt 0.0499313 0.1978783
vt 0.0499313 0.1978783
vt 0.0499313 0.1978783
vt 0.0499313 0.1978783
vt 0.0499313 0.1978783
vt 0.0499313 0.1978783
vt 0.0499313 0.1978783
vt 0.0499313 0.1978783
vt 0.0499313 0.1978783
vt 0.0499313 0.1978783
vt 0.0499313 0.1978783
vt 0.0499313 0.1978783
vt 0.0499313 0.1978783
vt 0.0499313 0.1978783
vt 0.0499313 0.1978783
vt 0.0499313 0.1978783
vt 0.0499313 0.1978783
vt 0.0499313 0.1978783
vt 0.0499313 0.1978783
vt 0.0499313 0.1978783
vt 0.0499313 0.1978783
vt 0.0499313 0.1978783
vt 0.0499313 0.1978783
vt 0.0499313 0.1978783
vt 0.0499313 0.1978783
vt 0.0499313 0.1978783
vt 0.0499313 0.1978783
vt 0.0499313 0.1978783
vt 0.0499313 0.1978783
vt 0.0499313 0.1978783
vt 0.0499313 0.1978783
vt 0.0499313 0.1978783
vt 0.0499313 0.1978783
vt 0.0499313 0.1978783
vt 0.0499313 0.1978783
vt 0.0499313 0.1978783
vt 0.0499313 0.1978783
vt 0.0499313 0.1978783
vt 0.0499313 0.1978783
vt 0.0499313 0.1978783
vt 0.0499313 0.1978783
vt 0.0499313 0.1978783
vt 0.0499313 0.1978783
vt 0.0499313 0.1978783
vt 0.0499313 0.1978783
vt 0.0499313 0.1978783
vt 0.0499313 0.1978783
vn -0.874674 0.4513502 0.1767159
vn -0.9381674 -0.1651501 0.3042488
vn -0.8746739 0.4513502 0.1767158
vn -0.8746739 0.4513502 0.1767158
vn -0.8746739 0.4513502 0.1767158
vn -0.4266601 -0.08937582 0.8999851
vn -0.1956505 0.9262491 0.3221546
vn -0.1956505 0.9262491 0.3221546
vn -0.04040506 0.0870003 0.9953885
vn 0.5477633 -0.6947381 0.4661485
vn -0.4266601 -0.08937581 0.8999851
vn 0.2897612 -0.8082768 0.5125691
vn 0.774079 0.628078 0.07949696
vn 0.8363613 0.3503481 0.4216112
vn 0.7740789 0.628078 0.07949696
vn 0.7740789 0.628078 0.07949696
vn 0.7740789 0.628078 0.07949696
vn 0.4742364 0.1464264 0.8681355
vn 0.1956538 0.9262484 0.3221544
vn 0.1956538 0.9262484 0.3221544
vn 0.04040575 0.08700104 0.9953885
vn -0.5477645 -0.6947317 0.4661566
vn 0.4742363 0.1464264 0.8681355
vn -0.06114288 -0.8420491 0.5359243
vn -0.1956505 0.9262491 0.3221546
vn -0.1956505 0.9262491 0.3221547
vn -0.04040507 0.08700028 0.9953885
vn 0.5477633 -0.6947381 0.4661485
vn -0.04040507 0.0870003 0.9953885
vn -0.04040506 0.08700028 0.9953885
vn 0.5477633 -0.6947381 0.4661485
vn 0.5477633 -0.6947381 0.4661485
vn -0.4266601 -0.08937582 0.8999851
vn -0.4266601 -0.08937581 0.8999851
vn -0.9381674 -0.1651501 0.3042488
vn -0.9381674 -0.1651501 0.3042488
vn -0.9381674 -0.1651501 0.3042488
vn -0.5419596 0.8138569 0.209563
vn -0.5419596 0.8138569 0.209563
vn -0.5419598 0.8138568 0.209563
vn -0.5419598 0.8138568 0.209563
vn -0.1825948 -0.01298823 0.9831025
vn -0.1825948 -0.01298823 0.9831025
vn -0.1825948 -0.01298823 0.9831025
vn -0.1825948 -0.01298823 0.9831025
vn 0.2897612 -0.8082768 0.5125691
vn 0.2897612 -0.8082768 0.5125691
vn 0.2897612 -0.8082768 0.5125691
vn 0.6368045 -0.6491206 0.41608
vn 0.6368045 -0.6491205 0.41608
vn 0.6368045 -0.6491205 0.41608
vn 0.6368045 -0.6491205 0.4160801
vn 0.1956538 0.9262484 0.3221544
vn 0.1956538 0.9262484 0.3221544
vn 0.04040576 0.08700104 0.9953885
vn 0.04040575 0.08700104 0.9953885
vn 0.04040575 0.08700104 0.9953885
vn -0.5477646 -0.6947317 0.4661565
vn -0.5477645 -0.6947317 0.4661565
vn -0.5477645 -0.6947317 0.4661565
vn 0.4742363 0.1464264 0.8681355
vn 0.4742363 0.1464264 0.8681355
vn 0.8363612 0.3503481 0.4216112
vn 0.8363612 0.3503481 0.4216112
vn 0.8363613 0.3503481 0.4216112
vn 0.450287 0.8779898 0.1624056
vn 0.450287 0.8779898 0.1624056
vn 0.450287 0.8779898 0.1624056
vn 0.450287 0.8779898 0.1624056
vn 0.2187788 0.03362172 0.975195
vn 0.2187788 0.03362172 0.975195
vn 0.2187788 0.03362172 0.975195
vn 0.2187788 0.03362172 0.975195
vn -0.06114288 -0.8420491 0.5359243
vn -0.06114288 -0.8420491 0.5359243
vn -0.06114288 -0.8420491 0.5359243
vn -0.3636795 -0.6238291 0.6917908
vn -0.3636794 -0.6238291 0.6917908
vn -0.3636794 -0.6238291 0.6917908
vn -0.3636795 -0.6238291 0.6917908
vn -0.6563085 -0.5778298 -0.4851513
vn -0.6563086 -0.5778298 -0.4851513
vn -0.6563085 -0.5778298 -0.4851513
vn 0.1808901 -0.3356303 -0.9244626
vn 0.1808902 -0.3356303 -0.9244626
vn 0.1808902 -0.3356303 -0.9244626
vn -0.4234662 -0.1500541 -0.893398
vn -0.4234663 -0.1500541 -0.893398
vn -0.4234662 -0.1500541 -0.893398
vn -0.2249949 -0.07568474 -0.9714161
vn -0.2208331 -0.0782499 -0.9721675
vn -0.2033771 -0.08895234 -0.9750514
vn -0.2361236 -0.06879957 -0.9692844
vn -0.05329259 0.03141696 -0.9980845
vn -0.05329259 0.03141695 -0.9980845
vn -0.05329259 0.03141695 -0.9980845
vn 0.05329115 0.03141697 -0.9980847
vn 0.05329115 0.03141697 -0.9980847
vn 0.05329115 0.03141697 -0.9980847
vn 0.2361199 -0.06880098 -0.9692852
vn 0.254806 -0.0603332 -0.9651082
vn 0.2527364 -0.05844976 -0.9657682
vn 0.2548077 -0.06095044 -0.9650689
vn 0.271511 -0.05794623 -0.9606894
vn 0.2446688 -0.06709748 -0.9672824
vn 0.1626965 -0.0436114 -0.9857119
vn 0.1626965 -0.0436114 -0.9857119
vn 0.1626965 -0.0436114 -0.9857119
g SM_Chr_Attach_Slobber_FacialHair_01_0
f 83/83/83 82/82/82 81/81/81
f 86/86/86 85/85/85 84/84/84
f 89/89/89 88/88/88 87/87/87
f 96/96/96 95/95/95 94/94/94
f 99/99/99 98/98/98 97/97/97
f 108/108/108 107/107/107 106/106/106
f 4/4/4 1/1/1 3/3/3
f 5/5/5 4/4/4 3/3/3
f 25/25/25 26/26/26 7/7/7
f 8/8/8 25/25/25 7/7/7
f 27/27/27 30/30/30 29/29/29
f 9/9/9 27/27/27 29/29/29
f 28/28/28 32/32/32 31/31/31
f 10/10/10 28/28/28 31/31/31
f 6/6/6 11/11/11 33/33/33
f 34/34/34 6/6/6 33/33/33
f 36/36/36 2/2/2 35/35/35
f 37/37/37 36/36/36 35/35/35
f 40/40/40 39/39/39 38/38/38
f 41/41/41 40/40/40 38/38/38
f 44/44/44 43/43/43 42/42/42
f 45/45/45 44/44/44 42/42/42
f 48/48/48 47/47/47 46/46/46
f 12/12/12 48/48/48 46/46/46
f 51/51/51 50/50/50 49/49/49
f 52/52/52 51/51/51 49/49/49
f 16/16/16 17/17/17 15/15/15
f 13/13/13 16/16/16 15/15/15
f 53/53/53 20/20/20 19/19/19
f 54/54/54 53/53/53 19/19/19
f 56/56/56 21/21/21 55/55/55
f 57/57/57 56/56/56 55/55/55
f 59/59/59 22/22/22 58/58/58
f 60/60/60 59/59/59 58/58/58
f 18/18/18 62/62/62 61/61/61
f 23/23/23 18/18/18 61/61/61
f 65/65/65 64/64/64 63/63/63
f 14/14/14 65/65/65 63/63/63
f 68/68/68 67/67/67 66/66/66
f 69/69/69 68/68/68 66/66/66
f 72/72/72 71/71/71 70/70/70
f 73/73/73 72/72/72 70/70/70
f 75/75/75 24/24/24 74/74/74
f 76/76/76 75/75/75 74/74/74
f 79/79/79 78/78/78 77/77/77
f 80/80/80 79/79/79 77/77/77
f 92/92/92 91/91/91 90/90/90
f 91/91/91 93/93/93 90/90/90
f 102/102/102 101/101/101 100/100/100
f 102/102/102 103/103/103 101/101/101
f 103/103/103 104/104/104 101/101/101
f 103/103/103 105/105/105 104/104/104
