g SM_Chr_Attach_Facemask_01
v -0.1385836 0.02920227 -0.01654084
v -0.1131654 0.02458124 0.02994986
v -0.1017166 -0.02675018 0.03598035
v -0.1017166 -0.02675018 0.03598035
v -0.09026085 -0.05140571 0.1002554
v -0.05852805 -0.06143264 0.05072301
v -0.1131654 0.02458124 0.02994986
v -0.09026085 -0.05140571 0.1002554
v -0.1017166 -0.02675018 0.03598035
v 0.1385836 0.02920227 -0.01654084
v 0.1017166 -0.02675018 0.03598036
v 0.1131654 0.02458124 0.02994986
v 0.1017166 -0.02675018 0.03598036
v 0.05852805 -0.06143264 0.05072301
v 0.09026085 -0.05140571 0.1002554
v 0.1131654 0.02458124 0.02994986
v 0.1017166 -0.02675018 0.03598036
v 0.09026085 -0.05140571 0.1002554
v -0.08616666 0.04995918 0.1225668
v 1.942441E-12 0.07136879 0.01628779
v 3.22079E-10 0.04843426 0.144591
v -0.1072758 0.05376091 0.08101644
v 1.942441E-12 0.07136879 0.01628779
v -0.08616666 0.04995918 0.1225668
v -0.1166726 0.06062088 0.02427219
v -0.1072758 0.05376091 0.08101644
v -0.1448943 0.06823749 -0.03131862
v 1.942441E-12 0.07136879 0.01628779
v -0.1166726 0.06062088 0.02427219
v -0.1115341 0.07392769 -0.09816153
v 1.942441E-12 0.07136879 0.01628779
v -0.1448943 0.06823749 -0.03131862
v 2.238575E-11 0.07302036 -0.1148595
v 1.942441E-12 0.07136879 0.01628779
v -0.1115341 0.07392769 -0.09816153
v 0.1115341 0.07392769 -0.09816153
v 2.238575E-11 0.07302036 -0.1148595
v 3.22079E-10 0.04843426 0.144591
v 1.942441E-12 0.07136879 0.01628779
v 0.08616666 0.04995918 0.1225668
v 0.08616666 0.04995918 0.1225668
v 1.942441E-12 0.07136879 0.01628779
v 0.1072758 0.05376091 0.08101644
v 0.1072758 0.05376091 0.08101644
v 0.1166726 0.06062088 0.02427219
v 0.1166726 0.06062088 0.02427219
v 1.942441E-12 0.07136879 0.01628779
v 0.1448943 0.06823749 -0.03131862
v 0.1448943 0.06823749 -0.03131862
v 1.942441E-12 0.07136879 0.01628779
v 0.1115341 0.07392769 -0.09816153
v -0.06521048 -0.09852829 0.04959726
v -3.833723E-11 -0.08623954 -0.0214379
v -0.07815807 -0.05223456 -0.06974472
v -0.07815807 -0.05223456 -0.06974472
v -3.833723E-11 -0.08623954 -0.0214379
v -7.787528E-10 -0.0508934 -0.09340621
v 8.85974E-11 -0.1135898 0.07421405
v -3.833723E-11 -0.08623954 -0.0214379
v -0.06521048 -0.09852829 0.04959726
v 0.07815807 -0.05223456 -0.06974472
v -3.833723E-11 -0.08623954 -0.0214379
v 0.06521048 -0.09852829 0.04959726
v -7.787528E-10 -0.0508934 -0.09340621
v -3.833723E-11 -0.08623954 -0.0214379
v 0.07815807 -0.05223456 -0.06974472
v 0.06521048 -0.09852829 0.04959726
v -3.833723E-11 -0.08623954 -0.0214379
v 8.85974E-11 -0.1135898 0.07421405
v -0.07080594 -0.04114829 0.1269488
v -0.08616666 0.04995918 0.1225668
v 3.22079E-10 0.04843426 0.144591
v 4.969812E-10 -0.06244106 0.1496957
v -0.1166726 0.06062088 0.02427219
v -0.1131654 0.02458124 0.02994986
v -0.1385836 0.02920227 -0.01654084
v -0.1448943 0.06823749 -0.03131862
v -0.1115341 0.07392769 -0.09816153
v -0.1119396 0.03798523 -0.08886706
v -6.526028E-11 0.02617321 -0.1048926
v 2.238575E-11 0.07302036 -0.1148595
v -0.09026085 -0.05140571 0.1002554
v -0.07080594 -0.04114829 0.1269488
v 4.969812E-10 -0.06244106 0.1496957
v 2.266999E-10 -0.08446942 0.1032538
v -0.1119396 0.03798523 -0.08886706
v -0.05852805 -0.06143264 0.05072301
v -0.07014884 -0.01988288 -0.05638942
v -0.1017166 -0.02675018 0.03598035
v -0.1385836 0.02920227 -0.01654084
v -0.1119396 0.03798523 -0.08886706
v -0.07014884 -0.01988288 -0.05638942
v -6.989497E-10 -0.01867913 -0.0776262
v -6.526028E-11 0.02617321 -0.1048926
v -0.09026085 -0.05140571 0.1002554
v 2.266999E-10 -0.08446942 0.1032538
v 7.951895E-11 -0.0749507 0.07281721
v -0.05852805 -0.06143264 0.05072301
v -0.1448943 0.06823749 -0.03131862
v -0.1385836 0.02920227 -0.01654084
v -0.1119396 0.03798523 -0.08886706
v -0.1115341 0.07392769 -0.09816153
v -0.08616666 0.04995918 0.1225668
v -0.07080594 -0.04114829 0.1269488
v -0.09026085 -0.05140571 0.1002554
v -0.1072758 0.05376091 0.08101644
v -0.09026085 -0.05140571 0.1002554
v -0.1131654 0.02458124 0.02994986
v -0.1166726 0.06062088 0.02427219
v -0.1072758 0.05376091 0.08101644
v 0.07080595 -0.04114829 0.1269488
v 4.969812E-10 -0.06244106 0.1496957
v 3.22079E-10 0.04843426 0.144591
v 0.08616666 0.04995918 0.1225668
v 0.1166726 0.06062088 0.02427219
v 0.1448943 0.06823749 -0.03131862
v 0.1385836 0.02920227 -0.01654084
v 0.1131654 0.02458124 0.02994986
v 0.1115341 0.07392769 -0.09816153
v 2.238575E-11 0.07302036 -0.1148595
v -6.526028E-11 0.02617321 -0.1048926
v 0.1119396 0.03798523 -0.08886706
v 0.09026085 -0.05140571 0.1002554
v 2.266999E-10 -0.08446942 0.1032538
v 4.969812E-10 -0.06244106 0.1496957
v 0.07080595 -0.04114829 0.1269488
v 0.1119396 0.03798523 -0.08886706
v 0.07014884 -0.01988288 -0.05638942
v 0.05852805 -0.06143264 0.05072301
v 0.1017166 -0.02675018 0.03598036
v 0.1385836 0.02920227 -0.01654084
v 0.1119396 0.03798523 -0.08886706
v -6.526028E-11 0.02617321 -0.1048926
v -6.989497E-10 -0.01867913 -0.0776262
v 0.07014884 -0.01988288 -0.05638942
v 0.09026085 -0.05140571 0.1002554
v 0.05852805 -0.06143264 0.05072301
v 7.951895E-11 -0.0749507 0.07281721
v 2.266999E-10 -0.08446942 0.1032538
v 0.1448943 0.06823749 -0.03131862
v 0.1115341 0.07392769 -0.09816153
v 0.1119396 0.03798523 -0.08886706
v 0.1385836 0.02920227 -0.01654084
v 0.08616666 0.04995918 0.1225668
v 0.1072758 0.05376091 0.08101644
v 0.09026085 -0.05140571 0.1002554
v 0.07080595 -0.04114829 0.1269488
v 0.09026085 -0.05140571 0.1002554
v 0.1072758 0.05376091 0.08101644
v 0.1166726 0.06062088 0.02427219
v 0.1131654 0.02458124 0.02994986
v -0.05852805 -0.06143264 0.05072301
v -0.06521048 -0.09852829 0.04959726
v -0.07815807 -0.05223456 -0.06974472
v -0.07014884 -0.01988288 -0.05638942
v -0.07014884 -0.01988288 -0.05638942
v -0.07815807 -0.05223456 -0.06974472
v -7.787528E-10 -0.0508934 -0.09340621
v -6.989497E-10 -0.01867913 -0.0776262
v 7.951895E-11 -0.0749507 0.07281721
v 8.85974E-11 -0.1135898 0.07421405
v -0.06521048 -0.09852829 0.04959726
v -0.05852805 -0.06143264 0.05072301
v 0.07014884 -0.01988288 -0.05638942
v 0.07815807 -0.05223456 -0.06974472
v 0.06521048 -0.09852829 0.04959726
v 0.05852805 -0.06143264 0.05072301
v -6.989497E-10 -0.01867913 -0.0776262
v -7.787528E-10 -0.0508934 -0.09340621
v 0.07815807 -0.05223456 -0.06974472
v 0.07014884 -0.01988288 -0.05638942
v 0.05852805 -0.06143264 0.05072301
v 0.06521048 -0.09852829 0.04959726
v 8.85974E-11 -0.1135898 0.07421405
v 7.951895E-11 -0.0749507 0.07281721
vt 0.8132882 0.3932015
vt 0.8227497 0.3914814
vt 0.8270112 0.3723742
vt 0.8270112 0.3723742
vt 0.8312755 0.3631966
vt 0.8430874 0.3594643
vt 0.8227497 0.3914814
vt 0.8312755 0.3631966
vt 0.8270112 0.3723742
vt 0.9164586 0.3932015
vt 0.9027356 0.3723742
vt 0.9069971 0.3914814
vt 0.9027356 0.3723742
vt 0.8866594 0.3594643
vt 0.8984714 0.3631966
vt 0.9069971 0.3914814
vt 0.9027356 0.3723742
vt 0.8984714 0.3631966
vt 0.8327994 0.4009278
vt 0.8648734 0.4088972
vt 0.8648734 0.4003602
vt 0.8249419 0.4023429
vt 0.8648734 0.4088972
vt 0.8327994 0.4009278
vt 0.8214442 0.4048965
vt 0.8249419 0.4023429
vt 0.8109392 0.4077316
vt 0.8648734 0.4088972
vt 0.8214442 0.4048965
vt 0.8233569 0.4098496
vt 0.8648734 0.4088972
vt 0.8109392 0.4077316
vt 0.8648734 0.409512
vt 0.8648734 0.4088972
vt 0.8233569 0.4098496
vt 0.90639 0.4098496
vt 0.8648734 0.409512
vt 0.8648734 0.4003602
vt 0.8648734 0.4088972
vt 0.8969474 0.4009278
vt 0.8969474 0.4009278
vt 0.8648734 0.4088972
vt 0.9048048 0.4023429
vt 0.9048048 0.4023429
vt 0.9083027 0.4048965
vt 0.9083027 0.4048965
vt 0.8648734 0.4088972
vt 0.9188076 0.4077316
vt 0.9188076 0.4077316
vt 0.8648734 0.4088972
vt 0.90639 0.4098496
vt 0.8406 0.3456561
vt 0.8648734 0.3502304
vt 0.8357805 0.3628881
vt 0.8357805 0.3628881
vt 0.8648734 0.3502304
vt 0.8648734 0.3633873
vt 0.8648734 0.3400497
vt 0.8648734 0.3502304
vt 0.8406 0.3456561
vt 0.8939663 0.3628881
vt 0.8648734 0.3502304
vt 0.8891468 0.3456561
vt 0.8648734 0.3633873
vt 0.8648734 0.3502304
vt 0.8939663 0.3628881
vt 0.8891468 0.3456561
vt 0.8648734 0.3502304
vt 0.8648734 0.3400497
vt 0.8385172 0.3670147
vt 0.8327994 0.4009278
vt 0.8648734 0.4003602
vt 0.8648734 0.3590889
vt 0.8214442 0.4048965
vt 0.8227497 0.3914814
vt 0.8132882 0.3932015
vt 0.8109392 0.4077316
vt 0.8233569 0.4098496
vt 0.8232059 0.3964707
vt 0.8648734 0.392074
vt 0.8648734 0.409512
vt 0.8312755 0.3631966
vt 0.8385172 0.3670147
vt 0.8648734 0.3590889
vt 0.8648734 0.3508893
vt 0.8232059 0.3964707
vt 0.8430874 0.3594643
vt 0.8387618 0.3749304
vt 0.8270112 0.3723742
vt 0.8132882 0.3932015
vt 0.8232059 0.3964707
vt 0.8387618 0.3749304
vt 0.8648734 0.3753785
vt 0.8648734 0.392074
vt 0.8312755 0.3631966
vt 0.8648734 0.3508893
vt 0.8648734 0.3544324
vt 0.8430874 0.3594643
vt 0.8109392 0.4077316
vt 0.8132882 0.3932015
vt 0.8232059 0.3964707
vt 0.8233569 0.4098496
vt 0.8327994 0.4009278
vt 0.8385172 0.3670147
vt 0.8312755 0.3631966
vt 0.8249419 0.4023429
vt 0.8312755 0.3631966
vt 0.8227497 0.3914814
vt 0.8214442 0.4048965
vt 0.8249419 0.4023429
vt 0.8912296 0.3670147
vt 0.8648734 0.3590889
vt 0.8648734 0.4003602
vt 0.8969474 0.4009278
vt 0.9083027 0.4048965
vt 0.9188076 0.4077316
vt 0.9164586 0.3932015
vt 0.9069971 0.3914814
vt 0.90639 0.4098496
vt 0.8648734 0.409512
vt 0.8648734 0.392074
vt 0.9065409 0.3964707
vt 0.8984714 0.3631966
vt 0.8648734 0.3508893
vt 0.8648734 0.3590889
vt 0.8912296 0.3670147
vt 0.9065409 0.3964707
vt 0.890985 0.3749304
vt 0.8866594 0.3594643
vt 0.9027356 0.3723742
vt 0.9164586 0.3932015
vt 0.9065409 0.3964707
vt 0.8648734 0.392074
vt 0.8648734 0.3753785
vt 0.890985 0.3749304
vt 0.8984714 0.3631966
vt 0.8866594 0.3594643
vt 0.8648734 0.3544324
vt 0.8648734 0.3508893
vt 0.9188076 0.4077316
vt 0.90639 0.4098496
vt 0.9065409 0.3964707
vt 0.9164586 0.3932015
vt 0.8969474 0.4009278
vt 0.9048048 0.4023429
vt 0.8984714 0.3631966
vt 0.8912296 0.3670147
vt 0.8984714 0.3631966
vt 0.9048048 0.4023429
vt 0.9083027 0.4048965
vt 0.9069971 0.3914814
vt 0.8430874 0.3594643
vt 0.8406 0.3456561
vt 0.8357805 0.3628881
vt 0.8387618 0.3749304
vt 0.8387618 0.3749304
vt 0.8357805 0.3628881
vt 0.8648734 0.3633873
vt 0.8648734 0.3753785
vt 0.8648734 0.3544324
vt 0.8648734 0.3400497
vt 0.8406 0.3456561
vt 0.8430874 0.3594643
vt 0.890985 0.3749304
vt 0.8939663 0.3628881
vt 0.8891468 0.3456561
vt 0.8866594 0.3594643
vt 0.8648734 0.3753785
vt 0.8648734 0.3633873
vt 0.8939663 0.3628881
vt 0.890985 0.3749304
vt 0.8866594 0.3594643
vt 0.8891468 0.3456561
vt 0.8648734 0.3400497
vt 0.8648734 0.3544324
vn -0.8745285 -0.14052 0.4641703
vn -0.8745285 -0.14052 0.4641703
vn -0.8745285 -0.14052 0.4641703
vn -0.5697502 -0.7961354 -0.203846
vn -0.5697502 -0.7961354 -0.203846
vn -0.5697502 -0.7961354 -0.203846
vn -0.9739506 -0.2061217 0.09452078
vn -0.9739506 -0.2061217 0.09452078
vn -0.9739506 -0.2061217 0.09452078
vn 0.8745285 -0.14052 0.4641702
vn 0.8745285 -0.14052 0.4641702
vn 0.8745285 -0.14052 0.4641702
vn 0.5697502 -0.7961354 -0.203846
vn 0.5697502 -0.7961354 -0.203846
vn 0.5697502 -0.7961354 -0.203846
vn 0.9739506 -0.2061217 0.09452079
vn 0.9739506 -0.2061217 0.09452079
vn 0.9739506 -0.2061217 0.09452079
vn -0.05498319 0.986516 0.1541528
vn -0.04860344 0.9861705 0.158447
vn 0 0.9843966 0.1759634
vn -0.08212214 0.9877625 0.1325948
vn -0.06261963 0.9887319 0.135971
vn -0.05498319 0.986516 0.1541528
vn -0.08020815 0.9848592 0.153685
vn -0.08212214 0.9877625 0.1325948
vn -0.07849068 0.9815537 0.1743319
vn -0.06760355 0.9857662 0.1539312
vn -0.08020815 0.9848592 0.153685
vn -0.01623676 0.9991397 0.0381623
vn -0.02743692 0.9971848 0.06978261
vn -0.04247072 0.9970661 0.06368168
vn 0 0.9999207 0.01259227
vn 0 0.9992713 0.03816733
vn -0.01623676 0.9991397 0.0381623
vn 0.01623676 0.9991397 0.03816231
vn 0 0.9999207 0.01259227
vn 0 0.9843966 0.1759634
vn 0.04860345 0.9861705 0.158447
vn 0.05498319 0.986516 0.1541528
vn 0.05498319 0.986516 0.1541528
vn 0.06261963 0.9887319 0.135971
vn 0.08212214 0.9877625 0.1325948
vn 0.08212214 0.9877625 0.1325948
vn 0.08020815 0.9848592 0.153685
vn 0.08020815 0.9848592 0.153685
vn 0.06760356 0.9857662 0.1539312
vn 0.0784907 0.9815537 0.1743319
vn 0.04247072 0.9970661 0.06368168
vn 0.02743692 0.9971848 0.06978262
vn 0.01623676 0.9991397 0.03816231
vn -0.1929659 -0.9216686 -0.3365876
vn -0.1929659 -0.9216686 -0.3365876
vn -0.1929659 -0.9216686 -0.3365876
vn -0.1172419 -0.8913972 -0.4377961
vn -0.1172419 -0.8913972 -0.4377961
vn -0.1172419 -0.8913972 -0.4377961
vn -0.1174681 -0.9548114 -0.2730139
vn -0.1174681 -0.9548114 -0.2730139
vn -0.1174681 -0.9548114 -0.2730139
vn 0.1929659 -0.9216686 -0.3365875
vn 0.1929659 -0.9216686 -0.3365875
vn 0.1929659 -0.9216686 -0.3365875
vn 0.1172419 -0.8913972 -0.4377961
vn 0.1172419 -0.8913972 -0.4377961
vn 0.1172419 -0.8913972 -0.4377961
vn 0.1174681 -0.9548113 -0.2730139
vn 0.1174681 -0.9548113 -0.2730139
vn 0.1174681 -0.9548113 -0.2730139
vn -0.2708879 0.02459624 0.9622966
vn -0.2708879 0.02459624 0.9622966
vn -0.2708879 0.02459624 0.9622966
vn -0.2708879 0.02459624 0.9622966
vn -0.8846129 0.01133618 0.4661884
vn -0.8846129 0.01133618 0.4661884
vn -0.8846129 0.01133618 0.4661884
vn -0.8846129 0.01133618 0.4661884
vn -0.1536564 -0.223197 -0.9625865
vn -0.1536564 -0.223197 -0.9625865
vn -0.1536564 -0.223197 -0.9625865
vn -0.1536564 -0.223197 -0.9625865
vn -0.3491913 -0.8193873 0.4546098
vn -0.3491913 -0.8193873 0.4546098
vn -0.3491913 -0.8193873 0.4546098
vn -0.3491913 -0.8193873 0.4546098
vn -0.6318504 -0.7170237 -0.2943503
vn -0.6361165 -0.7223981 -0.271103
vn -0.6361165 -0.7223981 -0.271103
vn -0.6318504 -0.7170237 -0.2943503
vn -0.627213 -0.7112281 -0.3174246
vn -0.1979388 -0.5517465 -0.8101828
vn -0.1979388 -0.5517465 -0.8101828
vn -0.1979388 -0.5517465 -0.8101828
vn -0.1979388 -0.5517465 -0.8101828
vn -0.2808781 -0.953939 -0.1053938
vn -0.2808781 -0.953939 -0.1053938
vn -0.2808781 -0.953939 -0.1053938
vn -0.2808781 -0.953939 -0.1053938
vn -0.8919052 -0.2004004 -0.4053945
vn -0.8919052 -0.2004004 -0.4053945
vn -0.8919052 -0.2004004 -0.4053945
vn -0.8919052 -0.2004004 -0.4053945
vn -0.8536394 -0.07884716 0.514862
vn -0.8536394 -0.07884716 0.514862
vn -0.8536394 -0.07884716 0.514862
vn -0.8536394 -0.07884716 0.514862
vn -0.9780612 -0.1110458 0.1762528
vn -0.9780612 -0.1110458 0.1762528
vn -0.9780612 -0.1110458 0.1762528
vn -0.9780612 -0.1110458 0.1762528
vn 0.2708879 0.02459625 0.9622966
vn 0.2708879 0.02459625 0.9622966
vn 0.2708879 0.02459625 0.9622966
vn 0.2708879 0.02459625 0.9622966
vn 0.8846129 0.01133614 0.4661884
vn 0.8846129 0.01133614 0.4661884
vn 0.8846129 0.01133614 0.4661884
vn 0.8846129 0.01133614 0.4661884
vn 0.1536564 -0.223197 -0.9625865
vn 0.1536564 -0.223197 -0.9625865
vn 0.1536564 -0.223197 -0.9625865
vn 0.1536564 -0.223197 -0.9625865
vn 0.3491913 -0.8193873 0.4546098
vn 0.3491913 -0.8193873 0.4546098
vn 0.3491913 -0.8193873 0.4546098
vn 0.3491913 -0.8193873 0.4546098
vn 0.6318504 -0.7170237 -0.2943503
vn 0.6361165 -0.7223981 -0.271103
vn 0.6361165 -0.7223981 -0.271103
vn 0.6318504 -0.7170237 -0.2943503
vn 0.627213 -0.7112281 -0.3174245
vn 0.1979389 -0.5517465 -0.8101827
vn 0.1979389 -0.5517465 -0.8101827
vn 0.1979389 -0.5517465 -0.8101827
vn 0.1979389 -0.5517465 -0.8101827
vn 0.2808781 -0.953939 -0.1053938
vn 0.2808781 -0.953939 -0.1053938
vn 0.2808781 -0.953939 -0.1053938
vn 0.2808781 -0.953939 -0.1053938
vn 0.8919052 -0.2004004 -0.4053945
vn 0.8919052 -0.2004004 -0.4053945
vn 0.8919052 -0.2004004 -0.4053945
vn 0.8919052 -0.2004004 -0.4053945
vn 0.8536394 -0.07884715 0.514862
vn 0.8536394 -0.07884715 0.514862
vn 0.8536394 -0.07884715 0.514862
vn 0.8536394 -0.07884715 0.514862
vn 0.9780612 -0.1110458 0.1762528
vn 0.9780612 -0.1110458 0.1762528
vn 0.9780612 -0.1110458 0.1762528
vn 0.9780612 -0.1110458 0.1762528
vn -0.9705393 0.1696411 0.1711004
vn -0.9705393 0.1696411 0.1711004
vn -0.9705393 0.1696411 0.1711004
vn -0.9705393 0.1696411 0.1711004
vn -0.2691134 0.4236747 -0.8649149
vn -0.2691134 0.4236747 -0.8649149
vn -0.2691134 0.4236747 -0.8649149
vn -0.2691134 0.4236747 -0.8649149
vn -0.3461066 0.03389473 0.9375827
vn -0.3461066 0.03389473 0.9375827
vn -0.3461066 0.03389473 0.9375827
vn -0.3461066 0.03389473 0.9375827
vn 0.9705393 0.1696411 0.1711004
vn 0.9705393 0.1696411 0.1711004
vn 0.9705393 0.1696411 0.1711004
vn 0.9705393 0.1696411 0.1711004
vn 0.2691135 0.4236746 -0.8649149
vn 0.2691135 0.4236746 -0.8649149
vn 0.2691135 0.4236746 -0.8649149
vn 0.2691135 0.4236746 -0.8649149
vn 0.3461066 0.03389473 0.9375827
vn 0.3461066 0.03389473 0.9375827
vn 0.3461066 0.03389473 0.9375827
vn 0.3461066 0.03389473 0.9375827
g SM_Chr_Attach_Facemask_01_0
f 3/3/3 2/2/2 1/1/1
f 6/6/6 5/5/5 4/4/4
f 9/9/9 8/8/8 7/7/7
f 12/12/12 11/11/11 10/10/10
f 15/15/15 14/14/14 13/13/13
f 18/18/18 17/17/17 16/16/16
f 21/21/21 20/20/20 19/19/19
f 24/24/24 23/23/23 22/22/22
f 26/26/26 23/23/23 25/25/25
f 29/29/29 28/28/28 27/27/27
f 32/32/32 31/31/31 30/30/30
f 35/35/35 34/34/34 33/33/33
f 37/37/37 34/34/34 36/36/36
f 40/40/40 39/39/39 38/38/38
f 43/43/43 42/42/42 41/41/41
f 45/45/45 42/42/42 44/44/44
f 48/48/48 47/47/47 46/46/46
f 51/51/51 50/50/50 49/49/49
f 54/54/54 53/53/53 52/52/52
f 57/57/57 56/56/56 55/55/55
f 60/60/60 59/59/59 58/58/58
f 63/63/63 62/62/62 61/61/61
f 66/66/66 65/65/65 64/64/64
f 69/69/69 68/68/68 67/67/67
f 72/72/72 71/71/71 70/70/70
f 73/73/73 72/72/72 70/70/70
f 76/76/76 75/75/75 74/74/74
f 77/77/77 76/76/76 74/74/74
f 80/80/80 79/79/79 78/78/78
f 81/81/81 80/80/80 78/78/78
f 84/84/84 83/83/83 82/82/82
f 85/85/85 84/84/84 82/82/82
f 88/88/88 87/87/87 86/86/86
f 87/87/87 89/89/89 86/86/86
f 89/89/89 90/90/90 86/86/86
f 93/93/93 92/92/92 91/91/91
f 94/94/94 93/93/93 91/91/91
f 97/97/97 96/96/96 95/95/95
f 98/98/98 97/97/97 95/95/95
f 101/101/101 100/100/100 99/99/99
f 102/102/102 101/101/101 99/99/99
f 105/105/105 104/104/104 103/103/103
f 106/106/106 105/105/105 103/103/103
f 109/109/109 108/108/108 107/107/107
f 110/110/110 109/109/109 107/107/107
f 113/113/113 112/112/112 111/111/111
f 114/114/114 113/113/113 111/111/111
f 117/117/117 116/116/116 115/115/115
f 118/118/118 117/117/117 115/115/115
f 121/121/121 120/120/120 119/119/119
f 122/122/122 121/121/121 119/119/119
f 125/125/125 124/124/124 123/123/123
f 126/126/126 125/125/125 123/123/123
f 129/129/129 128/128/128 127/127/127
f 130/130/130 129/129/129 127/127/127
f 131/131/131 130/130/130 127/127/127
f 134/134/134 133/133/133 132/132/132
f 135/135/135 134/134/134 132/132/132
f 138/138/138 137/137/137 136/136/136
f 139/139/139 138/138/138 136/136/136
f 142/142/142 141/141/141 140/140/140
f 143/143/143 142/142/142 140/140/140
f 146/146/146 145/145/145 144/144/144
f 147/147/147 146/146/146 144/144/144
f 150/150/150 149/149/149 148/148/148
f 151/151/151 150/150/150 148/148/148
f 154/154/154 153/153/153 152/152/152
f 155/155/155 154/154/154 152/152/152
f 158/158/158 157/157/157 156/156/156
f 159/159/159 158/158/158 156/156/156
f 162/162/162 161/161/161 160/160/160
f 163/163/163 162/162/162 160/160/160
f 166/166/166 165/165/165 164/164/164
f 167/167/167 166/166/166 164/164/164
f 170/170/170 169/169/169 168/168/168
f 171/171/171 170/170/170 168/168/168
f 174/174/174 173/173/173 172/172/172
f 175/175/175 174/174/174 172/172/172
