g SM_Char_Attach_British_Beret_01
v 0.1042279 0.1450412 0.1076968
v 0.1019456 0.1988095 0.09106647
v 0.1260299 0.1840733 -0.008232581
v 0.1260299 0.1840733 -0.008232581
v 0.10098 0.1656651 -0.1155889
v 0.1165003 0.1021121 -0.1099924
v 6.221579E-05 0.07751785 -0.1332647
v 4.97727E-15 0.1097179 0.008427466
v 0.1165003 0.0869545 -0.1070033
v -0.1431965 0.1224788 -0.1280843
v -0.1519791 0.1798004 -0.04717119
v -0.1702575 0.1041318 -0.06605182
v -0.1702575 0.1041318 -0.06605182
v -0.1519791 0.1798004 -0.04717119
v -0.187418 0.1200577 0.01474771
v -0.1519791 0.1798004 -0.04717119
v -0.1348494 0.2169348 0.043975
v -0.1613845 0.1772581 0.05206475
v -0.1348494 0.2169348 0.043975
v -0.1519791 0.1798004 -0.04717119
v -0.1052999 0.2402685 0.04542622
v -0.1052999 0.2402685 0.04542622
v -0.1519791 0.1798004 -0.04717119
v -0.08271078 0.2283035 -0.0397073
v -0.08271078 0.2283035 -0.0397073
v -0.1519791 0.1798004 -0.04717119
v -0.06809667 0.1918417 -0.1226375
v -0.001884126 0.1138341 -0.1411373
v -0.04794471 0.1459996 -0.1408504
v -0.1181796 0.1163036 -0.1121426
v -0.1062588 0.2214723 0.06174763
v -0.00609157 0.2062645 0.1182088
v -0.1041244 0.1824203 0.08453128
v 0.08230553 0.2541167 0.06989953
v 0.09948144 0.2379076 -0.01642581
v 0.1260299 0.1840733 -0.008232581
v 0.07875752 0.2168036 -0.1037554
v -0.06809667 0.1918417 -0.1226375
v -0.04794471 0.1459996 -0.1408504
v -0.04794471 0.1459996 -0.1408504
v -0.09374539 0.1608089 -0.1324864
v -0.1431965 0.1224788 -0.1280843
v -0.1062588 0.2214723 0.06174763
v -0.1348494 0.2169348 0.043975
v -0.1052999 0.2402685 0.04542622
v -0.1011419 0.162041 0.1014076
v -0.1041244 0.1824203 0.08453128
v -0.00609157 0.2062645 0.1182088
v -0.04794471 0.1459996 -0.1408504
v -0.1275614 0.1065306 -0.1253984
v -0.1181796 0.1163036 -0.1121426
v -0.00609157 0.2062645 0.1182088
v -0.1062588 0.2214723 0.06174763
v -0.007641205 0.2493498 0.09844352
v -0.01247504 0.2586914 0.06474718
v 0.08230553 0.2541167 0.06989953
v -0.007641205 0.2493498 0.09844352
v 0.08230553 0.2541167 0.06989953
v 0.008173629 0.2547787 -0.02349164
v 0.09948144 0.2379076 -0.01642581
v -0.08271078 0.2283035 -0.0397073
v 0.008173629 0.2547787 -0.02349164
v -0.1052999 0.2402685 0.04542622
v -0.1052999 0.2402685 0.04542622
v 0.008173629 0.2547787 -0.02349164
v -0.01247504 0.2586914 0.06474718
v -0.01247504 0.2586914 0.06474718
v 0.008173629 0.2547787 -0.02349164
v 0.08230553 0.2541167 0.06989953
v 0.09948144 0.2379076 -0.01642581
v 0.008173629 0.2547787 -0.02349164
v 0.07875752 0.2168036 -0.1037554
v 0.07875752 0.2168036 -0.1037554
v 0.008173629 0.2547787 -0.02349164
v -0.06809667 0.1918417 -0.1226375
v -0.06809667 0.1918417 -0.1226375
v 0.008173629 0.2547787 -0.02349164
v -0.08271078 0.2283035 -0.0397073
v 0.1042279 0.1450412 0.1076968
v 0.1260299 0.1840733 -0.008232581
v 0.1184339 0.1253352 0.01110551
v -0.06809667 0.1918417 -0.1226375
v -0.09374539 0.1608089 -0.1324864
v -0.04794471 0.1459996 -0.1408504
v 0.1019456 0.1988095 0.09106647
v 0.08230553 0.2541167 0.06989953
v 0.1260299 0.1840733 -0.008232581
v -0.187418 0.1200577 0.01474771
v -0.1519791 0.1798004 -0.04717119
v -0.1613845 0.1772581 0.05206475
v -0.1647803 0.1205807 0.02991946
v -0.1387062 0.174453 0.06691229
v -0.1041244 0.1824203 0.08453128
v -0.04794471 0.1459996 -0.1408504
v -0.1431965 0.1224788 -0.1280843
v -0.1275614 0.1065306 -0.1253984
v 0.1184339 0.1253352 0.01110551
v 0.1260299 0.1840733 -0.008232581
v 0.1165003 0.1021121 -0.1099924
v 0.1165003 0.1021121 -0.1099924
v 0.10098 0.1656651 -0.1155889
v -0.001884126 0.1138341 -0.1411373
v 6.221579E-05 0.09267548 -0.1362538
v 6.221579E-05 0.09267548 -0.1362538
v -0.001884126 0.1138341 -0.1411373
v -0.1181796 0.1163036 -0.1121426
v -0.1134092 0.1023407 -0.1088333
v -0.1134092 0.1023407 -0.1088333
v -0.1181796 0.1163036 -0.1121426
v -0.1272694 0.1315816 0.001753885
v -0.1231485 0.1248755 0.005438293
v -0.1231485 0.1248755 0.005438293
v -0.1011419 0.162041 0.1014076
v -0.1042279 0.1450412 0.1076968
v -0.1272694 0.1315816 0.001753885
v -0.1041244 0.1824203 0.08453128
v -0.1042279 0.1450412 0.1076968
v -0.1011419 0.162041 0.1014076
v -0.00609157 0.2062645 0.1182088
v 4.97727E-15 0.1529138 0.1364426
v 4.97727E-15 0.1529138 0.1364426
v -0.00609157 0.2062645 0.1182088
v 0.1019456 0.1988095 0.09106647
v 0.1042279 0.1450412 0.1076968
v -0.1134092 0.08718307 -0.1058441
v 4.97727E-15 0.1097179 0.008427466
v 6.221579E-05 0.07751785 -0.1332647
v -0.1231485 0.1097179 0.008427466
v -0.1042279 0.1298833 0.1106859
v 4.97727E-15 0.1377562 0.1394318
v 0.1042279 0.1298833 0.1106859
v 0.1184339 0.1101776 0.01409469
v 0.1165003 0.0869545 -0.1070033
v -0.06809667 0.1918417 -0.1226375
v -0.1519791 0.1798004 -0.04717119
v -0.09374539 0.1608089 -0.1324864
v -0.1431965 0.1224788 -0.1280843
v 0.10098 0.1656651 -0.1155889
v 0.07875752 0.2168036 -0.1037554
v -0.04794471 0.1459996 -0.1408504
v -0.001884126 0.1138341 -0.1411373
v -0.1181796 0.1163036 -0.1121426
v -0.1275614 0.1065306 -0.1253984
v -0.1479625 0.1012352 -0.05871805
v -0.1272694 0.1315816 0.001753885
v -0.00609157 0.2062645 0.1182088
v 0.08230553 0.2541167 0.06989953
v 0.1019456 0.1988095 0.09106647
v -0.007641205 0.2493498 0.09844352
v 0.1260299 0.1840733 -0.008232581
v 0.09948144 0.2379076 -0.01642581
v 0.07875752 0.2168036 -0.1037554
v 0.10098 0.1656651 -0.1155889
v -0.1275614 0.1065306 -0.1253984
v -0.1431965 0.1224788 -0.1280843
v -0.1702575 0.1041318 -0.06605182
v -0.1479625 0.1012352 -0.05871805
v -0.1479625 0.1012352 -0.05871805
v -0.1702575 0.1041318 -0.06605182
v -0.187418 0.1200577 0.01474771
v -0.1647803 0.1205807 0.02991946
v -0.1613845 0.1772581 0.05206475
v -0.1348494 0.2169348 0.043975
v -0.1062588 0.2214723 0.06174763
v -0.1387062 0.174453 0.06691229
v -0.1041244 0.1824203 0.08453128
v -0.1479625 0.1012352 -0.05871805
v -0.1647803 0.1205807 0.02991946
v -0.1041244 0.1824203 0.08453128
v -0.1272694 0.1315816 0.001753885
v 6.221579E-05 0.09267548 -0.1362538
v 6.221579E-05 0.07751785 -0.1332647
v 0.1165003 0.0869545 -0.1070033
v 0.1165003 0.1021121 -0.1099924
v -0.1134092 0.1023407 -0.1088333
v -0.1134092 0.08718307 -0.1058441
v 6.221579E-05 0.07751785 -0.1332647
v 6.221579E-05 0.09267548 -0.1362538
v -0.1231485 0.1248755 0.005438293
v -0.1231485 0.1097179 0.008427466
v -0.1134092 0.08718307 -0.1058441
v -0.1134092 0.1023407 -0.1088333
v -0.1042279 0.1450412 0.1076968
v -0.1042279 0.1298833 0.1106859
v -0.1231485 0.1097179 0.008427466
v -0.1231485 0.1248755 0.005438293
v 4.97727E-15 0.1529138 0.1364426
v 4.97727E-15 0.1377562 0.1394318
v -0.1042279 0.1298833 0.1106859
v -0.1042279 0.1450412 0.1076968
v 0.1042279 0.1450412 0.1076968
v 0.1042279 0.1298833 0.1106859
v 4.97727E-15 0.1377562 0.1394318
v 4.97727E-15 0.1529138 0.1364426
v 0.1184339 0.1253352 0.01110551
v 0.1184339 0.1101776 0.01409469
v 0.1042279 0.1298833 0.1106859
v 0.1042279 0.1450412 0.1076968
v 0.1165003 0.1021121 -0.1099924
v 0.1165003 0.0869545 -0.1070033
v 0.1184339 0.1101776 0.01409469
v 0.1184339 0.1253352 0.01110551
v -0.1062588 0.2214723 0.06174763
v -0.1052999 0.2402685 0.04542622
v -0.01247504 0.2586914 0.06474718
v -0.007641205 0.2493498 0.09844352
v -0.1647803 0.1205807 0.02991946
v -0.187418 0.1200577 0.01474771
v -0.1613845 0.1772581 0.05206475
v -0.1387062 0.174453 0.06691229
vt 0.3402331 0.3110061
vt 0.3402331 0.311006
vt 0.3402331 0.311006
vt 0.3402331 0.311006
vt 0.3402331 0.311006
vt 0.3402331 0.3110061
vt 0.08066279 0.2515717
vt 0.08066279 0.2515717
vt 0.08066273 0.2515717
vt 0.3402331 0.311006
vt 0.3402331 0.311006
vt 0.3402331 0.311006
vt 0.3402331 0.311006
vt 0.3402331 0.311006
vt 0.3402331 0.311006
vt 0.3402331 0.311006
vt 0.3402331 0.311006
vt 0.3402331 0.311006
vt 0.3402331 0.311006
vt 0.3402331 0.311006
vt 0.3402331 0.311006
vt 0.3402331 0.311006
vt 0.3402331 0.311006
vt 0.3402331 0.311006
vt 0.3402331 0.311006
vt 0.3402331 0.311006
vt 0.3402331 0.311006
vt 0.3402331 0.311006
vt 0.3402331 0.311006
vt 0.3402331 0.311006
vt 0.3402331 0.311006
vt 0.3402331 0.311006
vt 0.3402331 0.311006
vt 0.3402331 0.311006
vt 0.3402331 0.311006
vt 0.3402331 0.311006
vt 0.3402331 0.311006
vt 0.3402331 0.311006
vt 0.3402331 0.311006
vt 0.3402331 0.311006
vt 0.3402331 0.311006
vt 0.3402331 0.311006
vt 0.3402331 0.311006
vt 0.3402331 0.311006
vt 0.3402331 0.311006
vt 0.3402331 0.311006
vt 0.3402331 0.311006
vt 0.3402331 0.311006
vt 0.3402331 0.311006
vt 0.3402331 0.311006
vt 0.3402331 0.311006
vt 0.3402331 0.311006
vt 0.3402331 0.311006
vt 0.3402331 0.311006
vt 0.3402331 0.3110061
vt 0.3402331 0.311006
vt 0.3402331 0.311006
vt 0.3402331 0.311006
vt 0.3402331 0.311006
vt 0.3402331 0.311006
vt 0.3402331 0.311006
vt 0.3402331 0.311006
vt 0.3402331 0.311006
vt 0.3402331 0.311006
vt 0.3402331 0.311006
vt 0.3402331 0.3110061
vt 0.3402331 0.3110061
vt 0.3402331 0.311006
vt 0.3402331 0.311006
vt 0.3402331 0.311006
vt 0.3402331 0.311006
vt 0.3402331 0.311006
vt 0.3402331 0.311006
vt 0.3402331 0.311006
vt 0.3402331 0.311006
vt 0.3402331 0.311006
vt 0.3402331 0.311006
vt 0.3402331 0.311006
vt 0.3402331 0.3110061
vt 0.3402331 0.311006
vt 0.3402331 0.3110061
vt 0.3402331 0.311006
vt 0.3402331 0.311006
vt 0.3402331 0.311006
vt 0.3402331 0.311006
vt 0.3402331 0.311006
vt 0.3402331 0.311006
vt 0.3402331 0.311006
vt 0.3402331 0.311006
vt 0.3402331 0.311006
vt 0.3402331 0.311006
vt 0.3402331 0.311006
vt 0.3402331 0.311006
vt 0.3402331 0.311006
vt 0.3402331 0.311006
vt 0.3402331 0.311006
vt 0.3402331 0.3110061
vt 0.3402331 0.311006
vt 0.3402331 0.3110061
vt 0.3402331 0.3110061
vt 0.3402331 0.311006
vt 0.3402331 0.311006
vt 0.3402331 0.3110061
vt 0.3402331 0.3110061
vt 0.3402331 0.311006
vt 0.3402331 0.311006
vt 0.3402331 0.3110061
vt 0.3402331 0.3110061
vt 0.3402331 0.311006
vt 0.3402331 0.311006
vt 0.3402331 0.3110061
vt 0.3402331 0.3110061
vt 0.3402331 0.311006
vt 0.3402331 0.3110061
vt 0.3402331 0.311006
vt 0.3402331 0.311006
vt 0.3402331 0.3110061
vt 0.3402331 0.311006
vt 0.3402331 0.311006
vt 0.3402331 0.3110061
vt 0.3402331 0.3110061
vt 0.3402331 0.311006
vt 0.3402331 0.311006
vt 0.3402331 0.3110061
vt 0.08066273 0.2515717
vt 0.08066279 0.2515717
vt 0.08066279 0.2515717
vt 0.08066273 0.2515717
vt 0.08066273 0.2515717
vt 0.08066279 0.2515717
vt 0.08066273 0.2515717
vt 0.08066273 0.2515717
vt 0.08066273 0.2515717
vt 0.3402331 0.311006
vt 0.3402331 0.311006
vt 0.3402331 0.311006
vt 0.3402331 0.311006
vt 0.3402331 0.311006
vt 0.3402331 0.311006
vt 0.3402331 0.311006
vt 0.3402331 0.311006
vt 0.3402331 0.311006
vt 0.3402331 0.311006
vt 0.3402331 0.311006
vt 0.3402331 0.311006
vt 0.3402331 0.311006
vt 0.3402331 0.311006
vt 0.3402331 0.311006
vt 0.3402331 0.311006
vt 0.3402331 0.311006
vt 0.3402331 0.311006
vt 0.3402331 0.311006
vt 0.3402331 0.311006
vt 0.3402331 0.311006
vt 0.3402331 0.311006
vt 0.3402331 0.311006
vt 0.3402331 0.311006
vt 0.3402331 0.311006
vt 0.3402331 0.311006
vt 0.3402331 0.311006
vt 0.3402331 0.311006
vt 0.3402331 0.311006
vt 0.3402331 0.311006
vt 0.3402331 0.311006
vt 0.3402331 0.311006
vt 0.3402331 0.311006
vt 0.3402331 0.311006
vt 0.340233 0.3110061
vt 0.340233 0.3110061
vt 0.3402331 0.311006
vt 0.08066279 0.2515717
vt 0.08066279 0.2515717
vt 0.08066273 0.2515717
vt 0.08066273 0.2515717
vt 0.08066273 0.2515717
vt 0.08066273 0.2515717
vt 0.08066279 0.2515717
vt 0.08066279 0.2515717
vt 0.08066273 0.2515717
vt 0.08066273 0.2515717
vt 0.08066273 0.2515717
vt 0.08066273 0.2515717
vt 0.08066273 0.2515717
vt 0.08066273 0.2515717
vt 0.08066273 0.2515717
vt 0.08066273 0.2515717
vt 0.08066279 0.2515717
vt 0.08066279 0.2515717
vt 0.08066273 0.2515717
vt 0.08066273 0.2515717
vt 0.08066273 0.2515717
vt 0.08066273 0.2515717
vt 0.08066279 0.2515717
vt 0.08066279 0.2515717
vt 0.08066273 0.2515717
vt 0.08066273 0.2515717
vt 0.08066273 0.2515717
vt 0.08066273 0.2515717
vt 0.08066273 0.2515717
vt 0.08066273 0.2515717
vt 0.08066273 0.2515717
vt 0.08066273 0.2515717
vt 0.3402331 0.311006
vt 0.3402331 0.311006
vt 0.3402331 0.3110061
vt 0.3402331 0.311006
vt 0.3402331 0.311006
vt 0.3402331 0.311006
vt 0.3402331 0.311006
vt 0.3402331 0.311006
vn 0.9696256 0.1088971 0.2190152
vn 0.9696256 0.1088971 0.2190152
vn 0.9696256 0.1088971 0.2190152
vn 0.944047 0.2080076 -0.2559452
vn 0.944047 0.2080076 -0.2559452
vn 0.944047 0.2080076 -0.2559452
vn 0.02903389 -0.974723 0.2215218
vn 0.02903389 -0.974723 0.2215218
vn 0.02903389 -0.974723 0.2215218
vn -0.9046528 0.2952121 -0.3073321
vn -0.9046528 0.2952121 -0.3073321
vn -0.9046528 0.2952121 -0.3073322
vn -0.924208 0.2863089 -0.252719
vn -0.924208 0.2863089 -0.252719
vn -0.924208 0.2863089 -0.252719
vn -0.8355612 0.5455127 -0.06521805
vn -0.8355612 0.5455127 -0.06521805
vn -0.8355612 0.5455127 -0.06521805
vn -0.6007949 0.7734114 -0.2021887
vn -0.6007947 0.7734115 -0.2021888
vn -0.6007949 0.7734114 -0.2021888
vn -0.5359647 0.8047105 -0.2553091
vn -0.5359647 0.8047105 -0.2553091
vn -0.5359647 0.8047105 -0.2553091
vn -0.4891106 0.7634246 -0.4218455
vn -0.4891106 0.7634246 -0.4218455
vn -0.4891106 0.7634246 -0.4218455
vn -0.2350546 -0.3284346 -0.9148115
vn -0.2350546 -0.3284346 -0.9148115
vn -0.2350546 -0.3284346 -0.9148115
vn -0.3860412 0.4490303 0.8058187
vn -0.3860412 0.4490303 0.8058187
vn -0.3860412 0.4490303 0.8058187
vn 0.8874737 0.4516275 0.09177717
vn 0.8874737 0.4516276 0.09177717
vn 0.8874737 0.4516275 0.09177717
vn 0.05225625 0.3884745 -0.9199765
vn 0.05225625 0.3884745 -0.9199765
vn 0.05225625 0.3884745 -0.9199766
vn -0.1526943 0.0839057 -0.9847052
vn -0.1526943 0.08390568 -0.9847052
vn -0.1526943 0.0839057 -0.9847052
vn -0.4932339 0.5845566 0.6442158
vn -0.4932339 0.5845566 0.6442158
vn -0.4932339 0.5845565 0.6442158
vn -0.3878231 0.5535576 0.7369988
vn -0.387823 0.5535576 0.7369988
vn -0.3878231 0.5535576 0.7369988
vn 0.4695476 -0.8359804 0.2840105
vn 0.4695476 -0.8359802 0.2840105
vn 0.4695476 -0.8359802 0.2840104
vn -0.413783 0.3672583 0.8330096
vn -0.4137829 0.3672583 0.8330097
vn -0.413783 0.3672583 0.8330096
vn 0.03226389 0.9643345 0.2627126
vn 0.0322639 0.9643345 0.2627126
vn 0.0322639 0.9643345 0.2627126
vn 0.1905871 0.9709918 -0.1444003
vn 0.1905871 0.9709918 -0.1444003
vn 0.1905871 0.9709918 -0.1444003
vn -0.2415037 0.9500672 -0.1976066
vn -0.2415037 0.9500672 -0.1976065
vn -0.2415037 0.9500672 -0.1976065
vn -0.1769411 0.9805541 -0.08488517
vn -0.1769411 0.9805541 -0.08488517
vn -0.1769411 0.9805541 -0.08488517
vn 0.04995146 0.9982203 -0.03257369
vn 0.04995146 0.9982203 -0.03257369
vn 0.04995145 0.9982203 -0.03257369
vn 0.1952035 0.9417393 -0.2739027
vn 0.1952035 0.9417393 -0.2739027
vn 0.1952035 0.9417393 -0.2739028
vn -0.0852663 0.8695657 -0.4864002
vn -0.0852663 0.8695657 -0.4864002
vn -0.0852663 0.8695657 -0.4864002
vn -0.1831833 0.8876364 -0.4225464
vn -0.1831833 0.8876364 -0.4225464
vn -0.1831833 0.8876364 -0.4225465
vn 0.9842949 -0.07461662 0.159987
vn 0.9842949 -0.07461662 0.159987
vn 0.9842949 -0.07461662 0.159987
vn -0.05911087 0.3460274 -0.9363605
vn -0.05911088 0.3460274 -0.9363605
vn -0.05911087 0.3460274 -0.9363605
vn 0.908367 0.3850215 0.1631801
vn 0.908367 0.3850215 0.16318
vn 0.908367 0.3850215 0.16318
vn -0.8890321 0.4520392 -0.0726806
vn -0.8890321 0.4520392 -0.07268059
vn -0.8890322 0.4520392 -0.07268061
vn -0.3339506 -0.4183732 0.8446543
vn -0.3339507 -0.4183732 0.8446543
vn -0.3339506 -0.4183732 0.8446543
vn -0.07215562 -0.2340244 -0.9695495
vn -0.07215562 -0.2340244 -0.9695495
vn -0.07215561 -0.2340244 -0.9695495
vn 0.9920495 -0.1255779 0.008241689
vn 0.9920495 -0.1255779 0.008241687
vn 0.9920495 -0.1255779 0.008241689
vn 0.2474744 -0.06853945 -0.9664671
vn 0.2474744 -0.06853945 -0.9664671
vn 0.2474744 -0.06853945 -0.9664671
vn 0.2474744 -0.06853945 -0.9664671
vn -0.2431144 -0.2642131 -0.9333203
vn -0.2431144 -0.2642131 -0.9333203
vn -0.2431144 -0.2642131 -0.9333203
vn -0.2431144 -0.2642131 -0.9333203
vn -0.9173639 -0.3979299 -0.009757078
vn -0.9173639 -0.3979299 -0.009757077
vn -0.9173639 -0.3979299 -0.009757077
vn -0.9173639 -0.3979299 -0.009757077
vn -0.9773495 0.04438783 0.2069247
vn -0.9773495 0.04438784 0.2069248
vn -0.9773495 0.04438782 0.2069247
vn -0.9773495 0.04438783 0.2069247
vn -0.9698341 0.05477045 0.2375332
vn -0.287151 0.3043346 0.9082537
vn -0.287151 0.3043346 0.9082537
vn -0.287151 0.3043346 0.9082537
vn -0.287151 0.3043346 0.9082537
vn 0.2628233 0.3171277 0.9112376
vn 0.2628233 0.3171276 0.9112376
vn 0.2628233 0.3171276 0.9112376
vn 0.2628233 0.3171277 0.9112376
vn -0.02949943 -0.9747154 0.2214944
vn -0.02949943 -0.9747154 0.2214944
vn -0.02949943 -0.9747154 0.2214944
vn 0 -0.9811047 0.1934775
vn 0 -0.9811054 0.1934744
vn 0.01614002 -0.9777271 0.209259
vn -0.0161401 -0.9777271 0.209259
vn -0.005722221 -0.9799661 0.199082
vn -0.005203703 -0.9820754 0.1884169
vn -0.5653001 0.6345075 -0.5271015
vn -0.5653001 0.6345075 -0.5271015
vn -0.5653001 0.6345075 -0.5271015
vn -0.5513034 0.6513873 -0.5213053
vn 0.1303376 0.2465592 -0.9603233
vn 0.1303376 0.2465592 -0.9603233
vn 0.1303376 0.2465592 -0.9603233
vn 0.1303376 0.2465592 -0.9603233
vn 0.6431882 -0.7515455 0.146589
vn 0.6431883 -0.7515454 0.146589
vn 0.6431882 -0.7515455 0.146589
vn 0.6431882 -0.7515455 0.146589
vn 0.2481904 0.4218723 0.8720236
vn 0.2481903 0.4218723 0.8720236
vn 0.2481904 0.4218723 0.8720237
vn 0.255951 0.4106663 0.8751242
vn 0.8649226 0.4117986 -0.2869333
vn 0.8649226 0.4117986 -0.2869333
vn 0.8649226 0.4117986 -0.2869333
vn 0.8649226 0.4117986 -0.2869333
vn -0.3612684 -0.8843488 -0.2956559
vn -0.3612684 -0.8843488 -0.2956559
vn -0.3612684 -0.8843488 -0.2956559
vn -0.3612684 -0.8843488 -0.2956559
vn -0.1391375 -0.9746881 0.1749973
vn -0.1391375 -0.9746881 0.1749973
vn -0.1391375 -0.9746881 0.1749973
vn -0.1391375 -0.9746881 0.1749973
vn -0.4906399 0.4480568 0.7473404
vn -0.4906399 0.4480568 0.7473404
vn -0.4906399 0.4480568 0.7473404
vn -0.4906399 0.4480568 0.7473404
vn -0.486937 0.4201396 0.7657512
vn 0.4785104 -0.8186589 0.3175299
vn 0.4785104 -0.818659 0.3175299
vn 0.4785104 -0.8186589 0.3175299
vn 0.4785104 -0.8186589 0.3175299
vn 0.230573 -0.1882631 -0.9546691
vn 0.2305729 -0.1882631 -0.9546691
vn 0.2305729 -0.1882631 -0.9546691
vn 0.230573 -0.1882631 -0.9546691
vn -0.2457868 -0.1875412 -0.9510085
vn -0.2457868 -0.1875412 -0.9510085
vn -0.2457868 -0.1875412 -0.9510085
vn -0.2457868 -0.1875412 -0.9510085
vn -0.9965222 -0.01612216 -0.08175328
vn -0.9965222 -0.01612216 -0.08175328
vn -0.9965222 -0.01612216 -0.08175328
vn -0.9965222 -0.01612216 -0.08175328
vn -0.9839196 0.03455725 0.1752375
vn -0.9839196 0.03455725 0.1752375
vn -0.9839196 0.03455725 0.1752375
vn -0.9839196 0.03455725 0.1752375
vn -0.2742649 0.1860563 0.9434839
vn -0.2742649 0.1860563 0.9434839
vn -0.2742649 0.1860563 0.9434839
vn -0.2742649 0.1860563 0.9434839
vn 0.2742645 0.1860566 0.9434839
vn 0.2742645 0.1860566 0.9434839
vn 0.2742645 0.1860566 0.9434839
vn 0.2742646 0.1860566 0.9434839
vn 0.9897753 0.02759655 0.1399402
vn 0.9897753 0.02759655 0.1399402
vn 0.9897753 0.02759655 0.1399402
vn 0.9897753 0.02759655 0.1399402
vn 0.9998771 -0.003033741 -0.01538375
vn 0.9998771 -0.003033741 -0.01538375
vn 0.9998771 -0.003033741 -0.01538375
vn 0.9998771 -0.003033741 -0.01538375
vn -0.3365833 0.8093207 0.4813643
vn -0.3365833 0.8093207 0.4813643
vn -0.3365833 0.8093207 0.4813643
vn -0.3365833 0.8093207 0.4813643
vn -0.5401829 -0.2779911 0.7943069
vn -0.540183 -0.2779911 0.7943069
vn -0.5401829 -0.2779911 0.7943069
vn -0.540183 -0.2779911 0.7943069
g SM_Char_Attach_British_Beret_01_0
f 3/3/3 2/2/2 1/1/1
f 6/6/6 5/5/5 4/4/4
f 9/9/9 8/8/8 7/7/7
f 12/12/12 11/11/11 10/10/10
f 15/15/15 14/14/14 13/13/13
f 18/18/18 17/17/17 16/16/16
f 21/21/21 20/20/20 19/19/19
f 24/24/24 23/23/23 22/22/22
f 27/27/27 26/26/26 25/25/25
f 30/30/30 29/29/29 28/28/28
f 33/33/33 32/32/32 31/31/31
f 36/36/36 35/35/35 34/34/34
f 39/39/39 38/38/38 37/37/37
f 42/42/42 41/41/41 40/40/40
f 45/45/45 44/44/44 43/43/43
f 48/48/48 47/47/47 46/46/46
f 51/51/51 50/50/50 49/49/49
f 54/54/54 53/53/53 52/52/52
f 57/57/57 56/56/56 55/55/55
f 60/60/60 59/59/59 58/58/58
f 63/63/63 62/62/62 61/61/61
f 66/66/66 65/65/65 64/64/64
f 69/69/69 68/68/68 67/67/67
f 72/72/72 71/71/71 70/70/70
f 75/75/75 74/74/74 73/73/73
f 78/78/78 77/77/77 76/76/76
f 81/81/81 80/80/80 79/79/79
f 84/84/84 83/83/83 82/82/82
f 87/87/87 86/86/86 85/85/85
f 90/90/90 89/89/89 88/88/88
f 93/93/93 92/92/92 91/91/91
f 96/96/96 95/95/95 94/94/94
f 99/99/99 98/98/98 97/97/97
f 102/102/102 101/101/101 100/100/100
f 103/103/103 102/102/102 100/100/100
f 106/106/106 105/105/105 104/104/104
f 107/107/107 106/106/106 104/104/104
f 110/110/110 109/109/109 108/108/108
f 111/111/111 110/110/110 108/108/108
f 114/114/114 113/113/113 112/112/112
f 113/113/113 115/115/115 112/112/112
f 113/113/113 116/116/116 115/115/115
f 119/119/119 118/118/118 117/117/117
f 120/120/120 119/119/119 117/117/117
f 123/123/123 122/122/122 121/121/121
f 124/124/124 123/123/123 121/121/121
f 127/127/127 126/126/126 125/125/125
f 125/125/125 126/126/126 128/128/128
f 128/128/128 126/126/126 129/129/129
f 129/129/129 126/126/126 130/130/130
f 130/130/130 126/126/126 131/131/131
f 131/131/131 126/126/126 132/132/132
f 132/132/132 126/126/126 133/133/133
f 136/136/136 135/135/135 134/134/134
f 137/137/137 135/135/135 136/136/136
f 140/140/140 139/139/139 138/138/138
f 141/141/141 140/140/140 138/138/138
f 144/144/144 143/143/143 142/142/142
f 145/145/145 144/144/144 142/142/142
f 148/148/148 147/147/147 146/146/146
f 147/147/147 149/149/149 146/146/146
f 152/152/152 151/151/151 150/150/150
f 153/153/153 152/152/152 150/150/150
f 156/156/156 155/155/155 154/154/154
f 157/157/157 156/156/156 154/154/154
f 160/160/160 159/159/159 158/158/158
f 161/161/161 160/160/160 158/158/158
f 164/164/164 163/163/163 162/162/162
f 165/165/165 164/164/164 162/162/162
f 166/166/166 164/164/164 165/165/165
f 169/169/169 168/168/168 167/167/167
f 170/170/170 169/169/169 167/167/167
f 173/173/173 172/172/172 171/171/171
f 174/174/174 173/173/173 171/171/171
f 177/177/177 176/176/176 175/175/175
f 178/178/178 177/177/177 175/175/175
f 181/181/181 180/180/180 179/179/179
f 182/182/182 181/181/181 179/179/179
f 185/185/185 184/184/184 183/183/183
f 186/186/186 185/185/185 183/183/183
f 189/189/189 188/188/188 187/187/187
f 190/190/190 189/189/189 187/187/187
f 193/193/193 192/192/192 191/191/191
f 194/194/194 193/193/193 191/191/191
f 197/197/197 196/196/196 195/195/195
f 198/198/198 197/197/197 195/195/195
f 201/201/201 200/200/200 199/199/199
f 202/202/202 201/201/201 199/199/199
f 205/205/205 204/204/204 203/203/203
f 206/206/206 205/205/205 203/203/203
f 209/209/209 208/208/208 207/207/207
f 210/210/210 209/209/209 207/207/207
