g SM_Chr_Attach_Brute_Hair_01
v 0.001357497 0.1038942 0.1307986
v 0.001357497 0.1584377 -0.08594562
v 0.001357497 0.2117952 -0.009542016
v 0.001357497 0.06527481 -0.1130186
v 0.001357497 0.1933424 0.07069504
v 0.001357497 0.154778 0.1582052
v 0.0393663 0.1539804 -0.07348245
v 0.0395108 0.07378708 -0.09319967
v -0.03320791 0.1810011 0.06004537
v -0.03287783 0.1947255 -0.001484127
v -0.0341464 0.1456665 -0.07285933
v -0.03156732 0.07146759 -0.1014237
v -0.0005790247 0.03411056 -0.07074428
v -0.0005790247 0.0408641 -0.088488
v -0.02298235 0.04923935 -0.08485335
v -0.0215634 0.04238144 -0.06632822
v 0.02521297 0.04839203 -0.08152584
v 0.02961824 0.04652481 -0.0589351
v 0.04179794 0.1791347 0.06833039
v 0.04140827 0.1926636 -0.001151171
v 0.02430574 0.1125697 0.1301113
v 0.02696199 0.1420741 0.1309524
v -0.0213847 0.1429628 0.1313228
v -0.01890129 0.1133473 0.1304665
v -0.03919815 0.1203212 0.10759
v -0.04167862 0.1507301 0.1098097
v 0.04398834 0.1197475 0.1073582
v 0.04593368 0.1488991 0.1083146
v 0.001357497 0.1975899 0.1488639
v -0.04167862 0.1686208 0.09829403
v -0.0213847 0.1786781 0.1198072
v 0.02696199 0.1709376 0.1194368
v 0.04593368 0.1667885 0.09679898
v 0.04599617 0.06847809 -0.06628978
v 0.04616218 0.141628 -0.06489874
v 0.04521297 0.1504152 0.07553441
v 0.05068954 0.1727727 -0.002304087
v 0.04521297 0.1345778 0.08959462
v -0.03749893 0.141524 -0.06219469
v -0.03596966 0.07319458 -0.06668729
v -0.04155266 0.1747859 -0.002464933
v -0.04348526 0.1501894 0.07557057
v -0.04136417 0.1300734 0.08356782
v 0.002912185 0.09010315 0.02952643
v 0.0393663 0.1539804 -0.07348245
v 0.001357497 0.1584377 -0.08594562
v 0.001357497 0.2117952 -0.009542016
v 0.04140827 0.1926636 -0.001151171
v 0.001357497 0.1933424 0.07069504
v 0.04179794 0.1791347 0.06833039
v 0.001357497 0.1933424 0.07069504
v 0.001357497 0.1975899 0.1488639
v 0.001357497 0.2117952 -0.009542016
v 0.001357497 0.1933424 0.07069504
v -0.03320791 0.1810011 0.06004537
v 0.001357497 0.1584377 -0.08594562
v 0.001357497 0.2117952 -0.009542016
v -0.03287783 0.1947255 -0.001484127
v 0.001357497 0.06527481 -0.1130186
v 0.001357497 0.1584377 -0.08594562
v -0.0341464 0.1456665 -0.07285933
v -0.0005790247 0.03411056 -0.07074428
v -0.0005790247 0.0408641 -0.088488
v 0.04179794 0.1791347 0.06833039
v 0.001357497 0.1975899 0.1488639
v 0.001357497 0.06527481 -0.1130186
v -0.0005790247 0.0408641 -0.088488
v 0.02521297 0.04839203 -0.08152584
v 0.0395108 0.07378708 -0.09319967
v -0.03156732 0.07146759 -0.1014237
v -0.02298235 0.04923935 -0.08485335
v -0.0005790247 0.0408641 -0.088488
v 0.001357497 0.06527481 -0.1130186
v 0.001357497 0.1038942 0.1307986
v 0.001357497 0.154778 0.1582052
v 0.02430574 0.1125697 0.1301113
v 0.02696199 0.1420741 0.1309524
v -0.0213847 0.1429628 0.1313228
v -0.01890129 0.1133473 0.1304665
v -0.0213847 0.1786781 0.1198072
v -0.03320791 0.1810011 0.06004537
v -0.0213847 0.1429628 0.1313228
v -0.0213847 0.1786781 0.1198072
v 0.001357497 0.1975899 0.1488639
v 0.001357497 0.154778 0.1582052
v 0.001357497 0.154778 0.1582052
v 0.001357497 0.1975899 0.1488639
v 0.02696199 0.1709376 0.1194368
v 0.02696199 0.1420741 0.1309524
v -0.04167862 0.1507301 0.1098097
v -0.04167862 0.1686208 0.09829403
v -0.0213847 0.1786781 0.1198072
v -0.0213847 0.1429628 0.1313228
v 0.02696199 0.1420741 0.1309524
v 0.02696199 0.1709376 0.1194368
v 0.04593368 0.1667885 0.09679898
v 0.04593368 0.1488991 0.1083146
v 0.0395108 0.07378708 -0.09319967
v 0.0393663 0.1539804 -0.07348245
v 0.02521297 0.04839203 -0.08152584
v 0.02961824 0.04652481 -0.0589351
v 0.04599617 0.06847809 -0.06628978
v 0.0395108 0.07378708 -0.09319967
v 0.04140827 0.1926636 -0.001151171
v 0.04179794 0.1791347 0.06833039
v 0.0393663 0.1539804 -0.07348245
v 0.04616218 0.141628 -0.06489874
v 0.05068954 0.1727727 -0.002304087
v 0.04140827 0.1926636 -0.001151171
v 0.04593368 0.1488991 0.1083146
v 0.04398834 0.1197475 0.1073582
v 0.04593368 0.1667885 0.09679898
v 0.04521297 0.1504152 0.07553441
v 0.04521297 0.1345778 0.08959462
v 0.04593368 0.1488991 0.1083146
v 0.04179794 0.1791347 0.06833039
v 0.04521297 0.1504152 0.07553441
v 0.04593368 0.1667885 0.09679898
v -0.0341464 0.1456665 -0.07285933
v -0.03156732 0.07146759 -0.1014237
v -0.03156732 0.07146759 -0.1014237
v -0.03596966 0.07319458 -0.06668729
v -0.0215634 0.04238144 -0.06632822
v -0.02298235 0.04923935 -0.08485335
v -0.03287783 0.1947255 -0.001484127
v -0.03749893 0.141524 -0.06219469
v -0.0341464 0.1456665 -0.07285933
v -0.03320791 0.1810011 0.06004537
v -0.04155266 0.1747859 -0.002464933
v -0.03287783 0.1947255 -0.001484127
v -0.03919815 0.1203212 0.10759
v -0.04167862 0.1507301 0.1098097
v -0.04167862 0.1507301 0.1098097
v -0.04136417 0.1300734 0.08356782
v -0.04348526 0.1501894 0.07557057
v -0.04167862 0.1686208 0.09829403
v -0.04167862 0.1686208 0.09829403
v -0.04348526 0.1501894 0.07557057
v -0.03320791 0.1810011 0.06004537
v -0.0005790247 0.03411056 -0.07074428
v 0.02961824 0.04652481 -0.0589351
v -0.0215634 0.04238144 -0.06632822
v 0.002912185 0.09010315 0.02952643
v -0.0005790247 0.03411056 -0.07074428
v 0.02430574 0.1125697 0.1301113
v 0.002912185 0.09010315 0.02952643
v 0.001357497 0.1038942 0.1307986
v 0.001357497 0.1038942 0.1307986
v 0.002912185 0.09010315 0.02952643
v -0.01890129 0.1133473 0.1304665
v -0.03919815 0.1203212 0.10759
v 0.04398834 0.1197475 0.1073582
v 0.002912185 0.09010315 0.02952643
v 0.02430574 0.1125697 0.1301113
v 0.04599617 0.06847809 -0.06628978
v 0.002912185 0.09010315 0.02952643
v 0.04616218 0.141628 -0.06489874
v 0.02961824 0.04652481 -0.0589351
v 0.002912185 0.09010315 0.02952643
v 0.04599617 0.06847809 -0.06628978
v 0.05068954 0.1727727 -0.002304087
v 0.002912185 0.09010315 0.02952643
v 0.04521297 0.1504152 0.07553441
v 0.04616218 0.141628 -0.06489874
v 0.002912185 0.09010315 0.02952643
v 0.05068954 0.1727727 -0.002304087
v 0.04521297 0.1345778 0.08959462
v 0.002912185 0.09010315 0.02952643
v 0.04398834 0.1197475 0.1073582
v 0.04521297 0.1504152 0.07553441
v 0.002912185 0.09010315 0.02952643
v 0.04521297 0.1345778 0.08959462
v -0.03749893 0.141524 -0.06219469
v 0.002912185 0.09010315 0.02952643
v -0.03596966 0.07319458 -0.06668729
v -0.03596966 0.07319458 -0.06668729
v 0.002912185 0.09010315 0.02952643
v -0.0215634 0.04238144 -0.06632822
v -0.04155266 0.1747859 -0.002464933
v 0.002912185 0.09010315 0.02952643
v -0.03749893 0.141524 -0.06219469
v -0.04348526 0.1501894 0.07557057
v 0.002912185 0.09010315 0.02952643
v -0.04155266 0.1747859 -0.002464933
v -0.03919815 0.1203212 0.10759
v 0.002912185 0.09010315 0.02952643
v -0.04136417 0.1300734 0.08356782
v -0.04136417 0.1300734 0.08356782
v 0.002912185 0.09010315 0.02952643
v -0.04348526 0.1501894 0.07557057
vt 0.05012388 0.1979685
vt 0.05012388 0.1979685
vt 0.05012388 0.1979685
vt 0.05012388 0.1979685
vt 0.05012388 0.1979685
vt 0.05012388 0.1979685
vt 0.05012388 0.1979685
vt 0.05012388 0.1979685
vt 0.05012388 0.1979685
vt 0.05012388 0.1979685
vt 0.05012388 0.1979685
vt 0.05012388 0.1979685
vt 0.05012388 0.1979685
vt 0.05012388 0.1979685
vt 0.05012388 0.1979685
vt 0.05012388 0.1979685
vt 0.05012388 0.1979685
vt 0.05012388 0.1979685
vt 0.05012388 0.1979685
vt 0.05012388 0.1979685
vt 0.05012388 0.1979685
vt 0.05012388 0.1979685
vt 0.05012388 0.1979685
vt 0.05012388 0.1979685
vt 0.05012388 0.1979685
vt 0.05012388 0.1979685
vt 0.05012388 0.1979685
vt 0.05012388 0.1979685
vt 0.05012388 0.1979685
vt 0.05012388 0.1979685
vt 0.05012388 0.1979685
vt 0.05012388 0.1979685
vt 0.05012388 0.1979685
vt 0.05012388 0.1979685
vt 0.05012388 0.1979685
vt 0.05012388 0.1979685
vt 0.05012388 0.1979685
vt 0.05012388 0.1979685
vt 0.05012388 0.1979685
vt 0.05012388 0.1979685
vt 0.05012388 0.1979685
vt 0.05012388 0.1979685
vt 0.05012388 0.1979685
vt 0.05012388 0.1979685
vt 0.05012388 0.1979685
vt 0.05012388 0.1979685
vt 0.05012388 0.1979685
vt 0.05012388 0.1979685
vt 0.05012388 0.1979685
vt 0.05012388 0.1979685
vt 0.05012388 0.1979685
vt 0.05012388 0.1979685
vt 0.05012388 0.1979685
vt 0.05012388 0.1979685
vt 0.05012388 0.1979685
vt 0.05012388 0.1979685
vt 0.05012388 0.1979685
vt 0.05012388 0.1979685
vt 0.05012388 0.1979685
vt 0.05012388 0.1979685
vt 0.05012388 0.1979685
vt 0.05012388 0.1979685
vt 0.05012388 0.1979685
vt 0.05012388 0.1979685
vt 0.05012388 0.1979685
vt 0.05012388 0.1979685
vt 0.05012388 0.1979685
vt 0.05012388 0.1979685
vt 0.05012388 0.1979685
vt 0.05012388 0.1979685
vt 0.05012388 0.1979685
vt 0.05012388 0.1979685
vt 0.05012388 0.1979685
vt 0.05012388 0.1979685
vt 0.05012388 0.1979685
vt 0.05012388 0.1979685
vt 0.05012388 0.1979685
vt 0.05012388 0.1979685
vt 0.05012388 0.1979685
vt 0.05012388 0.1979685
vt 0.05012388 0.1979685
vt 0.05012388 0.1979685
vt 0.05012388 0.1979685
vt 0.05012388 0.1979685
vt 0.05012388 0.1979685
vt 0.05012388 0.1979685
vt 0.05012388 0.1979685
vt 0.05012388 0.1979685
vt 0.05012388 0.1979685
vt 0.05012388 0.1979685
vt 0.05012388 0.1979685
vt 0.05012388 0.1979685
vt 0.05012388 0.1979685
vt 0.05012388 0.1979685
vt 0.05012388 0.1979685
vt 0.05012388 0.1979685
vt 0.05012388 0.1979685
vt 0.05012388 0.1979685
vt 0.05012388 0.1979685
vt 0.05012388 0.1979685
vt 0.05012388 0.1979685
vt 0.05012388 0.1979685
vt 0.05012388 0.1979685
vt 0.05012388 0.1979685
vt 0.05012388 0.1979685
vt 0.05012388 0.1979685
vt 0.05012388 0.1979685
vt 0.05012388 0.1979685
vt 0.05012388 0.1979685
vt 0.05012388 0.1979685
vt 0.05012388 0.1979685
vt 0.05012388 0.1979685
vt 0.05012388 0.1979685
vt 0.05012388 0.1979685
vt 0.05012388 0.1979685
vt 0.05012388 0.1979685
vt 0.05012388 0.1979685
vt 0.05012388 0.1979685
vt 0.05012388 0.1979685
vt 0.05012388 0.1979685
vt 0.05012388 0.1979685
vt 0.05012388 0.1979685
vt 0.05012388 0.1979685
vt 0.05012388 0.1979685
vt 0.05012388 0.1979685
vt 0.05012388 0.1979685
vt 0.05012388 0.1979685
vt 0.05012388 0.1979685
vt 0.05012388 0.1979685
vt 0.05012388 0.1979685
vt 0.05012388 0.1979685
vt 0.05012388 0.1979685
vt 0.05012388 0.1979685
vt 0.05012388 0.1979685
vt 0.05012388 0.1979685
vt 0.05012388 0.1979685
vt 0.05012388 0.1979685
vt 0.05012388 0.1979685
vt 0.05012388 0.1979685
vt 0.05012388 0.1979685
vt 0.05012388 0.1979685
vt 0.05012388 0.1979685
vt 0.05012388 0.1979685
vt 0.05012388 0.1979685
vt 0.05012388 0.1979685
vt 0.05012388 0.1979685
vt 0.05012388 0.1979685
vt 0.05012388 0.1979685
vt 0.05012388 0.1979685
vt 0.05012388 0.1979685
vt 0.05012388 0.1979685
vt 0.05012388 0.1979685
vt 0.05012388 0.1979685
vt 0.05012388 0.1979685
vt 0.05012388 0.1979685
vt 0.05012388 0.1979685
vt 0.05012388 0.1979685
vt 0.05012388 0.1979685
vt 0.05012388 0.1979685
vt 0.05012388 0.1979685
vt 0.05012388 0.1979685
vt 0.05012388 0.1979685
vt 0.05012388 0.1979685
vt 0.05012388 0.1979685
vt 0.05012388 0.1979685
vt 0.05012388 0.1979685
vt 0.05012388 0.1979685
vt 0.05012388 0.1979685
vt 0.05012388 0.1979685
vt 0.05012388 0.1979685
vt 0.05012388 0.1979685
vt 0.05012388 0.1979685
vt 0.05012388 0.1979685
vt 0.05012388 0.1979685
vt 0.05012388 0.1979685
vt 0.05012388 0.1979685
vt 0.05012388 0.1979685
vt 0.05012388 0.1979685
vt 0.05012388 0.1979685
vt 0.05012388 0.1979685
vt 0.05012388 0.1979685
vt 0.05012388 0.1979685
vt 0.05012388 0.1979685
vt 0.05012388 0.1979685
vt 0.05012388 0.1979685
vt 0.05012388 0.1979685
vt 0.05012388 0.1979685
vt 0.05012388 0.1979685
vt 0.05012388 0.1979685
vt 0.05012388 0.1979685
vn -0.4981413 -0.3008842 0.8132183
vn 0.3696774 0.787832 -0.4926046
vn 0.3696774 0.787832 -0.4926046
vn 0.3676128 0.2426224 -0.8977724
vn 0.3630049 0.911422 0.1937457
vn -0.4981413 -0.3008842 0.8132183
vn 0.3696774 0.787832 -0.4926046
vn 0.3676128 0.2426224 -0.8977724
vn -0.4946568 0.8685606 0.0302829
vn -0.3913524 0.8976116 0.202822
vn -0.4643941 0.729769 -0.5017721
vn -0.3492437 0.2907478 -0.8907831
vn 0.3946963 -0.8887608 -0.2330647
vn 0.3946963 -0.8887608 -0.2330647
vn -0.3901568 -0.866958 -0.3100993
vn -0.3901568 -0.866958 -0.3100993
vn 0.3946963 -0.8887607 -0.2330647
vn 0.3946963 -0.8887607 -0.2330647
vn 0.3630049 0.911422 0.1937457
vn 0.3696774 0.787832 -0.4926046
vn 0.4550733 -0.3085494 0.8352877
vn 0.4550733 -0.3085494 0.8352877
vn -0.4981413 -0.3008842 0.8132183
vn -0.4981412 -0.3008842 0.8132182
vn -0.7502035 -0.09556857 0.654264
vn -0.7502035 -0.09556857 0.654264
vn 0.770936 -0.07984506 0.631888
vn 0.770936 -0.07984506 0.631888
vn 0.3283601 0.9431613 -0.05124824
vn -0.5562006 0.8188495 0.1418676
vn -0.4946568 0.8685606 0.0302829
vn 0.7591528 0.5712621 0.3120042
vn 0.7591528 0.5712621 0.3120041
vn 0.9428102 0.04532566 -0.3302338
vn 0.9428102 0.04532566 -0.3302338
vn 0.9599403 0.2628175 0.09716728
vn 0.9599403 0.2628175 0.09716728
vn 0.9976704 -0.06699789 0.01284531
vn -0.9857621 0.01050781 -0.1678172
vn -0.9857621 0.01050781 -0.1678172
vn -0.9034785 0.3541016 -0.2415337
vn -0.9248934 0.3702195 0.08665787
vn -0.9948401 -0.08517332 0.05512487
vn 0.1686348 -0.8630794 0.4760842
vn 0.3676128 0.2426224 -0.8977724
vn 0.3676128 0.2426224 -0.8977724
vn 0.3630049 0.911422 0.1937457
vn 0.3630049 0.911422 0.1937457
vn 0.3283601 0.9431613 -0.05124824
vn 0.3283601 0.9431613 -0.05124823
vn -0.4946568 0.8685606 0.0302829
vn -0.4946568 0.8685606 0.0302829
vn -0.3913524 0.8976116 0.202822
vn -0.3913524 0.8976116 0.202822
vn -0.3913524 0.8976116 0.202822
vn -0.4643941 0.729769 -0.5017721
vn -0.4643942 0.7297689 -0.5017721
vn -0.4643941 0.729769 -0.5017721
vn -0.3492437 0.2907478 -0.8907831
vn -0.3492436 0.2907478 -0.8907831
vn -0.3492437 0.2907478 -0.8907831
vn -0.3901568 -0.866958 -0.3100992
vn -0.3901567 -0.866958 -0.3100992
vn 0.7591528 0.5712621 0.3120041
vn 0.7591528 0.5712621 0.3120042
vn 0.4304893 -0.6183047 -0.6575548
vn 0.4304893 -0.6183046 -0.6575547
vn 0.4304893 -0.6183046 -0.6575547
vn 0.4304893 -0.6183046 -0.6575547
vn -0.3559646 -0.6459021 -0.6753516
vn -0.3559646 -0.645902 -0.6753516
vn -0.3559646 -0.6459021 -0.6753516
vn -0.3559646 -0.645902 -0.6753516
vn 0.4550733 -0.3085494 0.8352877
vn 0.4550733 -0.3085494 0.8352877
vn 0.770936 -0.07984506 0.631888
vn 0.770936 -0.07984506 0.631888
vn -0.7502035 -0.09556857 0.654264
vn -0.7502034 -0.09556857 0.654264
vn -0.5562006 0.8188495 0.1418676
vn -0.5562006 0.8188495 0.1418676
vn -0.8060776 0.1519179 0.5719789
vn -0.8060776 0.1519179 0.5719789
vn -0.8060776 0.1519179 0.5719789
vn -0.8060776 0.1519179 0.5719788
vn 0.7874365 0.172222 0.5918473
vn 0.7874365 0.172222 0.5918473
vn 0.7874365 0.172222 0.5918473
vn 0.7874365 0.172222 0.5918473
vn -0.7057809 0.2796523 0.6508979
vn -0.7057809 0.2796523 0.6508977
vn -0.7057809 0.2796523 0.6508977
vn -0.7057809 0.2796523 0.6508979
vn 0.7205817 0.3064055 0.621995
vn 0.7205817 0.3064056 0.621995
vn 0.7205816 0.3064056 0.621995
vn 0.7205817 0.3064055 0.621995
vn 0.9428102 0.04532566 -0.3302338
vn 0.9428102 0.04532566 -0.3302338
vn 0.76196 -0.5957341 -0.2540036
vn 0.76196 -0.5957341 -0.2540037
vn 0.76196 -0.5957341 -0.2540037
vn 0.76196 -0.5957341 -0.2540037
vn 0.9599403 0.2628175 0.09716728
vn 0.9599403 0.2628176 0.09716728
vn 0.889203 0.3872136 -0.2436876
vn 0.889203 0.3872136 -0.2436876
vn 0.889203 0.3872136 -0.2436876
vn 0.889203 0.3872136 -0.2436876
vn 0.9976704 -0.06699789 0.01284531
vn 0.9976704 -0.06699789 0.01284531
vn 0.9995914 -0.01727159 -0.02277599
vn 0.9995914 -0.01727159 -0.02277599
vn 0.9995914 -0.01727159 -0.02277599
vn 0.9995914 -0.01727159 -0.02277599
vn 0.990333 0.09164117 -0.1041268
vn 0.990333 0.09164118 -0.1041268
vn 0.990333 0.09164118 -0.1041268
vn -0.9857621 0.01050781 -0.1678172
vn -0.9857621 0.01050781 -0.1678172
vn -0.9027679 -0.4203777 -0.09106437
vn -0.9027679 -0.4203777 -0.09106436
vn -0.9027679 -0.4203777 -0.09106435
vn -0.9027679 -0.4203777 -0.09106434
vn -0.9034785 0.3541017 -0.2415337
vn -0.9034785 0.3541017 -0.2415338
vn -0.9034785 0.3541016 -0.2415337
vn -0.9248934 0.3702195 0.08665787
vn -0.9248934 0.3702195 0.08665787
vn -0.9248934 0.3702195 0.08665787
vn -0.9948401 -0.08517334 0.05512488
vn -0.9948401 -0.08517334 0.05512488
vn -0.9981832 -0.02843543 0.05311863
vn -0.9981832 -0.02843543 0.05311863
vn -0.9981832 -0.02843543 0.05311863
vn -0.9981832 -0.02843543 0.05311863
vn -0.9583834 0.254181 -0.1299739
vn -0.9583834 0.2541811 -0.1299739
vn -0.9583834 0.2541811 -0.1299739
vn 0.1686348 -0.8630794 0.4760842
vn 0.1686348 -0.8630794 0.4760842
vn -0.2322584 -0.8457554 0.4803684
vn -0.2322584 -0.8457554 0.4803685
vn -0.2322584 -0.8457553 0.4803685
vn 0.353994 -0.9259528 0.1315288
vn 0.353994 -0.9259528 0.1315288
vn 0.353994 -0.9259528 0.1315288
vn -0.421556 -0.8993522 0.1160005
vn -0.4291907 -0.8960429 0.1135885
vn -0.4275731 -0.8967509 0.1141011
vn -0.4336337 -0.8940796 0.1121763
vn 0.4447506 -0.889584 0.1041023
vn 0.4447505 -0.889584 0.1041023
vn 0.4447505 -0.889584 0.1041023
vn 0.9111577 -0.009901498 0.4119388
vn 0.9111577 -0.009901499 0.4119388
vn 0.9111577 -0.009901498 0.4119388
vn 0.7816906 -0.4326981 0.4491459
vn 0.7816906 -0.4326981 0.4491459
vn 0.7816906 -0.4326981 0.4491459
vn 0.846625 -0.5243452 -0.09104027
vn 0.846625 -0.5243452 -0.09104028
vn 0.846625 -0.5243451 -0.09104025
vn 0.8800822 -0.4474209 0.1589648
vn 0.8800822 -0.4474209 0.1589648
vn 0.8800822 -0.4474209 0.1589649
vn 0.8584251 -0.4213198 -0.2925677
vn 0.8584251 -0.4213198 -0.2925678
vn 0.8584251 -0.4213198 -0.2925677
vn 0.8694497 -0.3279822 -0.3694386
vn 0.8694497 -0.3279823 -0.3694386
vn 0.8694497 -0.3279823 -0.3694386
vn -0.9233665 -0.04572849 0.3811867
vn -0.9233665 -0.04572849 0.3811867
vn -0.9233665 -0.04572849 0.3811867
vn -0.8307869 -0.3837247 0.4031728
vn -0.8307869 -0.3837247 0.4031728
vn -0.8307869 -0.3837247 0.4031728
vn -0.897508 -0.4083618 0.1664936
vn -0.897508 -0.4083617 0.1664936
vn -0.897508 -0.4083617 0.1664936
vn -0.840752 -0.5100596 -0.181591
vn -0.840752 -0.5100596 -0.181591
vn -0.840752 -0.5100596 -0.181591
vn -0.7705669 -0.6117458 -0.178868
vn -0.7705669 -0.6117458 -0.178868
vn -0.7705669 -0.6117458 -0.178868
vn -0.8335663 -0.2777368 -0.4775243
vn -0.8335663 -0.2777368 -0.4775243
vn -0.8335663 -0.2777368 -0.4775243
g SM_Chr_Attach_Brute_Hair_01_0
f 50/50/50 49/49/49 29/29/29
f 81/81/81 30/30/30 80/80/80
f 111/111/111 38/38/38 110/110/110
f 118/118/118 117/117/117 116/116/116
f 132/132/132 43/43/43 131/131/131
f 139/139/139 138/138/138 137/137/137
f 141/141/141 44/44/44 140/140/140
f 144/144/144 143/143/143 142/142/142
f 147/147/147 146/146/146 145/145/145
f 154/154/154 153/153/153 152/152/152
f 157/157/157 156/156/156 155/155/155
f 160/160/160 159/159/159 158/158/158
f 163/163/163 162/162/162 161/161/161
f 166/166/166 165/165/165 164/164/164
f 169/169/169 168/168/168 167/167/167
f 172/172/172 171/171/171 170/170/170
f 175/175/175 174/174/174 173/173/173
f 178/178/178 177/177/177 176/176/176
f 181/181/181 180/180/180 179/179/179
f 184/184/184 183/183/183 182/182/182
f 187/187/187 186/186/186 185/185/185
f 190/190/190 189/189/189 188/188/188
f 2/2/2 3/3/3 20/20/20
f 7/7/7 2/2/2 20/20/20
f 45/45/45 8/8/8 4/4/4
f 46/46/46 45/45/45 4/4/4
f 47/47/47 5/5/5 19/19/19
f 48/48/48 47/47/47 19/19/19
f 17/17/17 18/18/18 13/13/13
f 14/14/14 17/17/17 13/13/13
f 1/1/1 6/6/6 23/23/23
f 24/24/24 1/1/1 23/23/23
f 52/52/52 51/51/51 9/9/9
f 31/31/31 52/52/52 9/9/9
f 54/54/54 53/53/53 10/10/10
f 55/55/55 54/54/54 10/10/10
f 57/57/57 56/56/56 11/11/11
f 58/58/58 57/57/57 11/11/11
f 60/60/60 59/59/59 12/12/12
f 61/61/61 60/60/60 12/12/12
f 15/15/15 63/63/63 62/62/62
f 16/16/16 15/15/15 62/62/62
f 32/32/32 33/33/33 64/64/64
f 65/65/65 32/32/32 64/64/64
f 68/68/68 67/67/67 66/66/66
f 69/69/69 68/68/68 66/66/66
f 72/72/72 71/71/71 70/70/70
f 73/73/73 72/72/72 70/70/70
f 75/75/75 74/74/74 21/21/21
f 22/22/22 75/75/75 21/21/21
f 77/77/77 76/76/76 27/27/27
f 28/28/28 77/77/77 27/27/27
f 79/79/79 78/78/78 26/26/26
f 25/25/25 79/79/79 26/26/26
f 84/84/84 83/83/83 82/82/82
f 85/85/85 84/84/84 82/82/82
f 88/88/88 87/87/87 86/86/86
f 89/89/89 88/88/88 86/86/86
f 92/92/92 91/91/91 90/90/90
f 93/93/93 92/92/92 90/90/90
f 96/96/96 95/95/95 94/94/94
f 97/97/97 96/96/96 94/94/94
f 35/35/35 34/34/34 98/98/98
f 99/99/99 35/35/35 98/98/98
f 102/102/102 101/101/101 100/100/100
f 103/103/103 102/102/102 100/100/100
f 36/36/36 37/37/37 104/104/104
f 105/105/105 36/36/36 104/104/104
f 108/108/108 107/107/107 106/106/106
f 109/109/109 108/108/108 106/106/106
f 114/114/114 113/113/113 112/112/112
f 115/115/115 114/114/114 112/112/112
f 40/40/40 39/39/39 119/119/119
f 120/120/120 40/40/40 119/119/119
f 123/123/123 122/122/122 121/121/121
f 124/124/124 123/123/123 121/121/121
f 126/126/126 41/41/41 125/125/125
f 127/127/127 126/126/126 125/125/125
f 129/129/129 42/42/42 128/128/128
f 130/130/130 129/129/129 128/128/128
f 135/135/135 134/134/134 133/133/133
f 136/136/136 135/135/135 133/133/133
f 150/150/150 149/149/149 148/148/148
f 151/151/151 149/149/149 150/150/150
