g SM_Char_Attach_TopHat_01
v -0.001375732 0.1330194 -0.1331096
v -0.004051514 0.1397862 0.005627353
v 0.1005652 0.1452786 -0.09072768
v -0.1053442 0.1316231 -0.09403346
v -0.004051514 0.1397862 0.005627353
v -0.001375732 0.1330194 -0.1331096
v -0.1504346 0.1418646 0.003608971
v -0.004051514 0.1397862 0.005627353
v -0.1053442 0.1316231 -0.09403346
v -0.1081226 0.1261121 0.1017599
v -0.004051514 0.1397862 0.005627353
v -0.1504346 0.1418646 0.003608971
v -0.005303955 0.125226 0.1437843
v -0.004051514 0.1397862 0.005627353
v -0.1081226 0.1261121 0.1017599
v 0.09778687 0.1397678 0.1050657
v -0.004051514 0.1397862 0.005627353
v -0.005303955 0.125226 0.1437843
v 0.1407654 0.1611768 0.008284081
v -0.004051514 0.1397862 0.005627353
v 0.09778687 0.1397678 0.1050657
v 0.1005652 0.1452786 -0.09072768
v -0.004051514 0.1397862 0.005627353
v 0.1407654 0.1611768 0.008284081
v 0.0973584 0.1679617 -0.08448952
v 0.07955566 0.2254314 -0.07191191
v -0.00631958 0.2185039 -0.1072078
v -0.003326416 0.1569096 -0.1102661
v -0.003326416 0.1569096 -0.1102661
v -0.00631958 0.2185039 -0.1072078
v -0.09370361 0.215478 -0.07443206
v -0.1019153 0.1565144 -0.08738797
v -0.1019153 0.1565144 -0.08738797
v -0.09370361 0.215478 -0.07443206
v -0.1316614 0.2214084 0.007235325
v -0.1464392 0.1746495 0.006609792
v -0.1464392 0.1746495 0.006609792
v -0.1316614 0.2214084 0.007235325
v -0.09604125 0.2078362 0.08980441
v -0.1046045 0.1477251 0.1015085
v -0.1046045 0.1477251 0.1015085
v -0.09604125 0.2078362 0.08980441
v -0.009625244 0.2076968 0.1250577
v -0.005168457 0.1470006 0.1420517
v -0.005168457 0.1470006 0.1420517
v -0.009625244 0.2076968 0.1250577
v 0.07721802 0.2177891 0.09232456
v 0.09467041 0.1591727 0.1044071
v 0.09467041 0.1591727 0.1044071
v 0.07721802 0.2177891 0.09232456
v 0.1133643 0.235484 0.01079928
v 0.1353772 0.1908388 0.01070893
v 0.1353772 0.1908388 0.01070893
v 0.1133643 0.235484 0.01079928
v 0.07955566 0.2254314 -0.07191191
v 0.0973584 0.1679617 -0.08448952
v -0.003326416 0.1569096 -0.1102661
v -0.002463379 0.1629733 -0.1862885
v 0.1266687 0.17918 -0.1275835
v 0.0973584 0.1679617 -0.08448952
v -0.1019153 0.1565144 -0.08738797
v -0.1344141 0.1618652 -0.1317751
v -0.002463379 0.1629733 -0.1862885
v -0.003326416 0.1569096 -0.1102661
v -0.1464392 0.1746495 0.006609792
v -0.1918848 0.1764444 0.00402185
v -0.1344141 0.1618652 -0.1317751
v -0.1019153 0.1565144 -0.08738797
v -0.1046045 0.1477251 0.1015085
v -0.1382751 0.1542059 0.1403586
v -0.1918848 0.1764444 0.00402185
v -0.1464392 0.1746495 0.006609792
v -0.005168457 0.1470006 0.1420517
v -0.007923584 0.1521417 0.1985666
v -0.1382751 0.1542059 0.1403586
v -0.1046045 0.1477251 0.1015085
v 0.09467041 0.1591727 0.1044071
v 0.1228076 0.1715205 0.1445501
v -0.007923584 0.1521417 0.1985666
v -0.005168457 0.1470006 0.1420517
v 0.1353772 0.1908388 0.01070893
v 0.1773413 0.2009312 0.009949618
v 0.1228076 0.1715205 0.1445501
v 0.09467041 0.1591727 0.1044071
v 0.0973584 0.1679617 -0.08448952
v 0.1266687 0.17918 -0.1275835
v 0.1773413 0.2009312 0.009949618
v 0.1353772 0.1908388 0.01070893
v -0.1543933 0.3221835 0.00759816
v -0.1154065 0.3202074 0.1004105
v -0.09604125 0.2078362 0.08980441
v -0.1316614 0.2214084 0.007235325
v -0.1127808 0.3287898 -0.08404181
v -0.1543933 0.3221835 0.00759816
v -0.1316614 0.2214084 0.007235325
v -0.09370361 0.215478 -0.07443206
v -0.01494385 0.3361562 -0.120828
v -0.1127808 0.3287898 -0.08404181
v -0.09370361 0.215478 -0.07443206
v -0.00631958 0.2185039 -0.1072078
v 0.08180542 0.3399679 -0.08121151
v -0.01494385 0.3361562 -0.120828
v -0.00631958 0.2185039 -0.1072078
v 0.07955566 0.2254314 -0.07191191
v 0.1207922 0.3379918 0.01160084
v 0.08180542 0.3399679 -0.08121151
v 0.07955566 0.2254314 -0.07191191
v 0.1133643 0.235484 0.01079928
v 0.07917969 0.3313856 0.1032408
v 0.1207922 0.3379918 0.01160084
v 0.1133643 0.235484 0.01079928
v 0.07721802 0.2177891 0.09232456
v -0.01865723 0.324019 0.140027
v 0.07917969 0.3313856 0.1032408
v 0.07721802 0.2177891 0.09232456
v -0.009625244 0.2076968 0.1250577
v -0.1154065 0.3202074 0.1004105
v -0.01865723 0.324019 0.140027
v -0.009625244 0.2076968 0.1250577
v -0.09604125 0.2078362 0.08980441
v -0.002463379 0.1629733 -0.1862885
v -0.001920166 0.1548392 -0.1865097
v 0.1272119 0.1710463 -0.1278047
v 0.1266687 0.17918 -0.1275835
v -0.1344141 0.1618652 -0.1317751
v -0.1338708 0.1537315 -0.1319963
v -0.001920166 0.1548392 -0.1865097
v -0.002463379 0.1629733 -0.1862885
v -0.1918848 0.1764444 0.00402185
v -0.1913415 0.1683111 0.003800672
v -0.1338708 0.1537315 -0.1319963
v -0.1344141 0.1618652 -0.1317751
v -0.1382751 0.1542059 0.1403586
v -0.1377319 0.1460722 0.1401373
v -0.1913415 0.1683111 0.003800672
v -0.1918848 0.1764444 0.00402185
v -0.007923584 0.1521417 0.1985666
v -0.007380371 0.1440073 0.1983453
v -0.1377319 0.1460722 0.1401373
v -0.1382751 0.1542059 0.1403586
v 0.1228076 0.1715205 0.1445501
v 0.1233508 0.1633871 0.1443289
v -0.007380371 0.1440073 0.1983453
v -0.007923584 0.1521417 0.1985666
v 0.1773413 0.2009312 0.009949618
v 0.1778845 0.192798 0.009728424
v 0.1233508 0.1633871 0.1443289
v 0.1228076 0.1715205 0.1445501
v 0.1266687 0.17918 -0.1275835
v 0.1272119 0.1710463 -0.1278047
v 0.1778845 0.192798 0.009728424
v 0.1773413 0.2009312 0.009949618
v -0.001920166 0.1548392 -0.1865097
v -0.001375732 0.1330194 -0.1331096
v 0.1005652 0.1452786 -0.09072768
v 0.1272119 0.1710463 -0.1278047
v -0.1338708 0.1537315 -0.1319963
v -0.1053442 0.1316231 -0.09403346
v -0.001375732 0.1330194 -0.1331096
v -0.001920166 0.1548392 -0.1865097
v -0.1913415 0.1683111 0.003800672
v -0.1504346 0.1418646 0.003608971
v -0.1053442 0.1316231 -0.09403346
v -0.1338708 0.1537315 -0.1319963
v -0.1377319 0.1460722 0.1401373
v -0.1081226 0.1261121 0.1017599
v -0.1504346 0.1418646 0.003608971
v -0.1913415 0.1683111 0.003800672
v -0.007380371 0.1440073 0.1983453
v -0.005303955 0.125226 0.1437843
v -0.1081226 0.1261121 0.1017599
v -0.1377319 0.1460722 0.1401373
v 0.1233508 0.1633871 0.1443289
v 0.09778687 0.1397678 0.1050657
v -0.005303955 0.125226 0.1437843
v -0.007380371 0.1440073 0.1983453
v 0.1778845 0.192798 0.009728424
v 0.1407654 0.1611768 0.008284081
v 0.09778687 0.1397678 0.1050657
v 0.1233508 0.1633871 0.1443289
v 0.1272119 0.1710463 -0.1278047
v 0.1005652 0.1452786 -0.09072768
v 0.1407654 0.1611768 0.008284081
v 0.1778845 0.192798 0.009728424
v 0.08180542 0.3399679 -0.08121151
v 0.07066528 0.3476514 -0.07151567
v -0.01581055 0.3442445 -0.1069251
v -0.01494385 0.3361562 -0.120828
v -0.01494385 0.3361562 -0.120828
v -0.01581055 0.3442445 -0.1069251
v -0.1032581 0.3376605 -0.0740454
v -0.1127808 0.3287898 -0.08404181
v -0.1127808 0.3287898 -0.08404181
v -0.1032581 0.3376605 -0.0740454
v -0.1404517 0.3317551 0.007863186
v -0.1543933 0.3221835 0.00759816
v -0.1543933 0.3221835 0.00759816
v -0.1404517 0.3317551 0.007863186
v -0.1056042 0.3299893 0.0908198
v -0.1154065 0.3202074 0.1004105
v -0.1154065 0.3202074 0.1004105
v -0.1056042 0.3299893 0.0908198
v -0.01912842 0.333396 0.1262292
v -0.01865723 0.324019 0.140027
v -0.01865723 0.324019 0.140027
v -0.01912842 0.333396 0.1262292
v 0.06831787 0.3399805 0.09334947
v 0.07917969 0.3313856 0.1032408
v 0.07917969 0.3313856 0.1032408
v 0.06831787 0.3399805 0.09334947
v 0.1055127 0.345885 0.01144079
v 0.1207922 0.3379918 0.01160084
v 0.1207922 0.3379918 0.01160084
v 0.1055127 0.345885 0.01144079
v 0.07066528 0.3476514 -0.07151567
v 0.08180542 0.3399679 -0.08121151
v 0.07066528 0.3476514 -0.07151567
v -0.01746948 0.3388202 0.009652007
v -0.01581055 0.3442445 -0.1069251
v 0.1055127 0.345885 0.01144079
v -0.1032581 0.3376605 -0.0740454
v 0.06831787 0.3399805 0.09334947
v -0.1404517 0.3317551 0.007863186
v -0.01912842 0.333396 0.1262292
v -0.1056042 0.3299893 0.0908198
vt 0.3521139 0.38398
vt 0.352114 0.38398
vt 0.3521139 0.38398
vt 0.3521139 0.38398
vt 0.352114 0.38398
vt 0.3521139 0.38398
vt 0.3521139 0.38398
vt 0.352114 0.38398
vt 0.3521139 0.38398
vt 0.3521139 0.38398
vt 0.352114 0.38398
vt 0.3521139 0.38398
vt 0.3521139 0.38398
vt 0.352114 0.38398
vt 0.3521139 0.38398
vt 0.3521139 0.38398
vt 0.352114 0.38398
vt 0.3521139 0.38398
vt 0.3521139 0.38398
vt 0.352114 0.38398
vt 0.3521139 0.38398
vt 0.3521139 0.38398
vt 0.352114 0.38398
vt 0.3521139 0.38398
vt 0.3504639 0.3291187
vt 0.3504639 0.3291187
vt 0.3504639 0.3291187
vt 0.3504639 0.3291206
vt 0.3504639 0.3291206
vt 0.3504639 0.3291187
vt 0.3504639 0.3291187
vt 0.3504639 0.3291206
vt 0.3504639 0.3291206
vt 0.3504639 0.3291187
vt 0.3504639 0.3291187
vt 0.3504639 0.3291187
vt 0.3504639 0.3291187
vt 0.3504639 0.3291187
vt 0.3504639 0.3291187
vt 0.3504639 0.3291206
vt 0.3504639 0.3291206
vt 0.3504639 0.3291187
vt 0.3504639 0.3291187
vt 0.3504639 0.3291206
vt 0.3504639 0.3291206
vt 0.3504639 0.3291187
vt 0.3504639 0.3291187
vt 0.3504639 0.3291187
vt 0.3504639 0.3291187
vt 0.3504639 0.3291187
vt 0.3504639 0.3291187
vt 0.3504639 0.3291187
vt 0.3504639 0.3291187
vt 0.3504639 0.3291187
vt 0.3504639 0.3291187
vt 0.3504639 0.3291187
vt 0.3521139 0.38398
vt 0.3521139 0.38398
vt 0.3521139 0.38398
vt 0.3521139 0.38398
vt 0.3521139 0.38398
vt 0.3521139 0.38398
vt 0.3521139 0.38398
vt 0.3521139 0.38398
vt 0.3521139 0.38398
vt 0.3521139 0.38398
vt 0.3521139 0.38398
vt 0.3521139 0.38398
vt 0.3521139 0.38398
vt 0.3521139 0.38398
vt 0.3521139 0.38398
vt 0.3521139 0.38398
vt 0.3521139 0.38398
vt 0.3521139 0.38398
vt 0.3521139 0.38398
vt 0.3521139 0.38398
vt 0.3521139 0.38398
vt 0.3521139 0.38398
vt 0.3521139 0.38398
vt 0.3521139 0.38398
vt 0.3521139 0.38398
vt 0.3521139 0.38398
vt 0.3521139 0.38398
vt 0.3521139 0.38398
vt 0.3521139 0.38398
vt 0.3521139 0.38398
vt 0.3521139 0.38398
vt 0.3521139 0.38398
vt 0.3521139 0.38398
vt 0.3521139 0.38398
vt 0.3521139 0.38398
vt 0.3521139 0.38398
vt 0.3521139 0.38398
vt 0.3521139 0.38398
vt 0.3521139 0.38398
vt 0.3521139 0.38398
vt 0.3521139 0.38398
vt 0.3521139 0.38398
vt 0.3521139 0.38398
vt 0.3521139 0.38398
vt 0.3521139 0.38398
vt 0.3521139 0.38398
vt 0.3521139 0.38398
vt 0.3521139 0.38398
vt 0.3521139 0.38398
vt 0.3521139 0.38398
vt 0.3521139 0.38398
vt 0.3521139 0.38398
vt 0.3521139 0.38398
vt 0.3521139 0.38398
vt 0.3521139 0.38398
vt 0.3521139 0.38398
vt 0.3521139 0.38398
vt 0.3521139 0.38398
vt 0.3521139 0.38398
vt 0.3521139 0.38398
vt 0.3521139 0.38398
vt 0.3521139 0.38398
vt 0.3521139 0.38398
vt 0.3521139 0.38398
vt 0.3521139 0.38398
vt 0.3521139 0.38398
vt 0.3521139 0.38398
vt 0.3521139 0.38398
vt 0.3521139 0.38398
vt 0.3521139 0.38398
vt 0.3521139 0.38398
vt 0.3521139 0.38398
vt 0.3521139 0.38398
vt 0.3521139 0.38398
vt 0.3521139 0.38398
vt 0.3521139 0.38398
vt 0.3521139 0.38398
vt 0.3521139 0.38398
vt 0.3521139 0.38398
vt 0.3521139 0.38398
vt 0.3521139 0.38398
vt 0.3521139 0.38398
vt 0.3521139 0.38398
vt 0.3521139 0.38398
vt 0.3521139 0.38398
vt 0.3521139 0.38398
vt 0.3521139 0.38398
vt 0.3521139 0.38398
vt 0.3521139 0.38398
vt 0.3521139 0.38398
vt 0.3521139 0.38398
vt 0.3521139 0.38398
vt 0.3521139 0.38398
vt 0.3521139 0.38398
vt 0.3521139 0.38398
vt 0.3521139 0.38398
vt 0.3521139 0.38398
vt 0.3521139 0.38398
vt 0.3521139 0.38398
vt 0.3521139 0.38398
vt 0.3521139 0.38398
vt 0.3521139 0.38398
vt 0.3521139 0.38398
vt 0.3521139 0.38398
vt 0.3521139 0.38398
vt 0.3521139 0.38398
vt 0.3521139 0.38398
vt 0.3521139 0.38398
vt 0.3521139 0.38398
vt 0.3521139 0.38398
vt 0.3521139 0.38398
vt 0.3521139 0.38398
vt 0.3521139 0.38398
vt 0.3521139 0.38398
vt 0.3521139 0.38398
vt 0.3521139 0.38398
vt 0.3521139 0.38398
vt 0.3521139 0.38398
vt 0.3521139 0.38398
vt 0.3521139 0.38398
vt 0.3521139 0.38398
vt 0.3521139 0.38398
vt 0.3521139 0.38398
vt 0.3521139 0.38398
vt 0.3521139 0.38398
vt 0.3521139 0.38398
vt 0.3521139 0.38398
vt 0.3521139 0.38398
vt 0.3521139 0.38398
vt 0.3521139 0.38398
vt 0.3521139 0.38398
vt 0.3521139 0.38398
vt 0.3521139 0.38398
vt 0.3521139 0.38398
vt 0.3521139 0.38398
vt 0.3521139 0.38398
vt 0.3521139 0.38398
vt 0.3521139 0.38398
vt 0.3521139 0.38398
vt 0.3521139 0.38398
vt 0.3521139 0.38398
vt 0.3521139 0.38398
vt 0.3521139 0.38398
vt 0.3521139 0.38398
vt 0.3521139 0.38398
vt 0.3521139 0.38398
vt 0.3521139 0.38398
vt 0.3521139 0.38398
vt 0.3521139 0.38398
vt 0.3521139 0.38398
vt 0.3521139 0.38398
vt 0.3521139 0.38398
vt 0.3521139 0.38398
vt 0.3521139 0.38398
vt 0.3521139 0.38398
vt 0.3521139 0.38398
vt 0.3521139 0.38398
vt 0.3521139 0.38398
vt 0.3521139 0.38398
vt 0.3521139 0.38398
vt 0.3521139 0.38398
vt 0.3521139 0.38398
vt 0.3521139 0.38398
vt 0.3521139 0.38398
vt 0.3521139 0.38398
vt 0.3521139 0.38398
vt 0.3521139 0.38398
vt 0.3521139 0.38398
vt 0.3521139 0.38398
vn 0.09857515 -0.9938537 0.05037582
vn 0.09857515 -0.9938537 0.05037581
vn 0.09857515 -0.9938537 0.05037582
vn 0.03193868 -0.9982729 0.04930617
vn 0.03193868 -0.9982729 0.04930617
vn 0.03193868 -0.9982729 0.04930617
vn -0.01547009 -0.9951413 0.0972347
vn -0.01547008 -0.9951413 0.0972347
vn -0.01547008 -0.9951413 0.0972347
vn -0.01191344 -0.9880853 -0.1534452
vn -0.01191344 -0.9880853 -0.1534452
vn -0.01191344 -0.9880853 -0.1534452
vn 0.03412203 -0.9939455 -0.1044418
vn 0.03412203 -0.9939455 -0.1044418
vn 0.03412203 -0.9939455 -0.1044418
vn 0.1007564 -0.9895264 -0.103372
vn 0.1007564 -0.9895263 -0.103372
vn 0.1007564 -0.9895264 -0.103372
vn 0.1471575 -0.977536 -0.1508908
vn 0.1471575 -0.977536 -0.1508908
vn 0.1471575 -0.977536 -0.1508908
vn 0.1436008 -0.9845917 0.09979002
vn 0.1436008 -0.9845917 0.09979004
vn 0.1436008 -0.9845917 0.09979004
vn 0.2911282 0.1743795 -0.9406572
vn 0.2911282 0.1743795 -0.9406572
vn 0.2911282 0.1743795 -0.9406572
vn 0.2911283 0.1743795 -0.9406572
vn -0.2862735 0.1383331 -0.9481093
vn -0.2862735 0.138333 -0.9481093
vn -0.2862735 0.138333 -0.9481093
vn -0.2862735 0.138333 -0.9481093
vn -0.8644208 0.2444115 -0.4393629
vn -0.8644208 0.2444115 -0.4393629
vn -0.8644208 0.2444115 -0.4393629
vn -0.8644208 0.2444115 -0.4393629
vn -0.8700625 0.2349496 0.4333475
vn -0.8700625 0.2349496 0.4333474
vn -0.8700625 0.2349496 0.4333475
vn -0.8700625 0.2349497 0.4333475
vn -0.3668905 0.2267903 0.9021959
vn -0.3668904 0.2267903 0.9021959
vn -0.3668904 0.2267903 0.9021959
vn -0.3668904 0.2267903 0.9021959
vn 0.309559 0.2784172 0.9092069
vn 0.309559 0.2784172 0.9092067
vn 0.309559 0.2784172 0.9092067
vn 0.309559 0.2784172 0.9092069
vn 0.8112591 0.3632596 0.4581497
vn 0.8112591 0.3632595 0.4581497
vn 0.8112591 0.3632596 0.4581497
vn 0.8112591 0.3632597 0.4581497
vn 0.833318 0.3752733 -0.4058954
vn 0.833318 0.3752733 -0.4058954
vn 0.833318 0.3752733 -0.4058954
vn 0.833318 0.3752733 -0.4058954
vn -0.1545537 0.9825583 0.103404
vn -0.1545537 0.9825583 0.103404
vn -0.1545536 0.9825583 0.103404
vn -0.1545537 0.9825583 0.103404
vn 0.02315449 0.9958231 0.08831775
vn 0.0231545 0.9958231 0.08831774
vn 0.02315449 0.9958231 0.08831774
vn 0.0231545 0.9958231 0.08831775
vn 0.138232 0.9872289 -0.07919034
vn 0.138232 0.9872289 -0.07919034
vn 0.138232 0.9872289 -0.07919034
vn 0.138232 0.9872289 -0.07919034
vn 0.1658775 0.9762867 0.1391007
vn 0.1658775 0.9762867 0.1391007
vn 0.1658775 0.9762867 0.1391007
vn 0.1658775 0.9762867 0.1391007
vn 0.0550506 0.9934589 -0.1000444
vn 0.0550506 0.9934589 -0.1000444
vn 0.05505059 0.9934589 -0.1000444
vn 0.0550506 0.9934589 -0.1000444
vn -0.1842183 0.9745214 -0.127952
vn -0.1842183 0.9745214 -0.1279519
vn -0.1842184 0.9745214 -0.127952
vn -0.1842183 0.9745214 -0.127952
vn -0.3542944 0.9296731 0.100913
vn -0.3542944 0.9296731 0.100913
vn -0.3542944 0.9296731 0.100913
vn -0.3542944 0.929673 0.100913
vn -0.319447 0.9457272 -0.05961371
vn -0.319447 0.9457272 -0.05961372
vn -0.3194469 0.9457272 -0.05961372
vn -0.3194469 0.9457272 -0.05961372
vn -0.9081296 -0.1983346 0.3687333
vn -0.9081296 -0.1983346 0.3687333
vn -0.9081296 -0.1983346 0.3687333
vn -0.9081295 -0.1983346 0.3687333
vn -0.8916274 -0.1918402 -0.4101196
vn -0.8916274 -0.1918402 -0.4101196
vn -0.8916273 -0.1918402 -0.4101196
vn -0.8916274 -0.1918402 -0.4101196
vn -0.3417637 -0.1345392 -0.9301057
vn -0.3417637 -0.1345392 -0.9301057
vn -0.3417637 -0.1345392 -0.9301057
vn -0.3417637 -0.1345391 -0.9301059
vn 0.382325 -0.08037078 -0.920526
vn 0.3823249 -0.08037078 -0.920526
vn 0.382325 -0.08037078 -0.920526
vn 0.382325 -0.0803708 -0.920526
vn 0.9231676 -0.05605251 -0.3802889
vn 0.9231676 -0.05605251 -0.380289
vn 0.9231676 -0.05605251 -0.380289
vn 0.9231676 -0.05605251 -0.3802889
vn 0.9137179 -0.06148056 0.4016715
vn 0.9137177 -0.06148055 0.4016715
vn 0.9137179 -0.06148054 0.4016714
vn 0.9137179 -0.06148056 0.4016714
vn 0.3584861 -0.09354959 0.9288359
vn 0.3584861 -0.09354959 0.9288359
vn 0.3584861 -0.09354958 0.9288359
vn 0.3584861 -0.09354959 0.9288359
vn -0.3716095 -0.1486283 0.9164148
vn -0.3716095 -0.1486283 0.9164148
vn -0.3716095 -0.1486283 0.9164148
vn -0.3716095 -0.1486283 0.9164148
vn 0.407874 0.05202787 -0.9115546
vn 0.407874 0.05202787 -0.9115546
vn 0.407874 0.05202787 -0.9115546
vn 0.407874 0.05202787 -0.9115546
vn -0.3818297 -0.0003647144 -0.9242326
vn -0.3818298 -0.0003647144 -0.9242326
vn -0.3818297 -0.0003647144 -0.9242326
vn -0.3818297 -0.0003647144 -0.9242326
vn -0.9216773 -0.05109753 -0.3845776
vn -0.9216773 -0.05109753 -0.3845776
vn -0.9216773 -0.05109753 -0.3845776
vn -0.9216773 -0.05109753 -0.3845775
vn -0.9321679 -0.07190811 0.3548129
vn -0.9321679 -0.07190811 0.3548129
vn -0.9321679 -0.07190811 0.3548129
vn -0.9321679 -0.07190811 0.3548129
vn -0.4078746 -0.05203843 0.9115537
vn -0.4078747 -0.05203843 0.9115537
vn -0.4078747 -0.05203843 0.9115537
vn -0.4078747 -0.05203844 0.9115537
vn 0.3818278 0.0003584717 0.9242334
vn 0.3818279 0.0003584717 0.9242334
vn 0.3818279 0.0003584717 0.9242334
vn 0.3818279 0.0003584717 0.9242334
vn 0.9216748 0.05109767 0.3845835
vn 0.9216748 0.05109767 0.3845835
vn 0.9216748 0.05109767 0.3845835
vn 0.9216748 0.05109767 0.3845836
vn 0.9321659 0.07190616 -0.3548188
vn 0.9321659 0.07190616 -0.3548188
vn 0.9321659 0.07190617 -0.3548188
vn 0.9321659 0.07190616 -0.3548188
vn 0.2764021 -0.8811239 -0.383696
vn 0.2764021 -0.8811239 -0.383696
vn 0.2764021 -0.8811239 -0.383696
vn 0.2764021 -0.8811239 -0.383696
vn -0.145372 -0.9089367 -0.3907697
vn -0.145372 -0.9089367 -0.3907697
vn -0.145372 -0.9089367 -0.3907697
vn -0.145372 -0.9089367 -0.3907697
vn -0.516517 -0.8452368 -0.1370581
vn -0.516517 -0.8452368 -0.1370581
vn -0.516517 -0.8452368 -0.1370581
vn -0.516517 -0.8452368 -0.1370581
vn -0.5194278 -0.8512552 0.07456221
vn -0.5194278 -0.8512552 0.07456221
vn -0.5194278 -0.8512552 0.07456221
vn -0.5194278 -0.8512551 0.07456219
vn -0.1555274 -0.9294962 0.3344369
vn -0.1555274 -0.9294963 0.3344369
vn -0.1555274 -0.9294962 0.3344369
vn -0.1555274 -0.9294962 0.3344369
vn 0.2660109 -0.9016821 0.3408926
vn 0.2660109 -0.9016821 0.3408926
vn 0.2660108 -0.9016821 0.3408926
vn 0.2660108 -0.9016821 0.3408926
vn 0.6238577 -0.7760486 0.0924664
vn 0.6238578 -0.7760486 0.09246638
vn 0.6238577 -0.7760486 0.09246641
vn 0.6238577 -0.7760486 0.0924664
vn 0.6269344 -0.7700404 -0.1182836
vn 0.6269344 -0.7700404 -0.1182837
vn 0.6269344 -0.7700404 -0.1182837
vn 0.6269344 -0.7700404 -0.1182836
vn 0.1661167 0.8568209 -0.4881219
vn 0.1661167 0.8568211 -0.4881219
vn 0.1661167 0.8568211 -0.4881219
vn 0.1661167 0.8568211 -0.4881219
vn -0.2499327 0.8300765 -0.4985044
vn -0.2499327 0.8300765 -0.4985045
vn -0.2499327 0.8300765 -0.4985044
vn -0.2499327 0.8300765 -0.4985045
vn -0.5529165 0.810665 -0.1926284
vn -0.5529165 0.810665 -0.1926284
vn -0.5529165 0.810665 -0.1926284
vn -0.5529165 0.810665 -0.1926284
vn -0.5514359 0.7963171 0.2485911
vn -0.5514359 0.7963171 0.2485911
vn -0.5514359 0.7963171 0.2485911
vn -0.5514359 0.7963171 0.2485911
vn -0.256257 0.7953649 0.5492969
vn -0.256257 0.7953649 0.5492969
vn -0.256257 0.7953649 0.549297
vn -0.256257 0.7953649 0.5492969
vn 0.1460098 0.8205277 0.5526439
vn 0.1460098 0.8205277 0.5526439
vn 0.1460098 0.8205277 0.552644
vn 0.1460098 0.8205277 0.5526439
vn 0.4407485 0.858534 0.2620306
vn 0.4407485 0.858534 0.2620307
vn 0.4407485 0.8585341 0.2620307
vn 0.4407485 0.858534 0.2620307
vn 0.4535461 0.874498 -0.1718985
vn 0.4535461 0.874498 -0.1718985
vn 0.4535461 0.874498 -0.1718985
vn 0.4535461 0.874498 -0.1718985
vn -0.05795236 0.9972784 0.04557879
vn -0.05795236 0.9972784 0.04557879
vn -0.05795236 0.9972784 0.04557879
vn -0.05795242 0.9972785 0.04557443
vn -0.0579488 0.9972786 0.04557886
vn -0.05795532 0.9972783 0.0455774
vn -0.05795504 0.9972779 0.04558527
vn -0.05795005 0.9972785 0.04557749
vn -0.05795489 0.9972785 0.04557225
g SM_Char_Attach_TopHat_01_0
f 3/3/3 2/2/2 1/1/1
f 6/6/6 5/5/5 4/4/4
f 9/9/9 8/8/8 7/7/7
f 12/12/12 11/11/11 10/10/10
f 15/15/15 14/14/14 13/13/13
f 18/18/18 17/17/17 16/16/16
f 21/21/21 20/20/20 19/19/19
f 24/24/24 23/23/23 22/22/22
f 27/27/27 26/26/26 25/25/25
f 28/28/28 27/27/27 25/25/25
f 31/31/31 30/30/30 29/29/29
f 32/32/32 31/31/31 29/29/29
f 35/35/35 34/34/34 33/33/33
f 36/36/36 35/35/35 33/33/33
f 39/39/39 38/38/38 37/37/37
f 40/40/40 39/39/39 37/37/37
f 43/43/43 42/42/42 41/41/41
f 44/44/44 43/43/43 41/41/41
f 47/47/47 46/46/46 45/45/45
f 48/48/48 47/47/47 45/45/45
f 51/51/51 50/50/50 49/49/49
f 52/52/52 51/51/51 49/49/49
f 55/55/55 54/54/54 53/53/53
f 56/56/56 55/55/55 53/53/53
f 59/59/59 58/58/58 57/57/57
f 60/60/60 59/59/59 57/57/57
f 63/63/63 62/62/62 61/61/61
f 64/64/64 63/63/63 61/61/61
f 67/67/67 66/66/66 65/65/65
f 68/68/68 67/67/67 65/65/65
f 71/71/71 70/70/70 69/69/69
f 72/72/72 71/71/71 69/69/69
f 75/75/75 74/74/74 73/73/73
f 76/76/76 75/75/75 73/73/73
f 79/79/79 78/78/78 77/77/77
f 80/80/80 79/79/79 77/77/77
f 83/83/83 82/82/82 81/81/81
f 84/84/84 83/83/83 81/81/81
f 87/87/87 86/86/86 85/85/85
f 88/88/88 87/87/87 85/85/85
f 91/91/91 90/90/90 89/89/89
f 92/92/92 91/91/91 89/89/89
f 95/95/95 94/94/94 93/93/93
f 96/96/96 95/95/95 93/93/93
f 99/99/99 98/98/98 97/97/97
f 100/100/100 99/99/99 97/97/97
f 103/103/103 102/102/102 101/101/101
f 104/104/104 103/103/103 101/101/101
f 107/107/107 106/106/106 105/105/105
f 108/108/108 107/107/107 105/105/105
f 111/111/111 110/110/110 109/109/109
f 112/112/112 111/111/111 109/109/109
f 115/115/115 114/114/114 113/113/113
f 116/116/116 115/115/115 113/113/113
f 119/119/119 118/118/118 117/117/117
f 120/120/120 119/119/119 117/117/117
f 123/123/123 122/122/122 121/121/121
f 124/124/124 123/123/123 121/121/121
f 127/127/127 126/126/126 125/125/125
f 128/128/128 127/127/127 125/125/125
f 131/131/131 130/130/130 129/129/129
f 132/132/132 131/131/131 129/129/129
f 135/135/135 134/134/134 133/133/133
f 136/136/136 135/135/135 133/133/133
f 139/139/139 138/138/138 137/137/137
f 140/140/140 139/139/139 137/137/137
f 143/143/143 142/142/142 141/141/141
f 144/144/144 143/143/143 141/141/141
f 147/147/147 146/146/146 145/145/145
f 148/148/148 147/147/147 145/145/145
f 151/151/151 150/150/150 149/149/149
f 152/152/152 151/151/151 149/149/149
f 155/155/155 154/154/154 153/153/153
f 156/156/156 155/155/155 153/153/153
f 159/159/159 158/158/158 157/157/157
f 160/160/160 159/159/159 157/157/157
f 163/163/163 162/162/162 161/161/161
f 164/164/164 163/163/163 161/161/161
f 167/167/167 166/166/166 165/165/165
f 168/168/168 167/167/167 165/165/165
f 171/171/171 170/170/170 169/169/169
f 172/172/172 171/171/171 169/169/169
f 175/175/175 174/174/174 173/173/173
f 176/176/176 175/175/175 173/173/173
f 179/179/179 178/178/178 177/177/177
f 180/180/180 179/179/179 177/177/177
f 183/183/183 182/182/182 181/181/181
f 184/184/184 183/183/183 181/181/181
f 187/187/187 186/186/186 185/185/185
f 188/188/188 187/187/187 185/185/185
f 191/191/191 190/190/190 189/189/189
f 192/192/192 191/191/191 189/189/189
f 195/195/195 194/194/194 193/193/193
f 196/196/196 195/195/195 193/193/193
f 199/199/199 198/198/198 197/197/197
f 200/200/200 199/199/199 197/197/197
f 203/203/203 202/202/202 201/201/201
f 204/204/204 203/203/203 201/201/201
f 207/207/207 206/206/206 205/205/205
f 208/208/208 207/207/207 205/205/205
f 211/211/211 210/210/210 209/209/209
f 212/212/212 211/211/211 209/209/209
f 215/215/215 214/214/214 213/213/213
f 216/216/216 215/215/215 213/213/213
f 219/219/219 218/218/218 217/217/217
f 217/217/217 218/218/218 220/220/220
f 221/221/221 218/218/218 219/219/219
f 220/220/220 218/218/218 222/222/222
f 223/223/223 218/218/218 221/221/221
f 222/222/222 218/218/218 224/224/224
f 225/225/225 218/218/218 223/223/223
f 224/224/224 218/218/218 225/225/225
